<svg width="23" height="21" viewBox="0 0 23 21" fill="none" xmlns="http://www.w3.org/2000/svg">
<path d="M4.33227 6.36819C4.38578 6.69066 4.51014 6.89456 4.63306 7.02326C4.92517 8.9697 6.55202 10.7759 8.04004 10.7759C9.7739 10.7759 11.353 8.82075 11.6567 7.0276C11.7825 6.90035 11.9083 6.695 11.9633 6.36819C12.0616 6.00377 12.1889 5.37039 11.9662 5.07249C11.9546 5.05803 11.9416 5.04212 11.93 5.03055C12.1397 4.26557 12.4043 2.68355 11.4571 1.60622C11.3733 1.49921 10.8411 0.864377 9.70593 0.528885L9.16365 0.34234C8.26997 0.0661369 7.70889 0.00395515 7.6843 0.00106297C7.64381 -0.0018292 7.60187 0.00106293 7.56283 0.0111855C7.53246 0.0198621 7.42545 0.0487838 7.34303 0.0372151C7.129 0.00684729 6.80797 0.11675 6.75158 0.138441C6.67783 0.168809 4.94686 0.861485 4.42193 2.47387C4.37276 2.60402 4.16308 3.28947 4.44217 4.96982C4.40024 4.99874 4.36264 5.03345 4.33083 5.07538C4.10524 5.37039 4.23249 6.00377 4.33227 6.36819Z" fill="white"/>
<path d="M11.2563 18.6368C10.9368 18.4575 10.5897 18.2854 10.2195 18.122C10.0402 18.0424 9.85798 17.9672 9.67721 17.8964C9.5355 17.8429 9.36775 17.7735 9.25062 17.7431L7.53556 17.2803L10.7444 10.7469L12.1197 11.6146C12.4103 11.7968 12.6243 11.9515 12.8586 12.1236L12.9078 12.1597C13.1406 12.3318 13.3691 12.5083 13.5932 12.6905C14.0806 13.0838 14.5115 13.4685 14.9121 13.8661C14.9424 13.8965 14.9713 13.924 15.0017 13.9543C15.1362 13.8054 15.2678 13.6724 15.3994 13.5292C15.2316 13.0303 15.0277 12.569 14.779 12.1988C14.779 12.1988 14.4262 11.7172 13.5889 11.3962C13.5889 11.3962 13.518 11.3745 13.4096 11.3384C12.6648 10.9899 11.9577 10.7657 11.9577 10.7657C11.8059 10.7108 11.6728 10.6573 11.5528 10.6052C11.0467 10.355 10.6258 10.073 10.5391 9.80696C10.5391 9.80696 10.8312 12.6341 8.35983 12.7006L8.01566 12.6847C5.77567 12.4851 5.62673 9.80118 5.62673 9.80118C5.39246 10.5372 2.57548 11.3933 2.57548 11.3933C1.7382 11.7144 1.38391 12.1973 1.38391 12.1973C0.146055 14.0339 0 18.1205 0 18.1205C0.015907 19.0547 0.419365 19.1516 0.419365 19.1516C3.26671 20.4227 7.73367 20.6468 7.73367 20.6468C7.97517 20.6526 8.19931 20.6396 8.42346 20.6266L8.42924 20.6497C8.42924 20.6497 10.6099 20.5384 12.8962 20.038L12.6171 19.6722C12.3901 19.3728 11.8825 18.9867 11.2563 18.6368Z" fill="white"/>
<path d="M10.4436 9.92696C10.474 9.88792 10.5072 9.84888 10.539 9.80549C10.5318 9.77946 10.5304 9.76645 10.5304 9.76645C10.5029 9.82285 10.4711 9.87057 10.4436 9.92696Z" fill="white"/>
<path d="M5.63997 9.79682L5.63274 9.76645L5.62695 9.79826C5.6284 9.79248 5.63418 9.78669 5.63563 9.78091C5.63708 9.78236 5.63852 9.78814 5.63997 9.79682Z" fill="white"/>
<path d="M20.0745 11.1085C19.2633 11.6811 18.507 12.329 17.7868 13.0101C17.0652 13.6955 16.3812 14.4171 15.7232 15.1618C15.4789 15.4395 15.2417 15.72 15.006 16.002C15.0031 15.9977 15.0002 15.9933 14.9988 15.989C14.6517 15.5262 14.2757 15.1141 13.8853 14.728C13.4948 14.3434 13.0899 13.9876 12.6734 13.6492C12.4638 13.4815 12.2526 13.3166 12.0372 13.1547C11.813 12.9927 11.6164 12.8467 11.3416 12.6731L9.63232 16.151C9.7885 16.1929 10.0155 16.2811 10.2079 16.3563C10.4118 16.4344 10.6113 16.5183 10.8109 16.6065C11.21 16.7829 11.599 16.9752 11.9706 17.182C12.7053 17.5927 13.3893 18.0931 13.7797 18.6035L15.0942 20.3273L15.8505 18.6874C16.2308 17.866 16.6863 17.007 17.1534 16.1886C17.6248 15.3643 18.1281 14.5559 18.6733 13.7765C19.2184 12.997 19.8027 12.2436 20.4563 11.5495C21.1099 10.8597 21.8315 10.2177 22.6919 9.76215C21.7578 10.0398 20.8843 10.5416 20.0745 11.1085Z" fill="white"/>
</svg>
