<svg width="22" height="23" viewBox="0 0 22 23" fill="none" xmlns="http://www.w3.org/2000/svg">
<path d="M3.02924 22.8461H18.9708C20.6419 22.8461 22 21.488 22 19.8169V4.72151C22 3.05036 20.6419 1.69227 18.9708 1.69227H17.7692V0.846137C17.7692 0.380748 17.3884 0 16.923 0C16.4576 0 16.0769 0.380748 16.0769 0.846137V1.69227H5.9231V0.846137C5.9231 0.380748 5.54229 0 5.0769 0C4.61151 0 4.23076 0.380748 4.23076 0.846137V1.69227H3.02924C1.35809 1.69227 0 3.05036 0 4.72151V19.8169C0 21.488 1.35809 22.8461 3.02924 22.8461ZM1.69235 4.72151C1.69235 3.98538 2.29311 3.38462 3.02924 3.38462H4.23076V4.23076C4.23076 4.69615 4.61151 5.0769 5.0769 5.0769C5.54229 5.0769 5.92303 4.69615 5.92303 4.23076V3.38462H16.0769V4.23076C16.0769 4.69615 16.4576 5.0769 16.923 5.0769C17.3884 5.0769 17.7692 4.69615 17.7692 4.23076V3.38462H18.9707C19.7068 3.38462 20.3076 3.98538 20.3076 4.72151V19.8169C20.3076 20.553 19.7068 21.1538 18.9707 21.1538H3.02924C2.29311 21.1538 1.69235 20.553 1.69235 19.8169V4.72151Z" fill="#0254A8"/>
<path d="M6.13458 9.73072C6.71872 9.73072 7.19225 9.25719 7.19225 8.67305C7.19225 8.08891 6.71872 7.61538 6.13458 7.61538C5.55044 7.61538 5.0769 8.08891 5.0769 8.67305C5.0769 9.25719 5.55044 9.73072 6.13458 9.73072Z" fill="#0254A8"/>
<path d="M10.7881 9.73072C11.3723 9.73072 11.8458 9.25719 11.8458 8.67305C11.8458 8.08891 11.3723 7.61538 10.7881 7.61538C10.204 7.61538 9.73047 8.08891 9.73047 8.67305C9.73047 9.25719 10.204 9.73072 10.7881 9.73072Z" fill="#0254A8"/>
<path d="M15.4422 9.73072C16.0263 9.73072 16.4999 9.25719 16.4999 8.67305C16.4999 8.08891 16.0263 7.61538 15.4422 7.61538C14.8581 7.61538 14.3845 8.08891 14.3845 8.67305C14.3845 9.25719 14.8581 9.73072 15.4422 9.73072Z" fill="#0254A8"/>
<path d="M6.13458 13.9615C6.71872 13.9615 7.19225 13.488 7.19225 12.9038C7.19225 12.3197 6.71872 11.8461 6.13458 11.8461C5.55044 11.8461 5.0769 12.3197 5.0769 12.9038C5.0769 13.488 5.55044 13.9615 6.13458 13.9615Z" fill="#0254A8"/>
<path d="M10.7881 13.9615C11.3723 13.9615 11.8458 13.488 11.8458 12.9038C11.8458 12.3197 11.3723 11.8461 10.7881 11.8461C10.204 11.8461 9.73047 12.3197 9.73047 12.9038C9.73047 13.488 10.204 13.9615 10.7881 13.9615Z" fill="#0254A8"/>
<path d="M15.4422 13.9615C16.0263 13.9615 16.4999 13.488 16.4999 12.9038C16.4999 12.3197 16.0263 11.8461 15.4422 11.8461C14.8581 11.8461 14.3845 12.3197 14.3845 12.9038C14.3845 13.488 14.8581 13.9615 15.4422 13.9615Z" fill="#0254A8"/>
<path d="M6.13458 18.1922C6.71872 18.1922 7.19225 17.7187 7.19225 17.1346C7.19225 16.5504 6.71872 16.0769 6.13458 16.0769C5.55044 16.0769 5.0769 16.5504 5.0769 17.1346C5.0769 17.7187 5.55044 18.1922 6.13458 18.1922Z" fill="#0254A8"/>
<path d="M10.7881 18.1922C11.3723 18.1922 11.8458 17.7187 11.8458 17.1346C11.8458 16.5504 11.3723 16.0769 10.7881 16.0769C10.204 16.0769 9.73047 16.5504 9.73047 17.1346C9.73047 17.7187 10.204 18.1922 10.7881 18.1922Z" fill="#0254A8"/>
<path d="M15.4422 18.1922C16.0263 18.1922 16.4999 17.7187 16.4999 17.1346C16.4999 16.5504 16.0263 16.0769 15.4422 16.0769C14.8581 16.0769 14.3845 16.5504 14.3845 17.1346C14.3845 17.7187 14.8581 18.1922 15.4422 18.1922Z" fill="#0254A8"/>
</svg>
