<svg width="30" height="22" viewBox="0 0 30 22" fill="none" xmlns="http://www.w3.org/2000/svg">
<path d="M28.7344 15.17H4.21976C3.71915 15.17 3.30957 14.7604 3.30957 14.2598V0.910187C3.30957 0.409584 3.71915 0 4.21976 0H28.7344C29.235 0 29.6446 0.409584 29.6446 0.910187V14.2598C29.6446 14.7604 29.235 15.17 28.7344 15.17Z" fill="#0254A8"/>
<path d="M26.9525 4.5485C26.1746 4.27926 25.5598 3.60537 25.3148 2.75262C25.1742 2.2655 24.7635 1.93327 24.2979 1.93327H18.3891H16.9363H8.658C8.19249 1.93327 7.78174 2.2655 7.64105 2.75262C7.39607 3.60531 6.78129 4.27921 6.00335 4.5485C5.55891 4.70193 5.25586 5.15222 5.25586 5.66325V7.57922V7.59085V9.50682C5.25586 10.0178 5.55897 10.4681 6.00335 10.6216C6.78129 10.8908 7.39607 11.5647 7.64105 12.4175C7.78169 12.9046 8.19243 13.2368 8.658 13.2368H16.9363H18.389H24.2979C24.7634 13.2368 25.1741 12.9046 25.3148 12.4175C25.5598 11.5648 26.1746 10.8909 26.9525 10.6216C27.397 10.4681 27.7 10.0178 27.7 9.50682V7.59085V7.57922V5.66325C27.7001 5.15222 27.397 4.70193 26.9525 4.5485Z" fill="#2979CB"/>
<path d="M27.1573 18.5078H2.64261C2.14201 18.5078 1.73242 18.0983 1.73242 17.5977V4.24806C1.73242 3.74746 2.14201 3.33788 2.64261 3.33788H27.1573C27.6579 3.33788 28.0675 3.74746 28.0675 4.24806V17.5977C28.0675 18.0983 27.6579 18.5078 27.1573 18.5078Z" fill="#0254A8"/>
<path d="M25.3744 7.88633C24.5965 7.61709 23.9817 6.9432 23.7367 6.09045C23.5961 5.60333 23.1853 5.2711 22.7198 5.2711H16.8109H15.3581H7.07988C6.61436 5.2711 6.20362 5.60333 6.06292 6.09045C5.81795 6.94314 5.20317 7.61704 4.42522 7.88633C3.98078 8.03976 3.67773 8.49005 3.67773 9.00108V10.917V10.9287V12.8447C3.67773 13.3557 3.98084 13.806 4.42522 13.9594C5.20317 14.2286 5.81789 14.9025 6.06292 15.7553C6.20356 16.2424 6.6143 16.5746 7.07988 16.5746H15.3581H16.8109H22.7198C23.1853 16.5746 23.5961 16.2424 23.7368 15.7553C23.9818 14.9026 24.5965 14.2287 25.3745 13.9594C25.8189 13.806 26.122 13.3557 26.122 12.8447V10.9287V10.917V9.00108C26.122 8.49005 25.8189 8.03976 25.3744 7.88633Z" fill="#64C37D"/>
<path d="M25.3744 7.88633C24.5965 7.61709 23.9817 6.9432 23.7367 6.09045C23.5961 5.60333 23.1853 5.2711 22.7198 5.2711H16.8109H15.3581H7.07988C6.61436 5.2711 6.20362 5.60333 6.06292 6.09045C5.81795 6.94314 5.20317 7.61704 4.42522 7.88633C3.98078 8.03976 3.67773 8.49005 3.67773 9.00108V10.917V10.9287V12.8447C3.67773 13.3557 3.98084 13.806 4.42522 13.9594C5.20317 14.2286 5.81789 14.9025 6.06292 15.7553C6.20356 16.2424 6.6143 16.5746 7.07988 16.5746H15.3581H16.8109H22.7198C23.1853 16.5746 23.5961 16.2424 23.7368 15.7553C23.9818 14.9026 24.5965 14.2287 25.3745 13.9594C25.8189 13.806 26.122 13.3557 26.122 12.8447V10.9287V10.917V9.00108C26.122 8.49005 25.8189 8.03976 25.3744 7.88633Z" fill="#2979CB"/>
<path d="M26.335 7.65282V21.0024C26.335 21.503 25.9255 21.9126 25.4249 21.9126H0.910187C0.409584 21.9126 0 21.503 0 21.0024V7.65282C0 7.15221 0.409584 6.74263 0.910187 6.74263H25.4249C25.9255 6.74263 26.335 7.15221 26.335 7.65282Z" fill="#0254A8"/>
<path d="M26.3352 7.65282V20.6383H2.1846C1.684 20.6383 1.27441 20.2287 1.27441 19.7281V6.74263H25.425C25.9256 6.74263 26.3352 7.15221 26.3352 7.65282Z" fill="#0254A8"/>
<path d="M23.642 11.2911C22.864 11.0219 22.2493 10.348 22.0043 9.49526C21.8637 9.00815 21.4529 8.67592 20.9873 8.67592H15.0785H13.6257H5.34746C4.88194 8.67592 4.4712 9.00815 4.3305 9.49526C4.08553 10.348 3.47074 11.0219 2.6928 11.2911C2.24836 11.4446 1.94531 11.8949 1.94531 12.4059V14.3219V14.3335V16.2495C1.94531 16.7605 2.24842 17.2108 2.6928 17.3642C3.47074 17.6334 4.08547 18.3073 4.3305 19.1601C4.47114 19.6472 4.88188 19.9794 5.34746 19.9794H13.6257H15.0785H20.9874C21.4529 19.9794 21.8637 19.6472 22.0044 19.1601C22.2494 18.3074 22.8641 17.6335 23.6421 17.3642C24.0865 17.2108 24.3895 16.7605 24.3895 16.2495V14.3335V14.3219V12.4059C24.3895 11.8949 24.0864 11.4446 23.642 11.2911Z" fill="#2979CB"/>
<path d="M13.1672 17.8355C15.1046 17.8355 16.6752 16.2649 16.6752 14.3275C16.6752 12.3901 15.1046 10.8195 13.1672 10.8195C11.2298 10.8195 9.65918 12.3901 9.65918 14.3275C9.65918 16.2649 11.2298 17.8355 13.1672 17.8355Z" fill="white"/>
<path d="M13.1672 17.1821C13.4186 17.1821 13.6223 16.9784 13.6223 16.727V16.431C14.1239 16.247 14.4827 15.7647 14.4827 15.2001C14.4827 14.4809 13.9002 13.8951 13.1822 13.8897L13.1732 13.8893C13.1703 13.8892 13.1675 13.8892 13.1646 13.8891C12.9518 13.8847 12.7719 13.6924 12.7719 13.4693C12.7719 13.2514 12.9492 13.0718 13.1629 13.0691L13.1655 13.0691C13.3843 13.0709 13.5623 13.2505 13.5623 13.4693C13.5623 13.7207 13.7661 13.9244 14.0174 13.9244C14.2688 13.9244 14.4725 13.7207 14.4725 13.4693C14.4725 12.9118 14.1189 12.4336 13.6222 12.2453V11.9282C13.6222 11.6769 13.4185 11.4731 13.1671 11.4731C12.9158 11.4731 12.712 11.6769 12.712 11.9282V12.2444C12.2167 12.4323 11.8616 12.9116 11.8616 13.4692C11.8616 14.186 12.435 14.7815 13.1406 14.7989L13.154 14.7995C13.1601 14.7997 13.1661 14.7998 13.1721 14.7998C13.3928 14.7998 13.5724 14.9794 13.5724 15.2001C13.5724 15.4208 13.3929 15.6003 13.1708 15.6003H13.162C12.9413 15.6003 12.7617 15.4208 12.7617 15.2C12.7617 14.9487 12.558 14.7449 12.3067 14.7449C12.0553 14.7449 11.8516 14.9487 11.8516 15.2C11.8516 15.7643 12.2101 16.2464 12.712 16.4306V16.7269C12.7121 16.9784 12.9158 17.1821 13.1672 17.1821Z" fill="#0254A8"/>
</svg>
