<svg width="21" height="21" viewBox="0 0 21 21" fill="none" xmlns="http://www.w3.org/2000/svg">
<path d="M10.5 0C4.71032 0 2.82192e-05 4.46232 2.82192e-05 9.94737C2.82192e-05 11.8646 0.576128 13.7218 1.66883 15.3278C1.46198 17.7362 0.907577 19.5241 0.102578 20.3711C-0.00382177 20.4831 -0.0304217 20.6544 0.0367782 20.7959C0.0962781 20.9223 0.218778 21 0.350028 21C0.366128 21 0.382228 20.9989 0.398678 20.9963C0.540428 20.9753 3.83322 20.4765 6.21497 19.0293C7.56737 19.6037 9.00797 19.8947 10.5 19.8947C16.2897 19.8947 21 15.4324 21 9.94737C21 4.46232 16.2897 0 10.5 0ZM5.60002 11.4211C4.82792 11.4211 4.20002 10.7601 4.20002 9.94737C4.20002 9.13463 4.82792 8.47368 5.60002 8.47368C6.37212 8.47368 7.00002 9.13463 7.00002 9.94737C7.00002 10.7601 6.37212 11.4211 5.60002 11.4211ZM10.5 11.4211C9.72792 11.4211 9.10002 10.7601 9.10002 9.94737C9.10002 9.13463 9.72792 8.47368 10.5 8.47368C11.2721 8.47368 11.9 9.13463 11.9 9.94737C11.9 10.7601 11.2721 11.4211 10.5 11.4211ZM15.4 11.4211C14.6279 11.4211 14 10.7601 14 9.94737C14 9.13463 14.6279 8.47368 15.4 8.47368C16.1721 8.47368 16.8 9.13463 16.8 9.94737C16.8 10.7601 16.1721 11.4211 15.4 11.4211Z" fill="#C1C1C1"/>
</svg>
