<svg width="33" height="33" viewBox="0 0 33 33" fill="none" xmlns="http://www.w3.org/2000/svg">
<path d="M0 16.5C0 16.0358 0 15.8036 0.0048189 15.6073C0.214189 7.07854 7.07854 0.214189 15.6073 0.0048189C15.8036 0 16.0358 0 16.5 0C16.9642 0 17.1964 0 17.3927 0.0048189C25.9215 0.214189 32.7858 7.07854 32.9952 15.6073C33 15.8036 33 16.0358 33 16.5C33 16.9642 33 17.1964 32.9952 17.3927C32.7858 25.9215 25.9215 32.7858 17.3927 32.9952C17.1964 33 16.9642 33 16.5 33C16.0358 33 15.8036 33 15.6073 32.9952C7.07854 32.7858 0.214189 25.9215 0.0048189 17.3927C0 17.1964 0 16.9642 0 16.5Z" fill="#CC2626"/>
<path d="M5.1333 16.4228C5.1333 10.1878 10.1878 5.13333 16.4228 5.13333C22.6578 5.13333 27.7122 10.1878 27.7122 16.4228C27.7122 22.6578 22.6578 27.7123 16.4228 27.7123C10.1878 27.7123 5.1333 22.6578 5.1333 16.4228Z" fill="white"/>
<path d="M20.5334 15.4C20.5334 17.7325 18.4895 19.8378 17.1877 20.9422C16.572 21.4645 15.6948 21.4645 15.0791 20.9422C13.7773 19.8378 11.7334 17.7325 11.7334 15.4C11.7334 14.233 12.197 13.1139 13.0221 12.2887C13.8473 11.4636 14.9664 11 16.1334 11C17.3004 11 18.4195 11.4636 19.2447 12.2887C20.0698 13.1139 20.5334 14.233 20.5334 15.4Z" fill="#CC2626"/>
<path d="M16.1332 16.8667C16.9432 16.8667 17.5998 16.21 17.5998 15.4C17.5998 14.59 16.9432 13.9333 16.1332 13.9333C15.3232 13.9333 14.6665 14.59 14.6665 15.4C14.6665 16.21 15.3232 16.8667 16.1332 16.8667Z" fill="white"/>
</svg>
