<svg width="16" height="16" viewBox="0 0 16 16" fill="none" xmlns="http://www.w3.org/2000/svg">
<circle cx="8" cy="8" r="8" fill="white"/>
<path d="M13.6603 2.34033C10.5407 -0.780109 5.46315 -0.780109 2.34356 2.34033C0.832415 3.85247 0 5.8625 0 8.00023C0 10.138 0.832415 12.148 2.34356 13.6595C3.90367 15.2201 5.95281 16 8.00193 16C10.051 16 12.1002 15.2201 13.6603 13.6595C16.7799 10.5391 16.7799 5.46136 13.6603 2.34033ZM12.7839 12.7828C10.1471 15.4203 5.85672 15.4203 3.21997 12.7828C1.94315 11.5057 1.23964 9.80689 1.23964 8.00023C1.23964 6.19356 1.94315 4.49478 3.21997 3.21698C5.85672 0.579522 10.1471 0.580147 12.7839 3.21698C15.42 5.85444 15.42 10.146 12.7839 12.7828Z" fill="#008080"/>
<path d="M10.6731 9.71412L8.91841 7.96142L10.6731 6.20871C10.9149 5.96692 10.9149 5.57447 10.6738 5.33202C10.4314 5.08899 10.0391 5.08961 9.79673 5.3314L8.04077 7.08536L6.28482 5.3314C6.04247 5.08961 5.65012 5.08899 5.40778 5.33202C5.16605 5.57444 5.16605 5.96689 5.4084 6.20871L7.16314 7.96142L5.4084 9.71412C5.16605 9.95591 5.16605 10.3484 5.40778 10.5908C5.52865 10.7123 5.68793 10.7725 5.84662 10.7725C6.00531 10.7725 6.16397 10.7117 6.28485 10.5914L8.0408 8.83744L9.79676 10.5914C9.91764 10.7123 10.0763 10.7725 10.235 10.7725C10.3937 10.7725 10.553 10.7117 10.6738 10.5908C10.9155 10.3484 10.9155 9.95591 10.6731 9.71412Z" fill="#008080"/>
</svg>
