<svg width="27" height="27" viewBox="0 0 27 27" fill="none" xmlns="http://www.w3.org/2000/svg">
<path d="M13.0667 27C20.2832 27 26.1333 21.1499 26.1333 13.9334C26.1333 6.71683 20.2832 0.866684 13.0667 0.866684C5.85015 0.866684 0 6.71683 0 13.9334C0 21.1499 5.85015 27 13.0667 27Z" fill="white"/>
<path d="M23.4502 21.8667C24.757 20.1557 25.621 18.1483 25.9652 16.023C26.3095 13.8977 26.1234 11.7203 25.4236 9.68426C24.7237 7.6482 23.5318 5.81653 21.9536 4.35201C20.3755 2.8875 18.46 1.83549 16.3774 1.28947L13.0669 4.60001V8.33334L15.8669 12.0667L19.6002 13.4667V15.8L17.7336 19.0667L20.5336 21.8667H23.4502Z" fill="#0254A8"/>
<path d="M13.5339 26.9916C13.3783 26.9972 13.2228 27 13.0672 27C10.6831 27.0001 8.34438 26.3479 6.30437 25.114C4.26436 23.8801 2.60082 22.1116 1.4939 20H5.1339L7.9339 19.0667L10.7339 20V22.8L13.5339 23.7334V26.9916Z" fill="#0254A8"/>
<path d="M0.123535 12.1283C0.372253 10.3432 0.987682 8.62881 1.93111 7.09308C2.87454 5.55735 4.12555 4.23346 5.60547 3.20468L9.79987 6.93335V11.1333L11.6665 13.9334V16.2667H5.1332L3.7332 13H1.86654L0.123535 12.1283Z" fill="#0254A8"/>
<path d="M14.4672 13.9334H16.3338V16.7334L14.0005 17.6667V15.8L14.4672 13.9334Z" fill="#0254A8"/>
<path d="M22.3999 2.26669C22.2153 2.26669 22.0348 2.21195 21.8814 2.1094C21.7279 2.00684 21.6082 1.86107 21.5376 1.69053C21.467 1.51999 21.4485 1.33232 21.4845 1.15127C21.5205 0.970225 21.6094 0.803921 21.7399 0.673392C21.8704 0.542863 22.0368 0.453971 22.2178 0.417959C22.3989 0.381946 22.5865 0.400429 22.7571 0.471071C22.9276 0.541712 23.0734 0.66134 23.1759 0.814826C23.2785 0.968312 23.3332 1.14876 23.3332 1.33336C23.3332 1.58089 23.2349 1.81829 23.0599 1.99332C22.8848 2.16836 22.6474 2.26669 22.3999 2.26669Z" fill="white"/>
</svg>
