<svg width="29" height="29" viewBox="0 0 29 29" fill="none" xmlns="http://www.w3.org/2000/svg">
<path d="M14.001 2.33347C12.1968 2.33347 10.7341 3.79609 10.7341 5.60033C10.7341 7.40457 12.1968 8.86719 14.001 8.86719C15.8044 8.86509 17.2658 7.40369 17.2679 5.60033C17.2679 3.79609 15.8052 2.33347 14.001 2.33347ZM14.001 7.9338C12.7123 7.9338 11.6675 6.88905 11.6675 5.60033C11.6675 4.31161 12.7123 3.26685 14.001 3.26685C15.2897 3.26685 16.3345 4.31161 16.3345 5.60033C16.3329 6.88846 15.2891 7.93228 14.001 7.9338Z" fill="#0254A8"/>
<path d="M27.9945 27.4538L25.1944 11.5862C25.1552 11.3632 24.9614 11.2006 24.735 11.2007H17.6841L18.9911 8.31504C19.8618 6.56173 19.7972 4.48896 18.8188 2.79334C17.9242 1.18196 16.2726 0.135227 14.4335 0.0141197C14.2972 0.00478585 14.1391 2.22418e-06 14.001 2.22418e-06C13.4652 -0.000464471 12.9318 0.0725149 12.4159 0.216957C10.8477 0.657692 9.55968 1.77811 8.90607 3.27007C8.19652 4.84884 8.23059 6.66224 8.99906 8.21319L10.3421 11.2007H3.7337C3.51219 11.2007 3.32126 11.3563 3.27657 11.5733L0.00970783 27.4409C-0.0423286 27.6933 0.120023 27.94 0.37233 27.9921C0.403423 27.9985 0.4351 28.0017 0.466835 28.0017H27.5351C27.7929 28.0015 28.0018 27.7924 28.0016 27.5345C28.0016 27.5075 27.9993 27.4805 27.9945 27.4538ZM9.84267 7.81393C9.19239 6.50882 9.16159 4.98086 9.75884 3.6506C10.299 2.41334 11.3654 1.48339 12.6647 1.11657C13.0997 0.994762 13.5493 0.9331 14.001 0.933333C14.119 0.933333 14.2535 0.937183 14.3701 0.945176C15.8973 1.04773 17.2679 1.91864 18.0094 3.25771C18.8337 4.68853 18.8857 6.4373 18.1479 7.91462L14.0024 17.0664L9.84267 7.81393ZM9.80073 16.8012C9.80073 16.8012 9.80073 16.8011 9.80073 16.801V12.1341H10.7618L13.5753 18.3925C13.6506 18.5599 13.817 18.6676 14.0005 18.6678H14.001C14.1843 18.6678 14.3506 18.5606 14.4262 18.3937L17.2613 12.1341H24.3435L26.0728 21.9347H21.9348V20.0679C21.9348 19.8102 21.726 19.6012 21.4683 19.6012C21.4683 19.6012 21.4682 19.6012 21.4681 19.6012H7.46726V17.2677H9.33403C9.59171 17.2678 9.80067 17.0589 9.80073 16.8012ZM4.11423 12.1341H8.86734V16.3343H3.24944L4.11423 12.1341ZM17.2678 22.4011C17.2678 22.4012 17.2678 22.4013 17.2678 22.4013V27.0683H1.03929L3.05728 17.2677H6.53392V20.0679C6.53387 20.3255 6.74271 20.5345 7.00039 20.5346C7.00044 20.5346 7.00056 20.5346 7.00062 20.5346H21.0015V21.9347H17.7346C17.4769 21.9346 17.2679 22.1434 17.2678 22.4011ZM18.2012 27.0683V22.868H26.2375L26.9786 27.0683H18.2012Z" fill="#0254A8"/>
</svg>
