<svg width="21" height="21" viewBox="0 0 21 21" fill="none" xmlns="http://www.w3.org/2000/svg">
<path d="M16.8751 0.0317237C16.8198 0.0105149 16.7623 4.36391e-08 16.7046 4.36391e-08C16.5998 -4.47006e-05 16.4953 0.0343189 16.41 0.101614C16.3932 0.115127 14.6324 1.48497 13.2201 1.93148C12.8845 2.0373 12.4119 2.1692 11.8694 2.32111C9.27884 3.04543 7.07519 3.70447 6.34438 4.43527C5.52936 5.25029 4.99417 8.46221 4.82177 9.64467C2.09349 10.0809 0 12.4234 0 15.2727C0 18.4309 2.56908 21 5.72726 21C8.88545 21 11.4545 18.4515 11.4545 15.2932C11.4545 14.5995 11.3219 13.9228 11.0742 13.273C11.9237 12.7963 12.7961 12.4654 13.4093 12.4068C13.5426 12.3942 13.6694 12.3886 13.7942 12.3825C14.4831 12.3504 15.1962 12.3173 16.5078 11.3632C17.2125 10.851 17.618 10.1821 18.0478 9.47464C18.6369 8.50145 19.2475 7.49565 20.7623 6.61754C20.9096 6.53226 21 6.37471 21 6.2046C21 1.66301 16.9161 0.0475632 16.8751 0.0317237ZM5.72726 20.066C3.09572 20.066 0.954529 17.9248 0.954529 15.2932C0.954529 12.6617 3.09577 10.5205 5.72726 10.5205C6.2476 10.5205 6.76153 10.6142 7.25094 10.779C6.87026 11.0768 6.49069 11.4326 6.1807 11.8136C6.12705 11.6086 5.94915 11.4545 5.72726 11.4545C5.46345 11.4545 5.24998 11.668 5.24998 11.9318V12.4332C4.44252 12.5502 3.81816 13.2402 3.81816 14.0795C3.81816 15.0005 4.56763 15.75 5.4886 15.75H5.96589C6.36022 15.75 6.68179 16.0711 6.68179 16.4659C6.68179 16.8607 6.36017 17.1818 5.96589 17.1818H4.29545C4.03164 17.1818 3.81816 17.3953 3.81816 17.6591C3.81816 17.9229 4.03164 18.1364 4.29545 18.1364H5.24998V18.6137C5.24998 18.8775 5.46345 19.0909 5.72726 19.0909C5.99108 19.0909 6.20455 18.8775 6.20455 18.6137V18.1123C7.01201 17.9952 7.63637 17.3052 7.63637 16.4659C7.63637 15.545 6.8869 14.7955 5.96593 14.7955H5.48864C5.09431 14.7955 4.77274 14.4744 4.77274 14.0796C4.77274 13.6848 5.09436 13.3637 5.48864 13.3637H5.51079C5.52287 13.6751 5.64171 13.953 5.86714 14.1784C6.30433 14.6151 6.8571 14.7908 7.44719 14.7908C8.39402 14.7908 9.43585 14.3368 10.2503 13.7833C10.4156 14.2718 10.5 14.7777 10.5 15.2933C10.5 17.9248 8.35881 20.066 5.72726 20.066ZM17.2312 8.97964C16.8369 9.62981 16.4966 10.1914 15.9467 10.5914C14.8663 11.3772 14.3732 11.4 13.7496 11.4289C13.6097 11.4355 13.468 11.4424 13.3179 11.4569C12.3513 11.5487 10.9512 12.143 9.75147 12.9707C8.68598 13.7076 7.2262 14.1877 6.54201 13.5035C6.48608 13.4475 6.43946 13.372 6.47396 13.201C6.62591 12.4534 8.01669 11.2467 8.76987 10.9423C9.675 10.5769 11.8367 9.58744 12.3727 8.29639C12.4333 8.14958 12.4175 7.9813 12.3289 7.84895C12.0111 7.37166 11.5133 7.15402 11.1507 6.9946C11.0397 6.94614 10.8934 6.88972 10.8925 6.88739C10.7573 6.69119 10.4963 6.62685 10.2865 6.73218C9.99569 6.87759 9.2192 7.10132 8.9442 7.17541C8.80902 7.21179 8.69622 7.30593 8.63658 7.43269L7.49153 9.85595C6.94587 9.67926 6.37637 9.57782 5.79921 9.57048C6.06723 7.83262 6.56734 5.56216 7.01925 5.1102C7.63261 4.49729 10.4459 3.71055 12.1266 3.24024C12.6803 3.08503 13.1642 2.94985 13.5072 2.84126C14.7749 2.44134 16.2123 1.43741 16.766 1.02867C17.5286 1.40479 19.9103 2.82591 20.0398 5.93796C18.4868 6.90883 17.7933 8.05213 17.2312 8.97964ZM8.46132 10.0372L9.40654 8.03763C9.66382 7.96448 10.0945 7.83628 10.4301 7.70764C10.5317 7.76545 10.6454 7.8153 10.7675 7.86846C10.9642 7.95517 11.1805 8.04976 11.3483 8.18211C10.8505 8.8799 9.54077 9.59626 8.46132 10.0372Z" fill="white"/>
</svg>
