<svg width="62" height="62" viewBox="0 0 62 62" fill="none" xmlns="http://www.w3.org/2000/svg">
<path d="M6.64282 27.456L25.1642 41.5056L30.3357 37.5819C30.5281 37.4361 30.7629 37.3572 31.0044 37.3572C31.2458 37.3572 31.4807 37.4361 31.6731 37.5819L36.8401 41.5012L55.3571 27.456V6.36053H6.64282V27.456ZM30.9999 11.8962C33.6417 11.8992 36.1745 12.9499 38.0425 14.8179C39.9105 16.686 40.9613 19.2187 40.9642 21.8605V24.0748C40.9654 24.7952 40.7319 25.4964 40.2989 26.0723C39.866 26.6481 39.2572 27.0672 38.5648 27.2662C37.8724 27.4651 37.134 27.4331 36.4614 27.1748C35.7888 26.9166 35.2187 26.4464 34.8373 25.8352C33.9185 26.7174 32.723 27.255 31.4533 27.3569C30.1836 27.4589 28.9177 27.119 27.8698 26.3948C26.822 25.6705 26.0566 24.6064 25.7032 23.3827C25.3499 22.1589 25.4302 20.8506 25.9307 19.6792C26.4312 18.5079 27.3211 17.5455 28.4498 16.955C29.5784 16.3644 30.8764 16.182 32.1241 16.4387C33.3717 16.6953 34.4924 17.3752 35.2963 18.3632C36.1003 19.3513 36.5381 20.5867 36.5356 21.8605V24.0748C36.5356 24.3684 36.6523 24.65 36.8599 24.8577C37.0676 25.0653 37.3492 25.1819 37.6428 25.1819C37.9364 25.1819 38.218 25.0653 38.4257 24.8577C38.6333 24.65 38.7499 24.3684 38.7499 24.0748V21.8605C38.7499 20.3277 38.2954 18.8293 37.4438 17.5549C36.5922 16.2804 35.3819 15.287 33.9657 14.7005C32.5496 14.1139 30.9913 13.9604 29.488 14.2594C27.9846 14.5585 26.6037 15.2966 25.5199 16.3804C24.436 17.4643 23.6979 18.8452 23.3989 20.3486C23.0998 21.8519 23.2533 23.4102 23.8399 24.8263C24.4265 26.2424 25.4198 27.4528 26.6943 28.3044C27.9688 29.156 29.4671 29.6105 30.9999 29.6105H34.3214C34.615 29.6105 34.8966 29.7272 35.1042 29.9348C35.3119 30.1424 35.4285 30.424 35.4285 30.7177C35.4285 31.0113 35.3119 31.2929 35.1042 31.5005C34.8966 31.7082 34.615 31.8248 34.3214 31.8248H30.9999C28.3573 31.8248 25.8228 30.775 23.9541 28.9063C22.0855 27.0377 21.0357 24.5032 21.0357 21.8605C21.0357 19.2178 22.0855 16.6834 23.9541 14.8147C25.8228 12.946 28.3573 11.8962 30.9999 11.8962Z" fill="#0254A8"/>
<path d="M30.9999 25.1819C32.8343 25.1819 34.3213 23.6949 34.3213 21.8605C34.3213 20.0261 32.8343 18.5391 30.9999 18.5391C29.1655 18.5391 27.6785 20.0261 27.6785 21.8605C27.6785 23.6949 29.1655 25.1819 30.9999 25.1819Z" fill="#0254A8"/>
<path d="M0.72522 22.9676L4.42861 25.7765V20.1588L0.72522 22.9676Z" fill="#0254A8"/>
<path d="M0 60.595L23.3319 42.8951L0 25.1974V60.595Z" fill="#0254A8"/>
<path d="M57.5714 25.7765L61.2748 22.9677L57.5714 20.1599V25.7765Z" fill="#0254A8"/>
<path d="M62 25.1974L38.6681 42.8951L62 60.595V25.1974Z" fill="#0254A8"/>
<path d="M30.9999 39.8571L2.18433 61.7176H59.8155L30.9999 39.8571Z" fill="#0254A8"/>
<path d="M25.5341 4.14625H36.466L31 0L25.5341 4.14625Z" fill="#0254A8"/>
</svg>
