<svg width="26" height="20" viewBox="0 0 26 20" fill="none" xmlns="http://www.w3.org/2000/svg">
<path d="M26 2.45743C26 1.10242 24.9266 0 23.6073 0H2.39267C1.07362 5.2156e-05 0.000457033 1.10195 0 2.45785V2.45827V17.5417C0 18.9137 1.08429 20 2.39348 20H23.6065C24.9422 20 26 18.8864 26 17.5417V2.45827C26 2.45816 26 2.45806 26 2.45796C26 2.4578 26 2.45764 26 2.45743V2.45743ZM2.39267 1.56473H23.6073C24.0866 1.56473 24.4766 1.96524 24.4766 2.45874C24.4766 2.72098 24.3497 2.96439 24.1369 3.11001L13.4827 10.4054C13.1895 10.6061 12.8106 10.6062 12.5174 10.4054C12.5174 10.4054 1.86292 3.10985 1.86312 3.11001C1.86317 3.11006 1.86297 3.10991 1.86292 3.10985C1.65035 2.96439 1.52344 2.72098 1.52344 2.45743C1.52344 1.96519 1.91339 1.56473 2.39267 1.56473V1.56473ZM23.6065 18.4353H2.39348C1.91923 18.4353 1.52344 18.0415 1.52344 17.5417V4.75798L11.6723 11.7072C12.0756 11.9834 12.5378 12.1214 13 12.1214C13.4623 12.1214 13.9245 11.9834 14.3278 11.7072L24.4766 4.75798V17.5418C24.4766 18.0288 24.0931 18.4353 23.6065 18.4353V18.4353Z" fill="#0254A8"/>
</svg>
