<svg width="155" height="141" viewBox="0 0 155 141" fill="none" xmlns="http://www.w3.org/2000/svg">
<path d="M36.9336 67.0789C36.9336 39.4281 59.349 17.0127 86.9998 17.0127C114.651 17.0127 137.066 39.4281 137.066 67.0789V134.311H36.9336V67.0789Z" fill="#5669FF"/>
<path fill-rule="evenodd" clip-rule="evenodd" d="M19 125.134C19 120.429 21.0048 115.786 25.1664 113.59C27.1504 112.543 29.3125 111.708 31.1626 111.708C36.1226 111.708 37.8342 103.371 37.8342 103.371H137.347C137.347 103.371 137.411 111.708 142.982 111.708C145.081 111.708 147.305 112.56 149.261 113.622C153.218 115.77 155 120.266 155 124.769C155 133.725 147.739 140.986 138.783 140.986H34.8518C26.0971 140.986 19 133.889 19 125.134Z" fill="#5669FF"/>
<rect x="70.3115" y="2.70805" width="33.3775" height="41.0066" rx="16.6887" fill="#DADADA"/>
<path fill-rule="evenodd" clip-rule="evenodd" d="M72 92.2201C72 93.0172 72.4749 93.7348 73.2232 94.0098C75.6316 94.895 81.2269 96.7081 86.6504 96.7081C92.0594 96.7081 97.4685 94.9046 99.8033 94.0169C100.537 93.7378 101 93.0283 101 92.2428V92.2428C101 90.8067 99.5077 89.8083 98.1459 90.2644C95.3982 91.1847 91.0164 92.3618 86.5773 92.3618C82.102 92.3618 77.6266 91.1655 74.8386 90.242C73.4801 89.792 72 90.789 72 92.2201V92.2201Z" fill="#CC2626"/>
<path opacity="0.2" fill-rule="evenodd" clip-rule="evenodd" d="M64 74.7444C64 74.1748 64.2223 73.6264 64.6546 73.2556C65.7193 72.3422 67.9231 70.7082 70.0622 70.7082C72.2103 70.7082 74.3583 72.3558 75.3819 73.2669C75.792 73.6319 76 74.1615 76 74.7105V74.7105C76 76.6611 73.3502 77.7707 71.4779 77.2235C71.0058 77.0855 70.5197 77.0032 70.032 77.0032C69.5172 77.0032 69.0023 77.0949 68.5025 77.247C66.6298 77.8169 64 76.7019 64 74.7444V74.7444Z" fill="#CC2626"/>
<path opacity="0.2" fill-rule="evenodd" clip-rule="evenodd" d="M98 74.7444C98 74.1748 98.2223 73.6264 98.6546 73.2556C99.7193 72.3422 101.923 70.7082 104.062 70.7082C106.21 70.7082 108.358 72.3558 109.382 73.2669C109.792 73.6319 110 74.1615 110 74.7105V74.7105C110 76.6611 107.35 77.7707 105.478 77.2235C105.006 77.0855 104.52 77.0032 104.032 77.0032C103.517 77.0032 103.002 77.0949 102.503 77.247C100.63 77.8169 98 76.7019 98 74.7444V74.7444Z" fill="#CC2626"/>
<path opacity="0.1" d="M18.5532 40.1525C16.6123 29.3835 25.201 16.6478 35.2571 14" stroke="#CC2626" stroke-width="3" stroke-linecap="round" stroke-linejoin="round"/>
<path opacity="0.1" d="M2.63445 35.8539C0.122022 21.9136 11.2399 5.42748 24.2573 2" stroke="#CC2626" stroke-width="3" stroke-linecap="round" stroke-linejoin="round"/>
</svg>
