<svg width="156" height="190" viewBox="0 0 156 190" fill="none" xmlns="http://www.w3.org/2000/svg">
<g filter="url(#filter0_d_210_1117)">
<path fill-rule="evenodd" clip-rule="evenodd" d="M61.3113 22.3968C61.3113 13.1799 68.7831 5.70805 78 5.70805C87.2169 5.70805 94.6887 13.1799 94.6887 22.3968V22.8616C114.134 29.7346 128.066 48.2798 128.066 70.0789V106.371H128.347C128.347 106.371 128.411 114.708 133.982 114.708C136.081 114.708 138.305 115.56 140.261 116.622C144.218 118.77 146 123.266 146 127.769C146 136.725 138.739 143.986 129.783 143.986H25.8518C17.0971 143.986 10 136.889 10 128.134C10 123.429 12.0048 118.786 16.1664 116.59C18.1504 115.543 20.3125 114.708 22.1626 114.708C25.1586 114.708 26.9695 111.666 27.9338 109.257V70.0789C27.9338 48.2797 41.8657 29.7346 61.3113 22.8615V22.3968ZM77.5 174.208C88.8218 174.208 98 169.619 98 163.958C98 158.297 88.8218 153.708 77.5 153.708C66.1782 153.708 57 158.297 57 163.958C57 169.619 66.1782 174.208 77.5 174.208Z" fill="#FFEEEE"/>
</g>
<defs>
<filter id="filter0_d_210_1117" x="0" y="0.708054" width="156" height="188.5" filterUnits="userSpaceOnUse" color-interpolation-filters="sRGB">
<feFlood flood-opacity="0" result="BackgroundImageFix"/>
<feColorMatrix in="SourceAlpha" type="matrix" values="0 0 0 0 0 0 0 0 0 0 0 0 0 0 0 0 0 0 127 0" result="hardAlpha"/>
<feOffset dy="5"/>
<feGaussianBlur stdDeviation="5"/>
<feColorMatrix type="matrix" values="0 0 0 0 0.8 0 0 0 0 0.14902 0 0 0 0 0.14902 0 0 0 0.1 0"/>
<feBlend mode="normal" in2="BackgroundImageFix" result="effect1_dropShadow_210_1117"/>
<feBlend mode="normal" in="SourceGraphic" in2="effect1_dropShadow_210_1117" result="shape"/>
</filter>
</defs>
</svg>
