<svg width="165" height="190" viewBox="0 0 165 190" fill="none" xmlns="http://www.w3.org/2000/svg">
<g filter="url(#filter0_d_836_149)">
<path fill-rule="evenodd" clip-rule="evenodd" d="M70.3113 22.3968C70.3113 13.1799 77.7831 5.70805 87 5.70805C96.2169 5.70805 103.689 13.1799 103.689 22.3968V22.8616C123.134 29.7346 137.066 48.2798 137.066 70.0789V106.371H137.347C137.347 106.371 137.411 114.708 142.982 114.708C145.081 114.708 147.305 115.56 149.261 116.622C153.218 118.77 155 123.266 155 127.769C155 136.725 147.739 143.986 138.783 143.986H34.8518C26.0971 143.986 19 136.889 19 128.134C19 123.429 21.0048 118.786 25.1664 116.59C27.1504 115.543 29.3125 114.708 31.1626 114.708C34.1586 114.708 35.9695 111.666 36.9338 109.257V70.0789C36.9338 48.2797 50.8657 29.7346 70.3113 22.8615V22.3968ZM86.5 174.208C97.8218 174.208 107 169.619 107 163.958C107 158.297 97.8218 153.708 86.5 153.708C75.1782 153.708 66 158.297 66 163.958C66 169.619 75.1782 174.208 86.5 174.208Z" fill="#FFEEEE"/>
</g>
<path fill-rule="evenodd" clip-rule="evenodd" d="M72 95.2201C72 96.0172 72.4749 96.7348 73.2232 97.0098C75.6316 97.895 81.2269 99.7081 86.6504 99.7081C92.0594 99.7081 97.4685 97.9046 99.8033 97.0169C100.537 96.7378 101 96.0283 101 95.2428V95.2428C101 93.8067 99.5077 92.8083 98.1459 93.2644C95.3982 94.1847 91.0164 95.3618 86.5773 95.3618C82.102 95.3618 77.6266 94.1655 74.8386 93.242C73.4801 92.792 72 93.789 72 95.2201V95.2201Z" fill="#CC2626"/>
<path opacity="0.2" fill-rule="evenodd" clip-rule="evenodd" d="M64 77.7444C64 77.1748 64.2223 76.6264 64.6546 76.2556C65.7193 75.3422 67.9231 73.7082 70.0622 73.7082C72.2103 73.7082 74.3583 75.3558 75.3819 76.2669C75.792 76.6319 76 77.1615 76 77.7105V77.7105C76 79.6611 73.3502 80.7707 71.4779 80.2235C71.0058 80.0855 70.5197 80.0032 70.032 80.0032C69.5172 80.0032 69.0023 80.0949 68.5025 80.247C66.6298 80.8169 64 79.7019 64 77.7444V77.7444Z" fill="#CC2626"/>
<path opacity="0.2" fill-rule="evenodd" clip-rule="evenodd" d="M98 77.7444C98 77.1748 98.2223 76.6264 98.6546 76.2556C99.7193 75.3422 101.923 73.7082 104.062 73.7082C106.21 73.7082 108.358 75.3558 109.382 76.2669C109.792 76.6319 110 77.1615 110 77.7105V77.7105C110 79.6611 107.35 80.7707 105.478 80.2235C105.006 80.0855 104.52 80.0032 104.032 80.0032C103.517 80.0032 103.002 80.0949 102.503 80.247C100.63 80.8169 98 79.7019 98 77.7444V77.7444Z" fill="#CC2626"/>
<path opacity="0.1" d="M18.5532 43.1525C16.6123 32.3835 25.201 19.6478 35.2571 17" stroke="#CC2626" stroke-width="3" stroke-linecap="round" stroke-linejoin="round"/>
<path opacity="0.1" d="M2.63445 38.8539C0.122022 24.9136 11.2399 8.42748 24.2573 5" stroke="#CC2626" stroke-width="3" stroke-linecap="round" stroke-linejoin="round"/>
<defs>
<filter id="filter0_d_836_149" x="9" y="0.708054" width="156" height="188.5" filterUnits="userSpaceOnUse" color-interpolation-filters="sRGB">
<feFlood flood-opacity="0" result="BackgroundImageFix"/>
<feColorMatrix in="SourceAlpha" type="matrix" values="0 0 0 0 0 0 0 0 0 0 0 0 0 0 0 0 0 0 127 0" result="hardAlpha"/>
<feOffset dy="5"/>
<feGaussianBlur stdDeviation="5"/>
<feColorMatrix type="matrix" values="0 0 0 0 0.8 0 0 0 0 0.14902 0 0 0 0 0.14902 0 0 0 0.1 0"/>
<feBlend mode="normal" in2="BackgroundImageFix" result="effect1_dropShadow_836_149"/>
<feBlend mode="normal" in="SourceGraphic" in2="effect1_dropShadow_836_149" result="shape"/>
</filter>
</defs>
</svg>
