<svg width="20" height="23" viewBox="0 0 20 23" fill="none" xmlns="http://www.w3.org/2000/svg">
<path fill-rule="evenodd" clip-rule="evenodd" d="M6.60764 3.42392H13.4328V1.83479H6.60764V3.42392ZM5.05517 1.90005V1.90796C4.52238 1.95642 3.99532 2.06223 3.48255 2.22144V2.21551C3.4673 2.22192 3.45295 2.22685 3.43918 2.23159C3.42109 2.2378 3.40401 2.24367 3.38723 2.25209C3.34625 2.26198 3.30622 2.27682 3.2681 2.29561C3.15563 2.33219 3.04316 2.3757 2.93737 2.4202C2.90925 2.43108 2.88114 2.44369 2.85302 2.4563C2.8249 2.46891 2.79678 2.48151 2.76867 2.49239C2.73007 2.51069 2.6898 2.53071 2.64953 2.55074C2.60927 2.57076 2.56899 2.59079 2.53039 2.60908L2.33977 2.71885C2.30453 2.73682 2.2719 2.7579 2.23861 2.77941C2.21879 2.79222 2.19873 2.80519 2.17774 2.81773C1.89086 3.00265 1.62494 3.21922 1.38476 3.46545L1.37046 3.48028C1.33892 3.51706 1.30751 3.55274 1.27652 3.58793C1.22418 3.64738 1.17305 3.70545 1.12456 3.76508L1.11026 3.77893C0.330623 4.85483 -0.0601507 6.18092 0.0075198 7.5248V7.95101H1.54679V7.52085C1.54679 5.64791 2.14343 4.48202 3.47111 3.88474C3.97816 3.67015 4.51381 3.53764 5.05898 3.48918H5.07328V1.90698L5.05517 1.90005ZM18.8863 3.75915L18.893 3.77299C19.6717 4.84988 20.0606 6.17696 19.9919 7.52085V7.95101H18.4536V7.50997C18.486 6.71689 18.3269 5.92776 17.9895 5.21478C17.6654 4.60464 17.1469 4.13097 16.5207 3.87386C16.0223 3.65927 15.4942 3.52577 14.9557 3.47831V1.90401C15.4885 1.95345 16.0156 2.05828 16.5293 2.21749V2.20957C16.5582 2.22267 16.5802 2.23046 16.618 2.24382L16.6246 2.24616C16.6422 2.25237 16.6585 2.25857 16.6747 2.2647C16.6972 2.27323 16.7194 2.28162 16.7438 2.28967C16.8491 2.32425 16.9477 2.365 17.0491 2.40692L17.0669 2.41427C17.1137 2.43071 17.1577 2.45109 17.1974 2.46945C17.2103 2.4754 17.2227 2.48114 17.2346 2.48646C17.3185 2.52305 17.4043 2.56656 17.4729 2.60315C17.5187 2.6269 17.5632 2.65231 17.605 2.67614C17.6276 2.68903 17.6494 2.70146 17.6702 2.71291C17.7043 2.73177 17.734 2.75195 17.7626 2.77135C17.7834 2.78552 17.8037 2.79928 17.8246 2.8118C18.1124 2.99771 18.3812 3.21527 18.6242 3.45952L18.6328 3.47435C18.7224 3.56434 18.8072 3.65927 18.8863 3.75915Z" fill="white"/>
<path d="M15.0002 4.29829C15.0002 4.7395 14.6422 5.09685 14.2002 5.09685C13.7582 5.09685 13.4002 4.7395 13.4002 4.29829V0.804572C13.3962 0.363365 13.7522 0.00301346 14.1942 1.88409e-05C14.6362 -0.00297577 14.9972 0.351387 15.0002 0.792594V4.29829Z" fill="white"/>
<path d="M6.6 0.809277V4.30232C6.6 4.74544 6.24157 5.10473 5.7995 5.10473C5.35744 5.10473 5 4.74544 5 4.30232V0.809277C5 0.366159 5.35744 0.00787185 5.7995 0.00787185C6.24157 0.00787185 6.6 0.366159 6.6 0.809277Z" fill="white"/>
<path fill-rule="evenodd" clip-rule="evenodd" d="M0 16.5668V7.951H20V16.5668C20 20.324 17.9018 22.2222 13.7434 22.2222H6.24702C2.09824 22.2222 0 20.324 0 16.5668ZM4.51085 12.7408C4.51085 13.2621 4.92096 13.6851 5.42644 13.6851C5.94146 13.6851 6.35157 13.2523 6.34204 12.731C6.34204 12.2097 5.93193 11.7868 5.43598 11.7868H5.42644C4.92096 11.7868 4.51085 12.2196 4.51085 12.7408ZM9.07943 12.7408C9.07943 13.2621 9.49907 13.6851 10.0046 13.6851C10.51 13.6851 10.9202 13.2621 10.9202 12.731C10.9202 12.2196 10.51 11.7966 10.0046 11.7868H9.99502C9.48954 11.7966 9.07943 12.2196 9.07943 12.7408ZM14.5731 13.6851C14.0677 13.6851 13.6576 13.2621 13.6576 12.7409C13.6576 12.2196 14.0581 11.7967 14.5731 11.7967C15.0786 11.7967 15.4887 12.2196 15.4887 12.7409C15.4887 13.2621 15.0786 13.6851 14.5731 13.6851ZM14.5731 17.7176C14.0676 17.7176 13.6575 17.2946 13.648 16.7734C13.648 16.2521 14.0581 15.8292 14.5636 15.8292H14.5731C15.0786 15.8292 15.4887 16.2521 15.4887 16.7734C15.4887 17.2946 15.0786 17.7176 14.5731 17.7176ZM10.0046 17.7176C9.49907 17.7176 9.07943 17.2947 9.07943 16.7734C9.07943 16.2521 9.48954 15.8292 9.99502 15.8193H10.0046C10.51 15.8292 10.9106 16.2521 10.9202 16.7635C10.9202 17.2947 10.51 17.7176 10.0046 17.7176ZM5.42661 17.7176C4.92112 17.7176 4.51101 17.2947 4.51101 16.7734C4.50148 16.2521 4.91159 15.8193 5.42661 15.8193C5.93209 15.8193 6.3422 16.2423 6.3422 16.7635C6.3422 17.2848 5.93209 17.7176 5.42661 17.7176Z" fill="white"/>
</svg>
