<svg width="22" height="15" viewBox="0 0 22 15" fill="none" xmlns="http://www.w3.org/2000/svg">
<path d="M12.5224 11.4972L12.5224 11.4972L11.013 13.4094L9.40906 11.4857L9.40904 11.4857C9.30406 11.3598 9.14858 11.287 8.98462 11.287H2.12478C1.98563 11.287 1.87218 11.1735 1.87218 11.0344V1.52029C1.87218 1.38114 1.98563 1.26769 2.12478 1.26769H6.96874H7.34404H20.0053C20.1445 1.26769 20.2579 1.38114 20.2579 1.52029V11.0344C20.2579 11.1735 20.1445 11.287 20.0053 11.287H12.9561C12.787 11.287 12.6272 11.3644 12.5224 11.4972ZM2.12478 12.3921H8.72593L10.7156 14.5442C10.8777 14.7386 11.1839 14.7346 11.3408 14.5358L11.4586 14.6287L11.4586 14.6287L13.224 12.3921H20.0053C20.7541 12.3921 21.3631 11.7832 21.3631 11.0344V1.52029C21.3631 0.771471 20.7541 0.1625 20.0053 0.1625H7.34404H6.96874H2.12478C1.37596 0.1625 0.766992 0.771471 0.766992 1.52029V11.0344C0.766992 11.7832 1.37596 12.3921 2.12478 12.3921Z" fill="white" stroke="white" stroke-width="0.3"/>
<path d="M6.72467 5.93583L6.22424 5.80768L6.22422 5.80767L6.26144 5.66236C6.03222 5.60369 5.85959 5.28669 5.72481 5.03918C5.7177 5.02612 5.71069 5.01326 5.70379 5.00063L6.72467 5.93583ZM6.72467 5.93583L6.39509 6.3337L6.39508 6.33371C6.30529 6.44212 6.26025 6.58075 6.26919 6.72124M6.72467 5.93583L6.2692 6.72127M4.51129 5.93584L4.84085 6.3337L4.84085 6.33371C4.93065 6.44213 4.97569 6.58077 4.96674 6.72127M4.51129 5.93584L4.81704 6.71173M4.51129 5.93584L5.01177 5.80768C5.01178 5.80767 5.01178 5.80767 5.01179 5.80767C5.22229 5.75379 5.37291 5.56189 5.47797 5.39805C5.5296 5.31752 5.57645 5.23334 5.61813 5.15685L4.51129 5.93584ZM4.96674 6.72127L4.81704 6.71173M4.96674 6.72127L4.96674 6.72123L4.81704 6.71173M4.96674 6.72127L4.93399 7.23688M4.81704 6.71173L4.77981 7.29804L4.93399 7.23688M4.93399 7.23688L5.41422 7.04639L5.41426 7.04638C5.54514 6.9945 5.69084 6.9945 5.82172 7.04638L5.82175 7.04639L6.30197 7.23687M4.93399 7.23688L4.92348 7.40242L6.30197 7.23687M6.30197 7.23687L6.31249 7.40241L6.46668 7.46357L6.45616 7.29803L6.30197 7.23687ZM6.2692 6.72127L6.41889 6.71173L6.26919 6.72124M6.2692 6.72127C6.2692 6.72126 6.26919 6.72125 6.26919 6.72124M6.2692 6.72127L6.26919 6.72124M3.10402 5.96937C2.98324 5.82359 2.9455 5.62615 3.00401 5.44611L3.10402 5.96937ZM3.10402 5.96937C3.10403 5.96937 3.10404 5.96938 3.10404 5.96939M3.10402 5.96937L3.10404 5.96939M3.10404 5.96939L3.84997 6.86993L3.77584 8.037C3.77584 8.03701 3.77584 8.03702 3.77584 8.03702C3.7672 8.17266 3.78349 8.29286 3.8356 8.39047C3.89041 8.49317 3.97708 8.55619 4.0772 8.5863C4.17225 8.61489 4.27566 8.61306 4.37388 8.59866C4.47339 8.58406 4.57803 8.55492 4.68074 8.51974C4.85743 8.45923 5.04281 8.3756 5.20247 8.30357C5.22732 8.29236 5.25155 8.28143 5.27503 8.27091C5.36418 8.23096 5.44155 8.19733 5.50526 8.17388C5.53697 8.16221 5.56288 8.15398 5.5834 8.14886C5.59353 8.14633 5.60137 8.14481 5.60717 8.14397C5.61313 8.14311 5.61551 8.14317 5.61506 8.14316L5.61805 7.99319M3.10404 5.96939L3.21954 5.87368L4.00344 6.82006L3.92553 8.04653C3.88171 8.73464 4.60917 8.40658 5.13994 8.16721C5.35028 8.07236 5.52972 7.99143 5.61805 7.99319M5.61805 7.99319C5.70475 7.99492 5.87729 8.07224 6.08036 8.16323C6.61252 8.40168 7.35436 8.73409 7.31056 8.04653M5.61805 7.99319L5.61505 8.14316C5.62584 8.14338 5.66093 8.1505 5.73066 8.17668C5.79511 8.20087 5.87295 8.23485 5.9623 8.27473C5.98081 8.28299 5.99977 8.29149 6.01912 8.30017C6.18271 8.37349 6.37433 8.45938 6.55701 8.52065C6.6597 8.55509 6.76423 8.58342 6.86363 8.59731C6.96177 8.61103 7.06486 8.61216 7.1595 8.58332C7.25904 8.55298 7.34542 8.49027 7.40024 8.3882C7.45242 8.29101 7.46883 8.17156 7.46026 8.03702L7.31056 8.04653M7.31056 8.04653L7.46026 8.037L7.38609 6.86993M7.31056 8.04653L7.23262 6.82006M7.23262 6.82006L7.34814 6.91575L7.38609 6.86993M7.23262 6.82006L7.38232 6.81055L7.38609 6.86993M7.23262 6.82006L8.01655 5.87368M7.38609 6.86993L8.13206 5.96938M8.13206 5.96938L8.01655 5.87368M8.13206 5.96938C8.38504 5.66406 8.23044 5.18055 7.84354 5.08155M8.13206 5.96938L8.13207 5.96937L8.01655 5.87368M8.01655 5.87368C8.19966 5.6527 8.08612 5.29845 7.80636 5.22687M7.84354 5.08155L7.84357 5.08156L7.80636 5.22687M7.84354 5.08155L6.71077 4.79147M7.84354 5.08155L6.71077 4.79147M7.80636 5.22687L6.61592 4.92203L7.80636 5.22687ZM6.71077 4.79147L6.08479 3.80378C5.87259 3.46881 5.365 3.46644 5.15127 3.80377L4.52528 4.79147L3.39252 5.08155C3.39251 5.08155 3.3925 5.08156 3.39249 5.08156C3.20906 5.12849 3.06253 5.26605 3.00402 5.44609L6.71077 4.79147Z" fill="white" stroke="white" stroke-width="0.3"/>
<path d="M11.0253 7.9932L11.0223 8.14317C11.033 8.14339 11.0681 8.15051 11.1379 8.17669C11.2023 8.20088 11.2802 8.23486 11.3695 8.27474C11.388 8.283 11.407 8.2915 11.4263 8.30018C11.5899 8.3735 11.7815 8.45939 11.9642 8.52066C12.0669 8.5551 12.1714 8.58343 12.2708 8.59732C12.369 8.61104 12.4721 8.61217 12.5667 8.58333C12.6662 8.55299 12.7526 8.49028 12.8074 8.38821C12.8596 8.29102 12.876 8.17157 12.8675 8.03703C12.8675 8.03702 12.8675 8.03701 12.8675 8.03701L12.7933 6.86994L13.5393 5.96938L13.5393 5.96937C13.66 5.8236 13.6978 5.62616 13.6392 5.44611C13.5807 5.26611 13.4342 5.12851 13.2508 5.08153L13.2136 5.22684L13.2508 5.08153L12.118 4.79144L11.492 3.80375C11.2798 3.46878 10.7722 3.46641 10.5585 3.80374L9.93249 4.79144L8.79969 5.08153L8.79969 5.08153C8.61629 5.1285 8.46968 5.26609 8.41121 5.44614C8.35276 5.62614 8.39043 5.8236 8.51125 5.9694L9.25721 6.86994L9.18305 8.037C9.18305 8.03701 9.18305 8.03702 9.18304 8.03703C9.1744 8.17266 9.19069 8.29286 9.24279 8.39047C9.29761 8.49317 9.38428 8.55618 9.4844 8.5863C9.57944 8.61488 9.68286 8.61306 9.78108 8.59865C9.8806 8.58405 9.98523 8.55491 10.0879 8.51974C10.2647 8.45922 10.45 8.37559 10.6097 8.30356C10.6346 8.29235 10.6588 8.28143 10.6822 8.27091C10.7714 8.23097 10.8488 8.19733 10.9125 8.17389C10.9442 8.16222 10.9701 8.15399 10.9906 8.14887C11.0007 8.14634 11.0086 8.14482 11.0144 8.14398C11.0203 8.14312 11.0227 8.14318 11.0223 8.14317L11.0253 7.9932ZM11.0253 7.9932C10.9369 7.99144 10.7575 8.07236 10.5472 8.1672C10.0164 8.40656 9.28889 8.73464 9.33274 8.04654H12.7178C12.7616 8.7341 12.0197 8.40169 11.4876 8.16324C11.2845 8.07225 11.112 7.99493 11.0253 7.9932ZM9.91859 5.93584L10.2482 6.33371L10.2482 6.33372C10.338 6.44214 10.383 6.58078 10.3741 6.72128M9.91859 5.93584L10.2244 6.71174M9.91859 5.93584L10.419 5.80769C10.419 5.80768 10.419 5.80768 10.419 5.80768C10.6295 5.7538 10.7802 5.5619 10.8852 5.39806C10.9369 5.31753 10.9837 5.23335 11.0254 5.15686L9.91859 5.93584ZM10.3741 6.72128L10.2244 6.71174M10.3741 6.72128L10.3741 6.72125L10.2244 6.71174M10.3741 6.72128L10.3421 7.22385M10.2244 6.71174L10.1872 7.29631C10.2261 7.27907 10.2675 7.25954 10.3116 7.23843C10.3208 7.23408 10.33 7.22967 10.3393 7.2252C10.3402 7.22475 10.3412 7.2243 10.3421 7.22385M10.3421 7.22385C10.4023 7.19505 10.4667 7.16424 10.5317 7.1358C10.681 7.07046 10.8547 7.00745 11.0253 7.00745C11.1964 7.00745 11.3699 7.07037 11.5191 7.13573C11.584 7.16417 11.6483 7.19498 11.7084 7.22378M10.3421 7.22385L10.3312 7.3952C10.3552 7.38387 10.3796 7.3722 10.4043 7.36038C10.6064 7.26361 10.8282 7.15745 11.0253 7.15745C11.2231 7.15745 11.4438 7.2633 11.6456 7.36002C11.6705 7.37195 11.6951 7.38374 11.7193 7.39517M11.7084 7.22378C11.7092 7.22415 11.7099 7.22452 11.7107 7.22489C11.7202 7.22944 11.7296 7.23394 11.7388 7.23837C11.783 7.2595 11.8244 7.27904 11.8633 7.29631L11.8739 7.46358C11.8248 7.44408 11.7729 7.4205 11.7193 7.39517M11.7084 7.22378L11.7193 7.39517M11.7084 7.22378L11.7193 7.39517M11.8023 6.33371L11.8023 6.33372L11.111 5.00064C11.1179 5.01327 11.1249 5.02613 11.1321 5.03919C11.2668 5.2867 11.4395 5.6037 11.6687 5.66237L11.6315 5.80768L11.6315 5.80769L12.1319 5.93584L11.8023 6.33371ZM11.6764 6.72128L11.8261 6.71174L11.6764 6.72125C11.6764 6.72126 11.6764 6.72127 11.6764 6.72128Z" fill="white" stroke="white" stroke-width="0.3"/>
<path d="M17.116 7.23689L17.0833 6.72128C17.0833 6.72126 17.0833 6.72125 17.0833 6.72124C17.0743 6.58076 17.1194 6.44213 17.2092 6.33372L17.3247 6.4294L17.2092 6.33372L17.5387 5.93585L17.0383 5.80769L17.0382 5.80768L17.0754 5.66237L17.116 7.23689ZM17.116 7.23689L16.6358 7.0464L16.6358 7.04639L16.634 7.04571C16.5006 6.99474 16.3635 6.99474 16.23 7.04571L16.23 7.0457L16.2283 7.0464L15.7481 7.23688L15.7808 6.72128L15.7808 6.72125L15.6311 6.71174M17.116 7.23689L15.3253 5.93584L15.1647 5.977L15.5394 6.4294C15.6048 6.50839 15.6377 6.6094 15.6311 6.71174M15.6311 6.71174L15.5939 7.29804L15.6311 6.71174ZM18.6204 5.22684L18.6576 5.08153C18.841 5.1285 18.9875 5.26605 19.046 5.44612M18.6204 5.22684L18.8305 5.87365L18.946 5.96938C19.0668 5.82363 19.1046 5.62616 19.046 5.44612M18.6204 5.22684L18.6576 5.08153L17.5248 4.79144L16.8988 3.80375C16.6866 3.46878 16.179 3.46641 15.9653 3.80374M18.6204 5.22684L15.9653 3.80374M19.046 5.44612L18.9034 5.49247L19.046 5.4461C19.046 5.44611 19.046 5.44611 19.046 5.44612ZM15.9653 3.80374L15.3393 4.79144L14.2065 5.08153C13.8224 5.17986 13.6632 5.66183 13.918 5.96935L14.664 6.8699L14.5898 8.03697C14.5898 8.03698 14.5898 8.03698 14.5898 8.03699C14.5812 8.1726 14.5974 8.29278 14.6495 8.39038C14.7043 8.49307 14.791 8.55608 14.8911 8.5862C14.9861 8.61479 15.0895 8.61295 15.1877 8.59854C15.2872 8.58395 15.3918 8.55481 15.4945 8.51964C15.6709 8.45919 15.8561 8.37568 16.0156 8.30372C16.0407 8.29243 16.0651 8.28143 16.0887 8.27085C16.1779 8.23091 16.2552 8.19729 16.319 8.17385C16.3507 8.16219 16.3766 8.15395 16.3972 8.14884C16.4073 8.14631 16.4152 8.14479 16.421 8.14394C16.4266 8.14314 16.4291 8.14313 16.4291 8.14313C16.4398 8.14336 16.4748 8.15046 16.5444 8.17663C16.6088 8.20083 16.6866 8.23481 16.776 8.27471C16.7944 8.28293 16.8132 8.29138 16.8325 8.30001C16.9961 8.37338 17.1879 8.45937 17.3707 8.5207C17.4735 8.55515 17.578 8.58348 17.6774 8.59738C17.7756 8.6111 17.8787 8.61223 17.9734 8.58338C18.0729 8.55305 18.1593 8.49033 18.2142 8.38825C18.2664 8.29104 18.2828 8.17155 18.2742 8.03697M15.9653 3.80374L18.2742 8.03697M18.2742 8.03697L18.2742 8.037L18.1245 8.0465L18.2742 8.03697ZM15.8258 5.80768C16.0363 5.7538 16.1869 5.5619 16.292 5.39806C16.3436 5.31753 16.3905 5.23335 16.4321 5.15686L15.8258 5.80768ZM18.2001 6.8699L18.1963 6.81053L18.0466 6.82003L18.1621 6.91572L18.2001 6.8699Z" fill="white" stroke="white" stroke-width="0.3"/>
</svg>
