<svg width="24" height="24" viewBox="0 0 24 24" fill="none" xmlns="http://www.w3.org/2000/svg">
<path d="M11.8768 2.22672C6.55597 2.22672 2.22705 6.55563 2.22705 11.8764C2.22705 17.1972 6.55597 21.5261 11.8768 21.5261C17.1976 21.5261 21.5265 17.1972 21.5265 11.8764C21.5265 6.55563 17.1976 2.22672 11.8768 2.22672ZM13.3613 16.3301H10.3922C10.1953 16.3301 10.0065 16.2519 9.86732 16.1127C9.72811 15.9735 9.64991 15.7847 9.64991 15.5879C9.64991 15.391 9.72811 15.2022 9.86732 15.063C10.0065 14.9238 10.1953 14.8456 10.3922 14.8456H13.3613C13.5582 14.8456 13.747 14.9238 13.8862 15.063C14.0254 15.2022 14.1036 15.391 14.1036 15.5879C14.1036 15.7847 14.0254 15.9735 13.8862 16.1127C13.747 16.2519 13.5582 16.3301 13.3613 16.3301ZM15.5882 13.361H8.16533C7.96847 13.361 7.77967 13.2828 7.64046 13.1436C7.50125 13.0044 7.42305 12.8156 7.42305 12.6187C7.42305 12.4218 7.50125 12.233 7.64046 12.0938C7.77967 11.9546 7.96847 11.8764 8.16533 11.8764H15.5882C15.7851 11.8764 15.9739 11.9546 16.1131 12.0938C16.2523 12.233 16.3305 12.4218 16.3305 12.6187C16.3305 12.8156 16.2523 13.0044 16.1131 13.1436C15.9739 13.2828 15.7851 13.361 15.5882 13.361ZM17.0728 10.3919H6.68076C6.4839 10.3919 6.29509 10.3137 6.15589 10.1744C6.01668 10.0352 5.93848 9.84644 5.93848 9.64957C5.93848 9.4527 6.01668 9.2639 6.15589 9.12469C6.29509 8.98549 6.4839 8.90728 6.68076 8.90728H17.0728C17.2696 8.90728 17.4584 8.98549 17.5976 9.12469C17.7368 9.2639 17.815 9.4527 17.815 9.64957C17.815 9.84644 17.7368 10.0352 17.5976 10.1744C17.4584 10.3137 17.2696 10.3919 17.0728 10.3919Z" fill="white"/>
</svg>
