<svg width="29" height="23" viewBox="0 0 29 23" fill="none" xmlns="http://www.w3.org/2000/svg">
<path fill-rule="evenodd" clip-rule="evenodd" d="M11.7423 11.0041C11.7423 12.753 10.3245 14.1708 8.5756 14.1708C6.8267 14.1708 5.40894 12.753 5.40894 11.0041C5.40894 9.25523 6.8267 7.83749 8.5756 7.83749C10.3245 7.83749 11.7423 9.25523 11.7423 11.0041ZM10.3173 11.0041C10.3173 11.966 9.5375 12.7458 8.5756 12.7458C7.61371 12.7458 6.83393 11.966 6.83393 11.0041C6.83393 10.0423 7.61371 9.2625 8.5756 9.2625C9.5375 9.2625 10.3173 10.0423 10.3173 11.0041Z" fill="#0254A8"/>
<path d="M5.4875 19.2375C5.4875 17.5323 6.86982 16.1499 8.575 16.1499C10.2802 16.1499 11.6625 17.5323 11.6625 19.2375H13.0875C13.0875 16.7453 11.0672 14.7249 8.575 14.7249C6.08281 14.7249 4.0625 16.7453 4.0625 19.2375H5.4875Z" fill="#0254A8"/>
<path fill-rule="evenodd" clip-rule="evenodd" d="M24.7249 9.26251C24.7249 9.65595 24.4058 9.97501 24.0124 9.97501H16.1749C15.7815 9.97501 15.4624 9.65595 15.4624 9.26251C15.4624 8.86906 15.7815 8.55 16.1749 8.55H24.0124C24.4058 8.55 24.7249 8.86906 24.7249 9.26251Z" fill="#0254A8"/>
<path fill-rule="evenodd" clip-rule="evenodd" d="M24.7249 13.5375C24.7249 13.9309 24.4058 14.25 24.0124 14.25H16.1749C15.7815 14.25 15.4624 13.9309 15.4624 13.5375C15.4624 13.1441 15.7815 12.825 16.1749 12.825H24.0124C24.4058 12.825 24.7249 13.1441 24.7249 13.5375Z" fill="#0254A8"/>
<path fill-rule="evenodd" clip-rule="evenodd" d="M24.7249 17.8125C24.7249 18.2059 24.4058 18.525 24.0124 18.525H16.1749C15.7815 18.525 15.4624 18.2059 15.4624 17.8125C15.4624 17.4191 15.7815 17.1 16.1749 17.1H24.0124C24.4058 17.1 24.7249 17.4191 24.7249 17.8125Z" fill="#0254A8"/>
<path fill-rule="evenodd" clip-rule="evenodd" d="M10.475 0C9.29449 0 8.3375 0.956987 8.3375 2.1375H4.0625C2.09499 2.1375 0.5 3.73249 0.5 5.7V19.2375C0.5 21.205 2.09499 22.8 4.0625 22.8H25.4375C27.405 22.8 29 21.205 29 19.2375V5.7C29 3.73249 27.405 2.1375 25.4375 2.1375H21.1625C21.1625 0.956987 20.2055 0 19.025 0H10.475ZM21.1625 3.5625C21.1625 4.74301 20.2055 5.7 19.025 5.7H10.475C9.29449 5.7 8.3375 4.74301 8.3375 3.5625H4.0625C2.88199 3.5625 1.925 4.51948 1.925 5.7V19.2375C1.925 20.418 2.88199 21.375 4.0625 21.375H25.4375C26.618 21.375 27.575 20.418 27.575 19.2375V5.7C27.575 4.51948 26.618 3.5625 25.4375 3.5625H21.1625ZM9.7625 2.1375C9.7625 1.744 10.0815 1.425 10.475 1.425H19.025C19.4184 1.425 19.7375 1.744 19.7375 2.1375V3.5625C19.7375 3.956 19.4184 4.275 19.025 4.275H10.475C10.0815 4.275 9.7625 3.956 9.7625 3.5625V2.1375Z" fill="#0254A8"/>
</svg>
