<svg width="28" height="28" viewBox="0 0 28 28" fill="none" xmlns="http://www.w3.org/2000/svg">
<path d="M6.5625 19.6046V23.0234H4.10156C3.64815 23.0234 3.28125 23.3903 3.28125 23.8438C3.28125 24.2972 3.64815 24.6641 4.10156 24.6641H6.5625V27.1797C6.5625 27.6331 6.9294 28 7.38281 28C7.83623 28 8.20312 27.6331 8.20312 27.1797V24.6641H10.6641C11.1175 24.6641 11.4844 24.2972 11.4844 23.8438C11.4844 23.3903 11.1175 23.0234 10.6641 23.0234H8.20312V19.6079C8.7611 19.5363 9.30601 19.423 9.82264 19.2406C9.35178 18.8486 8.92462 18.4075 8.54169 17.929C8.1672 18.0061 7.77973 18.0469 7.38281 18.0469C4.2169 18.0469 1.64062 15.4706 1.64062 12.3047C1.64062 9.13877 4.2169 6.5625 7.38281 6.5625C10.6547 6.5625 13.125 9.35326 13.125 12.3047C13.125 13.2549 12.8708 14.1385 12.4603 14.9288C12.8189 15.3552 13.2573 15.7052 13.7596 15.9576C14.382 14.8759 14.7656 13.6398 14.7656 12.3047C14.7656 8.49975 11.6364 4.92188 7.38281 4.92188C3.31171 4.92188 0 8.23359 0 12.3047C0 16.0949 2.88121 19.1904 6.5625 19.6046Z" fill="#0254A8"/>
<path d="M27.1797 0H22.2578C21.8044 0 21.4375 0.366898 21.4375 0.820312C21.4375 1.27373 21.8044 1.64062 22.2578 1.64062H25.1994L20.1685 6.56212C18.9054 5.55171 17.3257 4.92188 15.5859 4.92188C14.7267 4.92188 13.9138 5.0977 13.1461 5.36878C13.617 5.76073 14.0441 6.20184 14.4271 6.68035C14.8016 6.60324 15.189 6.5625 15.5859 6.5625C18.7519 6.5625 21.3281 9.13877 21.3281 12.3047C21.3281 15.4706 18.7519 18.0469 15.5859 18.0469C12.3362 18.0469 9.84375 15.2867 9.84375 12.3047C9.84375 11.3545 10.098 10.4709 10.5085 9.68062C10.1499 9.25416 9.71141 8.90416 9.2091 8.65173C8.58676 9.7335 8.20312 10.9696 8.20312 12.3047C8.20312 16.1467 11.4164 19.6875 15.5859 19.6875C19.657 19.6875 22.9688 16.3758 22.9688 12.3047C22.9688 10.5649 22.3389 8.98521 21.3285 7.72209L26.3594 2.8006V5.74219C26.3594 6.1956 26.7263 6.5625 27.1797 6.5625C27.6331 6.5625 28 6.1956 28 5.74219V0.820312C28 0.371492 27.6321 0 27.1797 0V0Z" fill="#0254A8"/>
</svg>
