<svg width="20" height="21" viewBox="0 0 20 21" fill="none" xmlns="http://www.w3.org/2000/svg">
<path d="M0.537241 9.13399C0.537699 9.13351 0.538157 9.13303 0.538614 9.13255L8.69786 0.566528C9.04565 0.201233 9.50803 0 9.99988 0C10.4917 0 10.9541 0.201073 11.302 0.566368L19.457 9.12806C19.4598 9.13094 19.4625 9.13399 19.4653 9.13687C20.1794 9.89101 20.1782 11.1146 19.4617 11.8668C19.1344 12.2106 18.7021 12.4098 18.2399 12.4306C18.2211 12.4325 18.2022 12.4335 18.1831 12.4335H17.8579V18.7376C17.8579 19.985 16.8911 21 15.7027 21H12.5105C12.187 21 11.9245 20.7246 11.9245 20.3848V15.4424C11.9245 14.8731 11.4835 14.4101 10.9413 14.4101H9.05847C8.51626 14.4101 8.07524 14.8731 8.07524 15.4424V20.3848C8.07524 20.7246 7.81292 21 7.48924 21H4.29708C3.10861 21 2.14187 19.985 2.14187 18.7376V12.4335H1.84032C1.34863 12.4335 0.886246 12.2324 0.538157 11.8671C-0.179079 11.1136 -0.179384 9.88797 0.537241 9.13399Z" fill="#C1C1C1"/>
</svg>
