<svg width="270" height="87" viewBox="0 0 270 87" fill="none" xmlns="http://www.w3.org/2000/svg">
<path d="M0.651978 22.553V0.58313H7.71911V22.3492C7.71911 23.595 7.71911 24.4973 7.71911 25.062C7.71911 25.6267 7.76568 26.3078 7.81225 27.1169C7.82395 27.6935 7.91604 28.2656 8.08586 28.8168C8.23525 29.182 8.41438 29.5345 8.62143 29.8704C8.81455 30.2168 9.13015 30.4784 9.50627 30.6039C10.3719 30.8367 11.2836 30.8367 12.1492 30.6039C12.5224 30.479 12.8358 30.2196 13.0282 29.8762C13.2361 29.5468 13.4152 29.2001 13.5638 28.84C13.7318 28.2945 13.8239 27.7284 13.8374 27.1577C13.8898 26.3601 13.9189 25.6907 13.9305 25.1377C13.9422 24.5846 13.9305 23.6998 13.9305 22.4657V0.58313H20.9976V22.553C20.9976 23.6649 20.9686 24.6778 20.9045 25.5859C20.8306 26.5291 20.7063 27.4677 20.5319 28.3976C20.3792 29.2795 20.1313 30.1422 19.7926 30.9707C19.4747 31.734 19.0578 32.4523 18.5527 33.1071C18.0485 33.7744 17.4271 34.3445 16.719 34.7895C15.9254 35.2669 15.0636 35.6202 14.1634 35.8373C11.9523 36.3575 9.65075 36.3575 7.43969 35.8373C6.54239 35.6225 5.68409 35.2689 4.89576 34.7895C4.1923 34.3427 3.57508 33.7728 3.07367 33.1071C2.56889 32.4511 2.15021 31.7331 1.82789 30.9707C1.49242 30.1406 1.24274 29.2785 1.08275 28.3976C0.89813 27.4692 0.771757 26.5301 0.704368 25.5859C0.681082 24.6778 0.651978 23.6649 0.651978 22.553Z" fill="#CC2626"/>
<path d="M29.0253 35.5463V0.565674H34.1132L41.7857 18.8564V0.565674H47.6536V35.5463H42.7637L35.1086 16.1437V35.5463H29.0253Z" fill="#CC2626"/>
<path d="M55.7861 35.5463V0.58313H62.8533V35.5463H55.7861Z" fill="#CC2626"/>
<path d="M70.9915 35.5463V0.58313H78.2741C80.2147 0.53952 82.1525 0.752879 84.0372 1.21766C85.3979 1.54998 86.6321 2.27227 87.5882 3.29589C88.4613 4.28488 89.0753 5.47499 89.3754 6.7596C89.7414 8.45163 89.9074 10.1808 89.8702 11.9115V23.368C89.8702 24.6137 89.8353 25.6965 89.7538 26.6221C89.6852 27.5359 89.5451 28.443 89.3347 29.3349C89.1586 30.1255 88.8642 30.885 88.4614 31.5877C88.0744 32.2368 87.5938 32.8252 87.0352 33.3341C86.4193 33.8837 85.704 34.3105 84.9279 34.5916C83.9859 34.9344 83.0102 35.1763 82.0172 35.3134C80.7523 35.4918 79.4758 35.5755 78.1984 35.5637L70.9915 35.5463ZM78.3323 30.5923C79.0075 30.5923 79.5373 30.5923 79.9273 30.5923C80.3187 30.575 80.708 30.5263 81.0916 30.4467C81.3969 30.4041 81.689 30.2948 81.9473 30.1266C82.1508 29.9673 82.3209 29.7695 82.448 29.5444C82.6116 29.2601 82.7146 28.9449 82.7507 28.6188C82.8022 28.1764 82.8255 27.7311 82.8205 27.2857V8.43033C82.8205 7.26606 82.4771 6.50346 81.7902 6.14254C81.1032 5.78161 79.9506 5.58757 78.3323 5.5604V30.5923Z" fill="#CC2626"/>
<path d="M95.0513 35.5463L102.619 0.58313H108.871L116.439 35.5463H109.453L107.963 28.0716H103.422L102.066 35.5463H95.0513ZM103.888 23.7172H107.503L105.757 10.7414L103.888 23.7172Z" fill="#CC2626"/>
<path d="M122.627 35.5463V0.583123H129.933C131.872 0.539412 133.808 0.752776 135.69 1.21765C137.053 1.5502 138.288 2.27236 139.247 3.29588C140.12 4.28488 140.734 5.47498 141.034 6.75959C141.397 8.45211 141.563 10.1809 141.529 11.9115V23.368C141.529 24.6137 141.488 25.6965 141.413 26.6221C141.333 27.5376 141.187 28.4462 140.976 29.3407C140.801 30.1324 140.504 30.8923 140.097 31.5936C139.71 32.2426 139.229 32.8311 138.671 33.34C138.055 33.8895 137.34 34.3163 136.563 34.5974C135.622 34.9409 134.646 35.1829 133.653 35.3192C132.388 35.4978 131.111 35.5815 129.834 35.5695L122.627 35.5463ZM129.968 30.5923C130.643 30.5923 131.173 30.5923 131.563 30.5923C131.954 30.5754 132.344 30.5267 132.727 30.4467C133.012 30.4223 133.287 30.3262 133.525 30.1675C133.763 30.0087 133.957 29.7924 134.089 29.5386C134.253 29.2542 134.356 28.9391 134.392 28.613C134.438 28.1702 134.46 27.7251 134.456 27.2799V8.43032C134.456 7.26605 134.113 6.50346 133.426 6.14253C132.739 5.78161 131.586 5.58756 129.968 5.56039V30.5923Z" fill="#CC2626"/>
<path d="M177.68 43.5099L171.294 48.7724H167.347L170.77 43.5099H177.68Z" fill="#0254A8"/>
<path d="M0.809082 86.3086V51.3455H8.10908C10.0478 51.3014 11.9838 51.5148 13.8664 51.98C15.2294 52.311 16.4658 53.0334 17.4233 54.0582C18.3006 55.0555 18.9149 56.2561 19.2104 57.5511C19.5764 59.2431 19.7425 60.9722 19.7053 62.703V74.1594C19.7053 75.4052 19.6645 76.488 19.5888 77.4136C19.5148 78.3298 19.3688 79.2388 19.1522 80.1321C18.9761 80.9227 18.6818 81.6823 18.279 82.385C17.8901 83.0327 17.4097 83.6209 16.8528 84.1314C16.2359 84.6797 15.5209 85.1063 14.7454 85.3888C13.8035 85.7319 12.8278 85.9739 11.8348 86.1107C10.5718 86.2893 9.29723 86.3729 8.02177 86.361L0.809082 86.3086ZM8.14984 81.3546C8.81929 81.3546 9.35485 81.3546 9.73906 81.3255C10.1304 81.3083 10.5198 81.2596 10.9033 81.18C11.2068 81.1374 11.4971 81.0281 11.7533 80.8598C11.9601 80.7024 12.1324 80.5043 12.2597 80.2777C12.4233 79.9933 12.5264 79.6782 12.5624 79.3521C12.6139 78.9096 12.6372 78.4644 12.6323 78.019V59.1927C12.6323 58.0284 12.2888 57.2658 11.6019 56.9049C10.915 56.5439 9.76235 56.3499 8.14401 56.3227L8.14984 81.3546Z" fill="#0254A8"/>
<path d="M27.3953 86.3086V51.3455H41.9487V56.2063H34.4624V65.7242H39.7831V70.6957H34.4624V81.4536H41.9778V86.3086H27.3953Z" fill="#0254A8"/>
<path d="M48.4803 86.3086V51.3455H56.9504L60.6819 74.6309L64.6986 51.3455H72.8776V86.3086H67.6733L67.5161 61.7191C67.1281 64.2456 66.4489 68.3439 65.4787 74.0139C64.5084 79.6839 63.8293 83.7821 63.4412 86.3086H58.1554L53.8651 61.562L53.7079 86.3086H48.4803Z" fill="#0254A8"/>
<path d="M80.5677 74.8114V63.0581C80.5677 54.7995 83.9732 50.6702 90.7842 50.6702C97.5952 50.6702 101.007 54.7995 101.018 63.0581V74.6368C101.025 75.9355 100.922 77.2325 100.71 78.5138C100.507 79.6792 100.151 80.8126 99.6501 81.8844C99.1845 82.8943 98.5395 83.8115 97.7466 84.5913C96.9085 85.3698 95.9171 85.9646 94.8359 86.3377C92.2149 87.1839 89.3942 87.1839 86.7733 86.3377C85.6963 85.9721 84.7057 85.3896 83.8626 84.6262C83.0713 83.8709 82.4277 82.9746 81.9648 81.9833C81.4625 80.926 81.1042 79.8061 80.8995 78.6535C80.6743 77.3853 80.5632 76.0995 80.5677 74.8114V74.8114ZM93.9568 76.4065V61.2709C93.9568 57.8247 92.9012 56.1015 90.79 56.1015C90.215 56.0821 89.6493 56.2496 89.1775 56.5789C88.73 56.9063 88.3913 57.3606 88.2053 57.8829C88.0019 58.409 87.8555 58.9555 87.7687 59.5129C87.6796 60.0907 87.6368 60.6746 87.6407 61.2593V76.3948C87.6407 79.8217 88.6904 81.537 90.79 81.5409C92.8896 81.5448 93.9433 79.8333 93.951 76.4065H93.9568Z" fill="#0254A8"/>
<path d="M108.26 74.6368V63.0581C108.26 54.7995 111.64 50.6702 118.401 50.6702C119.689 50.6542 120.972 50.8509 122.196 51.2523C123.213 51.5707 124.152 52.0974 124.954 52.7991C125.756 53.5007 126.403 54.3617 126.853 55.3273C127.352 56.3417 127.705 57.4216 127.901 58.5349C128.125 59.7914 128.232 61.0658 128.221 62.342V65.3517H121.253V62.1092C121.253 61.4746 121.253 60.9449 121.212 60.4676C121.18 59.9397 121.111 59.4146 121.009 58.8958C120.928 58.3984 120.779 57.9145 120.566 57.4579C120.367 57.0803 120.08 56.7567 119.728 56.5148C119.338 56.2478 118.873 56.1112 118.401 56.1248C116.352 56.1248 115.327 57.8479 115.327 61.2942V76.3832C115.327 79.8178 116.352 81.5331 118.401 81.5293C118.958 81.5464 119.502 81.3602 119.932 81.0053C120.372 80.611 120.684 80.094 120.828 79.5209C121.004 78.9038 121.127 78.2728 121.195 77.6348C121.264 76.9345 121.297 76.2311 121.294 75.5274V71.9356H128.204V74.8871C128.189 76.1238 128.08 77.3576 127.878 78.5778C127.682 79.7081 127.349 80.8106 126.888 81.8611C126.467 82.8604 125.863 83.7725 125.107 84.5505C124.313 85.3222 123.365 85.9174 122.324 86.297C121.07 86.764 119.739 86.991 118.401 86.9664C117.028 86.9917 115.662 86.7709 114.367 86.3144C113.284 85.943 112.293 85.348 111.456 84.568C110.669 83.7918 110.033 82.8758 109.581 81.8669C109.088 80.7942 108.74 79.6608 108.545 78.4963C108.341 77.2202 108.246 75.929 108.26 74.6368V74.6368Z" fill="#0254A8"/>
<path d="M135.486 86.3086V51.3455H143.176C144.73 51.3243 146.28 51.4924 147.793 51.8461C149.044 52.1383 150.229 52.6636 151.286 53.3946C152.293 54.118 153.079 55.1077 153.556 56.2529C154.105 57.6191 154.368 59.0831 154.33 60.5549C154.33 61.2825 154.33 61.9287 154.255 62.4992C154.188 63.158 154.067 63.8103 153.894 64.4494C153.727 65.1286 153.471 65.7826 153.131 66.3937C152.753 67.0165 152.279 67.5763 151.728 68.0528C151.087 68.6166 150.36 69.0745 149.574 69.4092C151.67 76.0688 153.496 81.6961 155.052 86.2911H147.723L143.724 70.1892H142.559V86.2911L135.486 86.3086ZM142.559 65.8989H144.579C145.099 65.9057 145.6 65.7093 145.977 65.3517C146.373 64.9733 146.664 64.4977 146.821 63.972C146.982 63.472 147.105 62.9601 147.187 62.441C147.257 62.0038 147.294 61.5622 147.298 61.1196C147.297 60.6912 147.268 60.2634 147.211 59.8388C147.141 59.343 147.036 58.8527 146.896 58.3719C146.771 57.8739 146.516 57.4179 146.157 57.0504C145.995 56.8829 145.8 56.7504 145.585 56.6613C145.37 56.5722 145.138 56.5283 144.905 56.5323H142.577L142.559 65.8989Z" fill="#0254A8"/>
<path d="M159.354 86.3086L166.922 51.3455H173.162L180.73 86.3086H173.744L172.289 78.8165H167.725L166.363 86.2911L159.354 86.3086ZM168.208 74.4796H171.823L170.077 61.5038L168.208 74.4796Z" fill="#0254A8"/>
<path d="M189.282 86.3086V56.6196H184.153V51.3338H201.378V56.6196H196.349V86.3086H189.282Z" fill="#0254A8"/>
<path d="M207.712 86.3086V51.3455H214.779V86.3086H207.712Z" fill="#0254A8"/>
<path d="M222.469 74.6368V63.0581C222.469 54.7995 225.848 50.6702 232.604 50.6702C233.895 50.6542 235.179 50.8509 236.406 51.2523C237.421 51.5729 238.36 52.1005 239.161 52.8019C239.963 53.5033 240.61 54.3631 241.063 55.3273C241.559 56.3429 241.911 57.4224 242.111 58.5349C242.334 59.7914 242.441 61.0658 242.431 62.342V65.3517H235.451V62.1092C235.451 61.4746 235.451 60.9449 235.41 60.4676C235.377 59.9397 235.309 59.4146 235.206 58.8958C235.127 58.3974 234.976 57.9131 234.758 57.4579C234.563 57.0794 234.277 56.7553 233.926 56.5148C233.534 56.2477 233.067 56.1112 232.593 56.1248C230.551 56.1248 229.529 57.8479 229.525 61.2942V76.3832C229.525 79.8178 230.547 81.5331 232.593 81.5293C233.151 81.5447 233.697 81.3587 234.13 81.0053C234.57 80.6123 234.881 80.0946 235.02 79.5209C235.198 78.904 235.323 78.273 235.393 77.6348C235.46 76.9344 235.491 76.231 235.486 75.5274V71.9356H242.437V74.8871C242.421 76.1238 242.312 77.3576 242.111 78.5778C241.912 79.7084 241.578 80.8108 241.115 81.8611C240.693 82.8589 240.091 83.7706 239.34 84.5506C238.544 85.3236 237.594 85.9189 236.551 86.297C235.297 86.7645 233.966 86.9916 232.628 86.9664C231.257 86.9913 229.892 86.7705 228.599 86.3144C227.517 85.943 226.525 85.348 225.689 84.568C224.9 83.7933 224.264 82.8769 223.814 81.8669C223.319 80.7945 222.969 79.661 222.772 78.4963C222.565 77.2203 222.464 75.9294 222.469 74.6368Z" fill="#0254A8"/>
<path d="M247.792 86.3086L255.36 51.3455H261.612L269.18 86.3086H262.194L260.727 78.8165H256.163L254.801 86.2911L247.792 86.3086ZM256.647 74.4796H260.262L258.515 61.5038L256.647 74.4796Z" fill="#0254A8"/>
</svg>
