<svg width="21" height="19" viewBox="0 0 21 19" fill="none" xmlns="http://www.w3.org/2000/svg">
<path d="M19.6539 2.69231H1.34617C0.602519 2.69231 0 2.08979 0 1.34617C0 0.602561 0.602519 0 1.34617 0H19.6539C20.3975 0 21 0.602519 21 1.34617C21 2.08983 20.3975 2.69231 19.6539 2.69231Z" fill="#0254A8"/>
<path d="M12.1154 10.7693H1.34617C0.602519 10.7693 0 10.1667 0 9.42308C0 8.67946 0.602519 8.0769 1.34617 8.0769H12.1154C12.859 8.0769 13.4616 8.67942 13.4616 9.42308C13.4616 10.1667 12.859 10.7693 12.1154 10.7693Z" fill="#0254A8"/>
<path d="M19.6538 10.7693H17.5C16.7564 10.7693 16.1538 10.1667 16.1538 9.42308C16.1538 8.67942 16.7563 8.0769 17.5 8.0769H19.6538C20.3974 8.0769 21 8.67942 21 9.42308C21 10.1667 20.3974 10.7693 19.6538 10.7693Z" fill="#4699EE"/>
<path d="M19.6539 18.8462H1.34617C0.602519 18.8462 0 18.2436 0 17.5C0 16.7564 0.602519 16.1538 1.34617 16.1538H19.6539C20.3975 16.1538 21 16.7564 21 17.5C21 18.2436 20.3975 18.8462 19.6539 18.8462Z" fill="#0254A8"/>
</svg>
