<svg width="202" height="202" viewBox="0 0 202 202" fill="none" xmlns="http://www.w3.org/2000/svg">
<circle opacity="0.5" cx="101" cy="101" r="101" fill="#EBF5FC"/>
<mask id="mask0_210_1387" style="mask-type:alpha" maskUnits="userSpaceOnUse" x="0" y="0" width="202" height="202">
<circle cx="101" cy="101" r="101" fill="#DADADA"/>
</mask>
<g mask="url(#mask0_210_1387)">
<g clip-path="url(#clip0_210_1387)">
<path d="M103.93 185.313H39.6944C33.4859 185.313 28.4531 180.28 28.4531 174.072V162.83H114.728L103.93 185.313Z" fill="#D3DCFB"/>
<path d="M174.607 95.3791V142.607V174.071H39.6944C33.4859 174.071 28.4531 169.038 28.4531 162.829V95.3791L107.151 67.2746L174.607 95.3791Z" fill="#EBF5FC"/>
<path d="M48.3061 117.863H42.334C40.8789 117.863 39.6992 116.683 39.6992 115.228V109.256C39.6992 107.801 40.8789 106.621 42.334 106.621H48.3061C49.7611 106.621 50.9408 107.801 50.9408 109.256V115.228C50.9408 116.683 49.7611 117.863 48.3061 117.863Z" fill="#3C58A0"/>
<path d="M70.7895 117.863H64.8174C63.3623 117.863 62.1826 116.683 62.1826 115.228V109.256C62.1826 107.801 63.3623 106.621 64.8174 106.621H70.7895C72.2445 106.621 73.4242 107.801 73.4242 109.256V115.228C73.4242 116.683 72.2445 117.863 70.7895 117.863Z" fill="#3C58A0"/>
<path d="M93.2729 117.863H87.3008C85.8457 117.863 84.666 116.683 84.666 115.228V109.256C84.666 107.801 85.8457 106.621 87.3008 106.621H93.2729C94.7279 106.621 95.9077 107.801 95.9077 109.256V115.228C95.9077 116.683 94.7283 117.863 93.2729 117.863Z" fill="#3C58A0"/>
<path d="M115.756 117.863H109.784C108.329 117.863 107.149 116.683 107.149 115.228V109.256C107.149 107.801 108.329 106.621 109.784 106.621H115.756C117.211 106.621 118.391 107.801 118.391 109.256V115.228C118.391 116.683 117.211 117.863 115.756 117.863Z" fill="#3C58A0"/>
<path d="M138.236 117.863H132.264C130.809 117.863 129.629 116.683 129.629 115.228V109.256C129.629 107.801 130.809 106.621 132.264 106.621H138.236C139.691 106.621 140.871 107.801 140.871 109.256V115.228C140.871 116.683 139.691 117.863 138.236 117.863Z" fill="#3C58A0"/>
<path d="M160.72 117.863H154.748C153.293 117.863 152.113 116.683 152.113 115.228V109.256C152.113 107.801 153.293 106.621 154.748 106.621H160.72C162.175 106.621 163.355 107.801 163.355 109.256V115.228C163.355 116.683 162.175 117.863 160.72 117.863Z" fill="#3C58A0"/>
<path d="M48.3061 140.346H42.334C40.8789 140.346 39.6992 139.166 39.6992 137.711V131.739C39.6992 130.284 40.8789 129.104 42.334 129.104H48.3061C49.7611 129.104 50.9409 130.284 50.9409 131.739V137.711C50.9409 139.167 49.7611 140.346 48.3061 140.346Z" fill="#3C58A0"/>
<path d="M70.7895 140.346H64.8174C63.3623 140.346 62.1826 139.166 62.1826 137.711V131.739C62.1826 130.284 63.3623 129.104 64.8174 129.104H70.7895C72.2445 129.104 73.4242 130.284 73.4242 131.739V137.711C73.4242 139.167 72.2445 140.346 70.7895 140.346Z" fill="#3C58A0"/>
<path d="M93.2729 140.346H87.3008C85.8457 140.346 84.666 139.166 84.666 137.711V131.739C84.666 130.284 85.8457 129.104 87.3008 129.104H93.2729C94.7279 129.104 95.9077 130.284 95.9077 131.739V137.711C95.9077 139.167 94.7283 140.346 93.2729 140.346Z" fill="#3C58A0"/>
<path d="M118.391 140.346V131.915C118.391 130.362 117.133 129.104 115.581 129.104H109.96C108.408 129.104 107.149 130.362 107.149 131.915V137.536C107.149 139.088 108.408 140.346 109.96 140.346H118.391Z" fill="#3C58A0"/>
<path d="M48.3061 162.83H42.334C40.8789 162.83 39.6992 161.65 39.6992 160.195V154.223C39.6992 152.768 40.8789 151.588 42.334 151.588H48.3061C49.7611 151.588 50.9409 152.768 50.9409 154.223V160.195C50.9409 161.65 49.7611 162.83 48.3061 162.83Z" fill="#3C58A0"/>
<path d="M70.7895 162.83H64.8174C63.3623 162.83 62.1826 161.65 62.1826 160.195V154.223C62.1826 152.768 63.3623 151.588 64.8174 151.588H70.7895C72.2445 151.588 73.4242 152.768 73.4242 154.223V160.195C73.4242 161.65 72.2445 162.83 70.7895 162.83Z" fill="#3C58A0"/>
<path d="M93.2729 162.83H87.3008C85.8457 162.83 84.666 161.65 84.666 160.195V154.223C84.666 152.768 85.8457 151.588 87.3008 151.588H93.2729C94.7279 151.588 95.9077 152.768 95.9077 154.223V160.195C95.9077 161.65 94.7283 162.83 93.2729 162.83Z" fill="#3C58A0"/>
<path d="M160.64 106.621H154.827C154.476 106.621 154.141 106.69 153.832 106.811C154.838 107.209 155.551 108.187 155.551 109.335V115.148C155.551 116.295 154.838 117.274 153.832 117.671C154.141 117.793 154.476 117.862 154.827 117.862H160.64C162.14 117.862 163.355 116.647 163.355 115.148V109.335C163.354 107.836 162.139 106.621 160.64 106.621Z" fill="#2A428C"/>
<path d="M138.156 106.621H132.343C131.991 106.621 131.656 106.69 131.348 106.811C132.354 107.209 133.067 108.187 133.067 109.335V115.148C133.067 116.295 132.353 117.274 131.348 117.671C131.656 117.793 131.991 117.862 132.343 117.862H138.156C139.655 117.862 140.87 116.647 140.87 115.148V109.335C140.87 107.836 139.655 106.621 138.156 106.621Z" fill="#2A428C"/>
<path d="M115.676 106.621H109.863C109.512 106.621 109.177 106.69 108.868 106.811C109.874 107.209 110.587 108.187 110.587 109.335V115.148C110.587 116.295 109.874 117.274 108.868 117.671C109.177 117.793 109.512 117.862 109.863 117.862H115.676C117.176 117.862 118.391 116.647 118.391 115.148V109.335C118.391 107.836 117.175 106.621 115.676 106.621Z" fill="#2A428C"/>
<path d="M93.1931 106.621H87.3801C87.0283 106.621 86.6934 106.69 86.3848 106.811C87.3909 107.209 88.104 108.187 88.104 109.335V115.148C88.104 116.295 87.3909 117.274 86.3848 117.671C86.6934 117.793 87.0283 117.862 87.3801 117.862H93.1931C94.6922 117.862 95.9075 116.647 95.9075 115.148V109.335C95.9072 107.836 94.6922 106.621 93.1931 106.621Z" fill="#2A428C"/>
<path d="M70.7096 106.621H64.8967C64.5449 106.621 64.21 106.69 63.9014 106.811C64.9075 107.209 65.6202 108.187 65.6202 109.335V115.148C65.6202 116.295 64.9072 117.274 63.9014 117.671C64.21 117.793 64.5449 117.862 64.8967 117.862H70.7096C72.2088 117.862 73.4241 116.647 73.4241 115.148V109.335C73.4241 107.836 72.2088 106.621 70.7096 106.621Z" fill="#2A428C"/>
<path d="M48.2262 106.621H42.4133C42.0615 106.621 41.7266 106.69 41.418 106.811C42.4241 107.209 43.1372 108.187 43.1372 109.335V115.148C43.1372 116.295 42.4241 117.274 41.418 117.671C41.7266 117.793 42.0615 117.862 42.4133 117.862H48.2262C49.7254 117.862 50.9407 116.647 50.9407 115.148V109.335C50.9404 107.836 49.7251 106.621 48.2262 106.621Z" fill="#2A428C"/>
<path d="M48.2262 129.104H42.4133C42.0615 129.104 41.7266 129.174 41.418 129.295C42.4241 129.692 43.1372 130.671 43.1372 131.819V137.632C43.1372 138.779 42.4241 139.758 41.418 140.155C41.7266 140.277 42.0615 140.346 42.4133 140.346H48.2262C49.7254 140.346 50.9407 139.131 50.9407 137.632V131.819C50.9404 130.32 49.7251 129.104 48.2262 129.104Z" fill="#2A428C"/>
<path d="M48.2262 151.588H42.4133C42.0615 151.588 41.7266 151.657 41.418 151.779C42.4241 152.176 43.1372 153.155 43.1372 154.302V160.115C43.1372 161.263 42.4241 162.242 41.418 162.639C41.7266 162.761 42.0615 162.83 42.4133 162.83H48.2262C49.7254 162.83 50.9407 161.615 50.9407 160.116V154.302C50.9404 152.803 49.7251 151.588 48.2262 151.588Z" fill="#2A428C"/>
<path d="M70.7096 129.104H64.8967C64.5449 129.104 64.21 129.174 63.9014 129.295C64.9075 129.692 65.6202 130.671 65.6202 131.819V137.632C65.6202 138.779 64.9072 139.758 63.9014 140.155C64.21 140.277 64.5449 140.346 64.8967 140.346H70.7096C72.2088 140.346 73.4241 139.131 73.4241 137.632V131.819C73.4241 130.32 72.2088 129.104 70.7096 129.104Z" fill="#2A428C"/>
<path d="M70.7096 151.588H64.8967C64.5449 151.588 64.21 151.657 63.9014 151.779C64.9075 152.176 65.6202 153.155 65.6202 154.302V160.115C65.6202 161.263 64.9072 162.242 63.9014 162.639C64.21 162.761 64.5449 162.83 64.8967 162.83H70.7096C72.2088 162.83 73.4241 161.615 73.4241 160.116V154.302C73.4241 152.803 72.2088 151.588 70.7096 151.588Z" fill="#2A428C"/>
<path d="M93.1931 129.104H87.3801C87.0283 129.104 86.6934 129.174 86.3848 129.295C87.3909 129.692 88.104 130.671 88.104 131.819V137.632C88.104 138.779 87.3909 139.758 86.3848 140.155C86.6934 140.277 87.0283 140.346 87.3801 140.346H93.1931C94.6922 140.346 95.9075 139.131 95.9075 137.632V131.819C95.9072 130.32 94.6922 129.104 93.1931 129.104Z" fill="#2A428C"/>
<path d="M118.391 140.346V131.819C118.391 130.319 117.176 129.104 115.676 129.104H109.863C109.512 129.104 109.177 129.174 108.868 129.295C109.874 129.692 110.587 130.671 110.587 131.819V137.632C110.587 138.779 109.874 139.758 108.868 140.155C109.177 140.277 109.512 140.346 109.863 140.346H118.391V140.346Z" fill="#2A428C"/>
<path d="M93.1931 151.588H87.3801C87.0283 151.588 86.6934 151.657 86.3848 151.779C87.3909 152.176 88.104 153.155 88.104 154.302V160.115C88.104 161.263 87.3909 162.242 86.3848 162.639C86.6934 162.761 87.0283 162.83 87.3801 162.83H93.1931C94.6922 162.83 95.9075 161.615 95.9075 160.116V154.302C95.9072 152.803 94.6922 151.588 93.1931 151.588Z" fill="#2A428C"/>
<path d="M166.798 92.1255V142.607V174.071H174.607V142.607V95.3791L166.798 92.1255Z" fill="#D3DCFB"/>
<path d="M174.607 95.3791V67.2746C174.607 61.066 169.573 56.0333 163.365 56.0333H39.6944C33.4859 56.0333 28.4531 61.066 28.4531 67.2746V95.3791H174.607Z" fill="#FF4155"/>
<path d="M63.8744 69.8194H56.5572C55.1516 69.8194 54.0127 68.6802 54.0127 67.2749C54.0127 65.8696 55.1519 64.7304 56.5572 64.7304H63.8744C65.28 64.7304 66.4189 65.8696 66.4189 67.2749C66.4189 68.6802 65.2797 69.8194 63.8744 69.8194Z" fill="#E80054"/>
<path d="M81.8509 69.8194H74.5338C73.1281 69.8194 71.9893 68.6802 71.9893 67.2749C71.9893 65.8696 73.1285 64.7303 74.5338 64.7303H81.8509C83.2566 64.7303 84.3955 65.8696 84.3955 67.2749C84.3955 68.6802 83.2566 69.8194 81.8509 69.8194Z" fill="#E80054"/>
<path d="M128.518 69.8194H121.201C119.795 69.8194 118.656 68.6802 118.656 67.2749C118.656 65.8696 119.795 64.7303 121.201 64.7303H128.518C129.924 64.7303 131.063 65.8696 131.063 67.2749C131.063 68.6802 129.924 69.8194 128.518 69.8194Z" fill="#E80054"/>
<path d="M146.495 69.8194H139.177C137.772 69.8194 136.633 68.6802 136.633 67.2749C136.633 65.8696 137.772 64.7303 139.177 64.7303H146.495C147.9 64.7303 149.039 65.8696 149.039 67.2749C149.039 68.6802 147.9 69.8194 146.495 69.8194Z" fill="#E80054"/>
<path d="M76.2307 65.8696C76.2307 69.7499 73.0851 72.8955 69.2047 72.8955C65.3243 72.8955 62.1787 69.7499 62.1787 65.8696V51.8173C62.1784 47.9369 65.324 44.7913 69.2044 44.7913C73.0847 44.7913 76.2303 47.9369 76.2303 51.8173V65.8696H76.2307Z" fill="#EBF5FC"/>
<path d="M140.875 65.8696C140.875 69.7499 137.729 72.8955 133.849 72.8955C129.968 72.8955 126.822 69.7499 126.822 65.8696V51.8173C126.822 47.9369 129.968 44.7913 133.848 44.7913C137.729 44.7913 140.874 47.9369 140.874 51.8173V65.8696H140.875Z" fill="#EBF5FC"/>
<path d="M133.848 44.7913C132.406 44.7913 131.066 45.2274 129.95 45.973C131.836 47.2331 133.078 49.3795 133.078 51.8176V65.8696C133.078 68.3074 131.836 70.4541 129.95 71.7142C131.066 72.4595 132.406 72.8959 133.848 72.8959C137.729 72.8959 140.874 69.7503 140.874 65.8699V51.8173C140.875 47.9369 137.729 44.7913 133.848 44.7913V44.7913Z" fill="#D3DCFB"/>
<path d="M69.2038 44.7913C67.7613 44.7913 66.4215 45.2274 65.3057 45.973C67.1912 47.2331 68.4338 49.3795 68.4338 51.8176V65.8696C68.4338 68.3074 67.1912 70.4541 65.3057 71.7142C66.4212 72.4595 67.7613 72.8959 69.2038 72.8959C73.0842 72.8959 76.2298 69.7503 76.2298 65.8699V51.8173C76.2301 47.9369 73.0845 44.7913 69.2038 44.7913V44.7913Z" fill="#D3DCFB"/>
<path d="M163.365 56.0329H155.559C161.767 56.0329 166.8 61.0657 166.8 67.2742V95.3791H174.606V67.2746C174.606 61.066 169.573 56.0329 163.365 56.0329Z" fill="#E80054"/>
<path d="M28.4531 81.5926H174.607V86.682H28.4531V81.5926Z" fill="#E80054"/>
<path d="M143.687 213.417C166.969 213.417 185.843 194.543 185.843 171.261C185.843 147.978 166.969 129.104 143.687 129.104C120.404 129.104 101.53 147.978 101.53 171.261C101.53 194.543 120.404 213.417 143.687 213.417Z" fill="#4FABF7"/>
<path d="M143.686 202.176C160.76 202.176 174.601 188.335 174.601 171.261C174.601 154.187 160.76 140.346 143.686 140.346C126.613 140.346 112.771 154.187 112.771 171.261C112.771 188.335 126.613 202.176 143.686 202.176Z" fill="#EBF5FC"/>
<path d="M143.687 168.184C142.281 168.184 141.143 167.045 141.143 165.64V151.588C141.143 150.182 142.282 149.043 143.687 149.043C145.093 149.043 146.232 150.182 146.232 151.588V165.64C146.232 167.045 145.092 168.184 143.687 168.184Z" fill="#3C58A0"/>
<path d="M157.739 173.805H149.307C147.902 173.805 146.763 172.666 146.763 171.261C146.763 169.856 147.902 168.716 149.307 168.716H157.739C159.145 168.716 160.283 169.856 160.283 171.261C160.283 172.666 159.144 173.805 157.739 173.805Z" fill="#3C58A0"/>
<path d="M143.686 129.104C142.371 129.104 141.07 129.168 139.785 129.286C161.237 131.255 178.039 149.294 178.039 171.261C178.039 193.227 161.237 211.267 139.784 213.236C141.069 213.354 142.37 213.417 143.686 213.417C166.968 213.417 185.843 194.543 185.843 171.261C185.843 147.979 166.969 129.104 143.686 129.104Z" fill="#1886EA"/>
<path d="M143.686 140.346C142.366 140.346 141.064 140.429 139.787 140.59C155.02 142.507 166.803 155.508 166.803 171.261C166.803 187.014 155.02 200.015 139.787 201.932C141.064 202.092 142.366 202.176 143.686 202.176C160.76 202.176 174.601 188.335 174.601 171.261C174.601 154.187 160.76 140.346 143.686 140.346Z" fill="#D3DCFB"/>
<path d="M143.686 176.882C146.791 176.882 149.307 174.365 149.307 171.261C149.307 168.156 146.791 165.64 143.686 165.64C140.582 165.64 138.065 168.156 138.065 171.261C138.065 174.365 140.582 176.882 143.686 176.882Z" fill="#FFDD40"/>
</g>
</g>
<defs>
<clipPath id="clip0_210_1387">
<rect width="168.626" height="168.626" fill="white" transform="translate(22.835 44.7913)"/>
</clipPath>
</defs>
</svg>
