<svg width="17" height="19" viewBox="0 0 17 19" fill="none" xmlns="http://www.w3.org/2000/svg">
<path d="M0.0928326 14.8031C0.158146 14.6841 0.254166 14.5849 0.370928 14.5157L1.20749 14.0136C1.53402 13.8173 1.80419 13.5398 1.99171 13.2082C2.17927 12.8766 2.2778 12.502 2.27776 12.121V7.59583C2.27858 6.28315 2.70445 5.00604 3.49172 3.95566C4.279 2.90525 5.38531 2.13809 6.645 1.76899C6.6995 1.75348 6.74747 1.72075 6.78181 1.67571C6.81611 1.63066 6.83492 1.57572 6.83542 1.51909C6.83542 1.1162 6.99548 0.729816 7.28037 0.444931C7.56526 0.160047 7.95166 0 8.35451 0C8.7574 0 9.14379 0.160047 9.42869 0.444931C9.71358 0.729816 9.87364 1.1162 9.87364 1.51909C9.87418 1.5757 9.89303 1.63062 9.92732 1.67565C9.96166 1.72068 10.0096 1.75342 10.0641 1.76899C11.3237 2.13809 12.4301 2.90525 13.2173 3.95566C14.0046 5.00604 14.4305 6.28315 14.4313 7.59583V12.1203C14.4312 12.5013 14.5298 12.8758 14.7173 13.2074C14.9049 13.5391 15.175 13.8165 15.5015 14.0129L16.3381 14.515C16.4826 14.6012 16.5949 14.7323 16.6581 14.8882C16.7213 15.0442 16.7318 15.2164 16.6881 15.3789C16.6444 15.5414 16.5488 15.6851 16.4159 15.7883C16.2831 15.8915 16.1201 15.9485 15.9519 15.9506H0.759486C0.62631 15.9475 0.496185 15.9102 0.381548 15.8423C0.266912 15.7744 0.171665 15.6783 0.104883 15.563C0.038063 15.4477 0.00198746 15.3173 9.53674e-05 15.1841C-0.00183487 15.0509 0.0304947 14.9194 0.0939541 14.8023L0.0928326 14.8031Z" fill="#0254A8"/>
<path d="M9.66771 17.8104C9.38092 18.0133 9.05099 18.1469 8.70384 18.2007C8.35669 18.2545 8.00177 18.2271 7.66701 18.1205C7.33226 18.014 7.02678 17.8313 6.7746 17.5867C6.52238 17.3422 6.33034 17.0425 6.21358 16.7112H10.4966C10.3402 17.1542 10.0507 17.5382 9.66771 17.8104Z" fill="#0254A8"/>
</svg>
