<svg width="23" height="23" viewBox="0 0 23 23" fill="none" xmlns="http://www.w3.org/2000/svg">
<path d="M2.75 5.49999H5.15L6.475 3.49999C6.975 2.74999 7.85 2.29999 8.75 2.29999H14.25C15.15 2.29999 16.025 2.74999 16.525 3.49999L17.85 5.49999H20.25C21.775 5.49999 23 6.72499 23 8.24999V17.95C23 19.475 21.775 20.7 20.25 20.7H2.75C1.225 20.7 0 19.475 0 17.95V8.24999C0 6.72499 1.225 5.49999 2.75 5.49999ZM11.5 18.45C14.925 18.45 17.7 15.675 17.7 12.25C17.7 8.82499 14.925 6.07499 11.5 6.07499C8.075 6.07499 5.3 8.84999 5.3 12.275C5.3 15.675 8.075 18.45 11.5 18.45ZM3.1 9.37499C3.125 9.37499 3.15 9.37499 3.2 9.37499H4.2C4.65 9.34999 5 8.97499 4.975 8.52499C4.95 8.09999 4.625 7.77499 4.2 7.74999H3.2C2.75 7.72499 2.375 8.07499 2.35 8.52499C2.325 8.97499 2.65 9.34999 3.1 9.37499Z" fill="#0254A8"/>
<path d="M11.5002 8.82501C13.4002 8.82501 14.9502 10.375 14.9502 12.275C14.9502 14.175 13.4002 15.7 11.5002 15.7C9.6002 15.7 8.0502 14.15 8.0502 12.25C8.0502 10.35 9.6002 8.82501 11.5002 8.82501Z" fill="#0254A8"/>
</svg>
