<svg width="21" height="21" viewBox="0 0 21 21" fill="none" xmlns="http://www.w3.org/2000/svg">
<path d="M8.52053 1.70414L8.52053 8.52053L1.70414 8.52053C0.763467 8.52053 -4.88128e-07 9.28228 -4.46935e-07 10.2247C-4.05741e-07 11.1671 0.763467 11.9288 1.70414 11.9288L8.52053 11.9288L8.52053 18.7452C8.52053 19.6876 9.284 20.4493 10.2247 20.4493C11.1653 20.4493 11.9288 19.6876 11.9288 18.7452L11.9288 11.9288L18.7452 11.9288C19.6859 11.9288 20.4493 11.1671 20.4493 10.2247C20.4493 9.28228 19.6859 8.52053 18.7452 8.52053L11.9288 8.52053L11.9288 1.70414C11.9288 0.761745 11.1653 -4.30275e-06 10.2247 -4.26163e-06C9.284 -4.22051e-06 8.52053 0.761745 8.52053 1.70414Z" fill="#C1C1C1"/>
</svg>
