<svg width="19" height="15" viewBox="0 0 19 15" fill="none" xmlns="http://www.w3.org/2000/svg">
<path d="M12.0318 8.63517C12.0318 10.2533 10.7155 11.5696 9.09741 11.5696C7.47932 11.5696 6.16353 10.2533 6.16353 8.63517C6.16353 7.01708 7.47932 5.70078 9.09741 5.70078C10.7155 5.70078 12.0318 7.01759 12.0318 8.63517ZM18.1948 4.46848V12.8029C18.1948 13.914 17.294 14.8148 16.1829 14.8148H2.01192C0.900838 14.8148 0 13.914 0 12.8029V4.46848C0 3.3574 0.900838 2.45656 2.01192 2.45656H4.48659V1.76043C4.48659 0.788171 5.27426 0 6.24702 0H11.9478C12.9206 0 13.7082 0.788171 13.7082 1.76043V2.45605H16.1829C17.294 2.45656 18.1948 3.3574 18.1948 4.46848ZM13.5407 8.63517C13.5407 6.18515 11.5474 4.19184 9.09741 4.19184C6.6479 4.19184 4.65458 6.18515 4.65458 8.63517C4.65458 11.0852 6.6479 13.0785 9.09741 13.0785C11.5474 13.0785 13.5407 11.0852 13.5407 8.63517Z" fill="white"/>
</svg>
