<svg width="23" height="30" viewBox="0 0 23 30" fill="none" xmlns="http://www.w3.org/2000/svg">
<mask id="path-1-outside-1_310_815" maskUnits="userSpaceOnUse" x="0.130859" y="0" width="23" height="30" fill="black">
<rect fill="white" x="0.130859" width="23" height="30"/>
<path d="M21.7582 20.5546C22.0604 20.2048 22.0817 19.7 21.8097 19.3267L20.7632 17.8872C20.5522 17.5973 20.2124 17.4244 19.8543 17.4244H19.2996V16.0006C19.2996 15.423 18.6096 15.1236 18.1876 15.5153L17.6492 16.0157H16.8248V15.84C16.8248 15.4743 16.5284 15.1779 16.1628 15.1779H15.5276C15.7106 14.9205 15.6736 14.5841 15.5113 14.3904L14.3478 12.9963L16.052 9.55272L19.0064 8.77868L19.8241 8.8061C20.2701 8.82065 20.5723 8.40145 20.499 8.04723L20.3351 7.25416C20.2998 6.94634 20.0496 6.69789 19.7373 6.66935L19.4233 6.64081L19.8073 6.10911C20.0535 5.76826 19.9237 5.28755 19.5403 5.11685L17.4768 4.19623C17.2457 4.09325 16.9714 4.13242 16.7783 4.29641L16.2673 4.73072L15.3758 4.64957C13.2883 1.78915 13.4271 1.95313 13.2961 1.86358C11.8573 0.874067 12.0772 0.88526 11.2517 1.16006C10.8308 1.30054 10.664 1.80924 10.9215 2.17135L11.3759 2.81219L9.4423 4.97978L7.15107 6.16121C7.01619 6.23061 6.90817 6.34591 6.84772 6.48527L5.97748 8.48272L5.92039 8.47656L5.87841 8.19448C5.83811 7.92863 5.64391 7.71483 5.38309 7.65047C4.54307 7.44115 4.73554 7.49208 4.43001 7.40309C4.77589 7.07456 4.71377 6.6229 4.42889 6.38565C4.41602 6.37389 3.45118 5.51646 3.43775 5.50588C3.14784 5.27417 2.72472 5.32566 2.49866 5.62062L1.26624 7.23239C1.08714 7.46634 1.09162 7.78815 1.24497 8.00637L2.44767 9.70439L2.26858 9.77883C1.89023 9.93666 1.74471 10.3967 1.96355 10.7431C1.96467 10.7453 1.96635 10.7476 1.96747 10.7493L2.41801 11.4349C2.55233 11.6453 2.78964 11.7606 3.03864 11.7365L3.80653 11.6621L5.69204 14.8164C5.7676 14.9428 5.90472 15.0206 6.05191 15.0206H6.05247C6.37821 15.0206 6.57969 14.6652 6.41291 14.3854L4.46919 11.1349C4.33878 10.9166 4.09028 10.7912 3.83731 10.8159L3.06444 10.8903L2.78908 10.4711L2.97601 10.3933C3.15623 10.3183 3.29335 10.1683 3.35212 9.98194C3.41145 9.79556 3.38514 9.59408 3.28104 9.42897C3.27712 9.42282 3.27265 9.41666 3.26873 9.4105L2.01286 7.6381L3.04933 6.28261L3.74222 6.89826C3.64036 6.99564 3.33981 7.22735 3.44055 7.64314C3.49596 7.87261 3.6717 8.05618 3.89837 8.12223C4.6114 8.33043 4.26832 8.23808 5.06581 8.43621L5.11058 8.7362C5.15491 9.03305 5.39356 9.26286 5.69187 9.29588L6.01497 9.33164C6.30489 9.36411 6.57857 9.20572 6.69499 8.93819L7.5921 6.87805C10.0501 5.61043 9.93426 5.68879 10.0468 5.56286L12.0968 3.26542C12.3039 3.03371 12.3224 2.6946 12.1427 2.44162L11.7448 1.88082L11.8086 1.85955L12.7958 2.53783L14.7451 5.20964C14.8571 5.363 15.03 5.46094 15.2197 5.47829C16.7107 5.61373 16.414 5.70776 17.2373 5.00816L18.9991 5.79451L18.5604 6.40232C18.2604 6.81705 18.5268 7.40242 19.0366 7.44887L19.5275 7.49309L19.6238 7.9593C18.6891 7.92852 19.4542 7.79364 15.761 8.76071C15.5757 8.8094 15.4207 8.93589 15.3356 9.10772L13.543 12.7287C13.4384 12.9409 13.4552 13.195 13.5867 13.3914C13.5951 13.4032 13.604 13.4149 13.613 13.4261L14.7575 14.7973C14.7183 14.8454 14.739 14.8191 14.5857 15.0301C14.2868 15.4403 14.5806 16.0173 15.0882 16.0173H15.9854V16.1931C15.9854 16.5572 16.2833 16.8552 16.6475 16.8552H17.7187C18.0354 16.8552 18.1748 16.6733 18.4602 16.408V17.6017C18.4602 17.9672 18.7574 18.2638 19.1223 18.2638C19.8812 18.2638 19.9741 18.2291 20.0844 18.3808L21.1309 19.8203C21.1718 19.8768 21.169 19.9529 21.1231 20.0055L20.7375 20.4527C20.5768 20.6385 20.6496 20.4365 19.856 24.6423C19.8252 24.8046 19.856 24.9714 19.9428 25.1119L20.6765 26.3045L19.274 28.7429L15.4823 26.2838C15.2029 26.1027 14.834 26.3033 14.834 26.6361C14.834 26.7784 14.9061 26.9111 15.0256 26.9884L18.9639 29.5421C19.2818 29.757 19.7166 29.6574 19.9086 29.3238L21.4567 26.6313C21.5781 26.4203 21.5742 26.1612 21.4466 25.9541L20.6932 24.7301L21.404 20.9647L21.7582 20.5546Z"/>
</mask>
<path d="M21.7582 20.5546C22.0604 20.2048 22.0817 19.7 21.8097 19.3267L20.7632 17.8872C20.5522 17.5973 20.2124 17.4244 19.8543 17.4244H19.2996V16.0006C19.2996 15.423 18.6096 15.1236 18.1876 15.5153L17.6492 16.0157H16.8248V15.84C16.8248 15.4743 16.5284 15.1779 16.1628 15.1779H15.5276C15.7106 14.9205 15.6736 14.5841 15.5113 14.3904L14.3478 12.9963L16.052 9.55272L19.0064 8.77868L19.8241 8.8061C20.2701 8.82065 20.5723 8.40145 20.499 8.04723L20.3351 7.25416C20.2998 6.94634 20.0496 6.69789 19.7373 6.66935L19.4233 6.64081L19.8073 6.10911C20.0535 5.76826 19.9237 5.28755 19.5403 5.11685L17.4768 4.19623C17.2457 4.09325 16.9714 4.13242 16.7783 4.29641L16.2673 4.73072L15.3758 4.64957C13.2883 1.78915 13.4271 1.95313 13.2961 1.86358C11.8573 0.874067 12.0772 0.88526 11.2517 1.16006C10.8308 1.30054 10.664 1.80924 10.9215 2.17135L11.3759 2.81219L9.4423 4.97978L7.15107 6.16121C7.01619 6.23061 6.90817 6.34591 6.84772 6.48527L5.97748 8.48272L5.92039 8.47656L5.87841 8.19448C5.83811 7.92863 5.64391 7.71483 5.38309 7.65047C4.54307 7.44115 4.73554 7.49208 4.43001 7.40309C4.77589 7.07456 4.71377 6.6229 4.42889 6.38565C4.41602 6.37389 3.45118 5.51646 3.43775 5.50588C3.14784 5.27417 2.72472 5.32566 2.49866 5.62062L1.26624 7.23239C1.08714 7.46634 1.09162 7.78815 1.24497 8.00637L2.44767 9.70439L2.26858 9.77883C1.89023 9.93666 1.74471 10.3967 1.96355 10.7431C1.96467 10.7453 1.96635 10.7476 1.96747 10.7493L2.41801 11.4349C2.55233 11.6453 2.78964 11.7606 3.03864 11.7365L3.80653 11.6621L5.69204 14.8164C5.7676 14.9428 5.90472 15.0206 6.05191 15.0206H6.05247C6.37821 15.0206 6.57969 14.6652 6.41291 14.3854L4.46919 11.1349C4.33878 10.9166 4.09028 10.7912 3.83731 10.8159L3.06444 10.8903L2.78908 10.4711L2.97601 10.3933C3.15623 10.3183 3.29335 10.1683 3.35212 9.98194C3.41145 9.79556 3.38514 9.59408 3.28104 9.42897C3.27712 9.42282 3.27265 9.41666 3.26873 9.4105L2.01286 7.6381L3.04933 6.28261L3.74222 6.89826C3.64036 6.99564 3.33981 7.22735 3.44055 7.64314C3.49596 7.87261 3.6717 8.05618 3.89837 8.12223C4.6114 8.33043 4.26832 8.23808 5.06581 8.43621L5.11058 8.7362C5.15491 9.03305 5.39356 9.26286 5.69187 9.29588L6.01497 9.33164C6.30489 9.36411 6.57857 9.20572 6.69499 8.93819L7.5921 6.87805C10.0501 5.61043 9.93426 5.68879 10.0468 5.56286L12.0968 3.26542C12.3039 3.03371 12.3224 2.6946 12.1427 2.44162L11.7448 1.88082L11.8086 1.85955L12.7958 2.53783L14.7451 5.20964C14.8571 5.363 15.03 5.46094 15.2197 5.47829C16.7107 5.61373 16.414 5.70776 17.2373 5.00816L18.9991 5.79451L18.5604 6.40232C18.2604 6.81705 18.5268 7.40242 19.0366 7.44887L19.5275 7.49309L19.6238 7.9593C18.6891 7.92852 19.4542 7.79364 15.761 8.76071C15.5757 8.8094 15.4207 8.93589 15.3356 9.10772L13.543 12.7287C13.4384 12.9409 13.4552 13.195 13.5867 13.3914C13.5951 13.4032 13.604 13.4149 13.613 13.4261L14.7575 14.7973C14.7183 14.8454 14.739 14.8191 14.5857 15.0301C14.2868 15.4403 14.5806 16.0173 15.0882 16.0173H15.9854V16.1931C15.9854 16.5572 16.2833 16.8552 16.6475 16.8552H17.7187C18.0354 16.8552 18.1748 16.6733 18.4602 16.408V17.6017C18.4602 17.9672 18.7574 18.2638 19.1223 18.2638C19.8812 18.2638 19.9741 18.2291 20.0844 18.3808L21.1309 19.8203C21.1718 19.8768 21.169 19.9529 21.1231 20.0055L20.7375 20.4527C20.5768 20.6385 20.6496 20.4365 19.856 24.6423C19.8252 24.8046 19.856 24.9714 19.9428 25.1119L20.6765 26.3045L19.274 28.7429L15.4823 26.2838C15.2029 26.1027 14.834 26.3033 14.834 26.6361C14.834 26.7784 14.9061 26.9111 15.0256 26.9884L18.9639 29.5421C19.2818 29.757 19.7166 29.6574 19.9086 29.3238L21.4567 26.6313C21.5781 26.4203 21.5742 26.1612 21.4466 25.9541L20.6932 24.7301L21.404 20.9647L21.7582 20.5546Z" fill="#0254A8"/>
<path d="M21.7582 20.5546C22.0604 20.2048 22.0817 19.7 21.8097 19.3267L20.7632 17.8872C20.5522 17.5973 20.2124 17.4244 19.8543 17.4244H19.2996V16.0006C19.2996 15.423 18.6096 15.1236 18.1876 15.5153L17.6492 16.0157H16.8248V15.84C16.8248 15.4743 16.5284 15.1779 16.1628 15.1779H15.5276C15.7106 14.9205 15.6736 14.5841 15.5113 14.3904L14.3478 12.9963L16.052 9.55272L19.0064 8.77868L19.8241 8.8061C20.2701 8.82065 20.5723 8.40145 20.499 8.04723L20.3351 7.25416C20.2998 6.94634 20.0496 6.69789 19.7373 6.66935L19.4233 6.64081L19.8073 6.10911C20.0535 5.76826 19.9237 5.28755 19.5403 5.11685L17.4768 4.19623C17.2457 4.09325 16.9714 4.13242 16.7783 4.29641L16.2673 4.73072L15.3758 4.64957C13.2883 1.78915 13.4271 1.95313 13.2961 1.86358C11.8573 0.874067 12.0772 0.88526 11.2517 1.16006C10.8308 1.30054 10.664 1.80924 10.9215 2.17135L11.3759 2.81219L9.4423 4.97978L7.15107 6.16121C7.01619 6.23061 6.90817 6.34591 6.84772 6.48527L5.97748 8.48272L5.92039 8.47656L5.87841 8.19448C5.83811 7.92863 5.64391 7.71483 5.38309 7.65047C4.54307 7.44115 4.73554 7.49208 4.43001 7.40309C4.77589 7.07456 4.71377 6.6229 4.42889 6.38565C4.41602 6.37389 3.45118 5.51646 3.43775 5.50588C3.14784 5.27417 2.72472 5.32566 2.49866 5.62062L1.26624 7.23239C1.08714 7.46634 1.09162 7.78815 1.24497 8.00637L2.44767 9.70439L2.26858 9.77883C1.89023 9.93666 1.74471 10.3967 1.96355 10.7431C1.96467 10.7453 1.96635 10.7476 1.96747 10.7493L2.41801 11.4349C2.55233 11.6453 2.78964 11.7606 3.03864 11.7365L3.80653 11.6621L5.69204 14.8164C5.7676 14.9428 5.90472 15.0206 6.05191 15.0206H6.05247C6.37821 15.0206 6.57969 14.6652 6.41291 14.3854L4.46919 11.1349C4.33878 10.9166 4.09028 10.7912 3.83731 10.8159L3.06444 10.8903L2.78908 10.4711L2.97601 10.3933C3.15623 10.3183 3.29335 10.1683 3.35212 9.98194C3.41145 9.79556 3.38514 9.59408 3.28104 9.42897C3.27712 9.42282 3.27265 9.41666 3.26873 9.4105L2.01286 7.6381L3.04933 6.28261L3.74222 6.89826C3.64036 6.99564 3.33981 7.22735 3.44055 7.64314C3.49596 7.87261 3.6717 8.05618 3.89837 8.12223C4.6114 8.33043 4.26832 8.23808 5.06581 8.43621L5.11058 8.7362C5.15491 9.03305 5.39356 9.26286 5.69187 9.29588L6.01497 9.33164C6.30489 9.36411 6.57857 9.20572 6.69499 8.93819L7.5921 6.87805C10.0501 5.61043 9.93426 5.68879 10.0468 5.56286L12.0968 3.26542C12.3039 3.03371 12.3224 2.6946 12.1427 2.44162L11.7448 1.88082L11.8086 1.85955L12.7958 2.53783L14.7451 5.20964C14.8571 5.363 15.03 5.46094 15.2197 5.47829C16.7107 5.61373 16.414 5.70776 17.2373 5.00816L18.9991 5.79451L18.5604 6.40232C18.2604 6.81705 18.5268 7.40242 19.0366 7.44887L19.5275 7.49309L19.6238 7.9593C18.6891 7.92852 19.4542 7.79364 15.761 8.76071C15.5757 8.8094 15.4207 8.93589 15.3356 9.10772L13.543 12.7287C13.4384 12.9409 13.4552 13.195 13.5867 13.3914C13.5951 13.4032 13.604 13.4149 13.613 13.4261L14.7575 14.7973C14.7183 14.8454 14.739 14.8191 14.5857 15.0301C14.2868 15.4403 14.5806 16.0173 15.0882 16.0173H15.9854V16.1931C15.9854 16.5572 16.2833 16.8552 16.6475 16.8552H17.7187C18.0354 16.8552 18.1748 16.6733 18.4602 16.408V17.6017C18.4602 17.9672 18.7574 18.2638 19.1223 18.2638C19.8812 18.2638 19.9741 18.2291 20.0844 18.3808L21.1309 19.8203C21.1718 19.8768 21.169 19.9529 21.1231 20.0055L20.7375 20.4527C20.5768 20.6385 20.6496 20.4365 19.856 24.6423C19.8252 24.8046 19.856 24.9714 19.9428 25.1119L20.6765 26.3045L19.274 28.7429L15.4823 26.2838C15.2029 26.1027 14.834 26.3033 14.834 26.6361C14.834 26.7784 14.9061 26.9111 15.0256 26.9884L18.9639 29.5421C19.2818 29.757 19.7166 29.6574 19.9086 29.3238L21.4567 26.6313C21.5781 26.4203 21.5742 26.1612 21.4466 25.9541L20.6932 24.7301L21.404 20.9647L21.7582 20.5546Z" stroke="#0254A8" stroke-width="0.6" mask="url(#path-1-outside-1_310_815)"/>
<path d="M11.0083 23.0514L11.0083 23.0514L11.0081 23.0493L10.8957 21.8637C10.8786 21.6576 10.8133 21.4545 10.7071 21.2772L10.7069 21.2769L7.42589 15.8251C7.42584 15.8251 7.42579 15.825 7.42575 15.8249C7.32304 15.6532 7.13704 15.5478 6.93668 15.5478C6.60265 15.5478 6.36636 15.8226 6.36636 16.1181C6.36636 16.2166 6.39262 16.3173 6.44827 16.4098L6.44828 16.4098L9.72902 21.8621L9.72905 21.8621C9.74623 21.8906 9.75742 21.9241 9.76066 21.9637L9.76064 21.9637L9.76082 21.9656L9.87269 23.1508C9.90965 23.589 10.1378 23.984 10.4985 24.2344L10.4985 24.2344L10.5034 24.2378L10.5061 24.24L10.5136 24.2449L13.3532 26.0853C13.7324 26.331 14.233 26.0588 14.233 25.6071C14.233 25.4138 14.1352 25.2339 13.9731 25.1288L13.8915 25.2547L13.9731 25.1288L11.1433 23.295C11.0658 23.2386 11.0165 23.1522 11.0083 23.0514ZM10.5066 24.2399C10.5069 24.2401 10.5068 24.2401 10.5064 24.2398L10.5066 24.2399Z" fill="#0254A8" stroke="#0254A8" stroke-width="0.3"/>
</svg>
