<svg width="24" height="26" viewBox="0 0 24 26" fill="none" xmlns="http://www.w3.org/2000/svg">
<path opacity="0.4" fill-rule="evenodd" clip-rule="evenodd" d="M8.18376 4.35195H15.8621V2.56418H8.18376V4.35195ZM6.43707 2.6376V2.6465C5.83768 2.70101 5.24473 2.82004 4.66786 2.99916V2.99248C4.65071 2.99969 4.63457 3.00524 4.61907 3.01057C4.59873 3.01756 4.57951 3.02417 4.56064 3.03364C4.51453 3.04477 4.4695 3.06145 4.42661 3.08259C4.30008 3.12375 4.17356 3.1727 4.05454 3.22277C4.02291 3.235 3.99128 3.24919 3.95965 3.26337C3.92801 3.27756 3.89638 3.29174 3.86475 3.30398C3.82133 3.32456 3.77602 3.34709 3.73072 3.36962C3.68542 3.39214 3.64012 3.41467 3.59669 3.43525L3.38224 3.55874C3.34259 3.57896 3.30589 3.60268 3.26844 3.62688C3.24614 3.64129 3.22357 3.65587 3.19996 3.66999C2.87721 3.87802 2.57806 4.12166 2.30785 4.39867L2.29177 4.41536C2.25628 4.45673 2.22094 4.49687 2.18608 4.53646C2.1272 4.60334 2.06968 4.66867 2.01513 4.73575L1.99905 4.75133C1.12195 5.96172 0.68233 7.45357 0.75846 8.96544V9.44492H2.49013V8.96099C2.49013 6.85393 3.16136 5.54231 4.655 4.87036C5.22543 4.62895 5.82803 4.47988 6.44136 4.42537H6.45744V2.64538L6.43707 2.6376ZM21.9975 4.72908L22.005 4.74465C22.881 5.95616 23.3185 7.44912 23.2413 8.96099V9.44493H21.5107V8.94875C21.5471 8.05654 21.3681 7.16877 20.9885 6.36666C20.6239 5.68026 20.0406 5.14738 19.3362 4.85813C18.7754 4.61672 18.1814 4.46653 17.5755 4.41313V2.64205C18.1749 2.69767 18.7679 2.81559 19.3458 2.99471V2.98581C19.3783 3.00054 19.4031 3.0093 19.4456 3.02434L19.453 3.02697C19.4728 3.03395 19.4912 3.04093 19.5094 3.04783C19.5347 3.05742 19.5596 3.06686 19.5871 3.07592C19.7056 3.11481 19.8165 3.16066 19.9306 3.20782L19.9506 3.21609C20.0032 3.23458 20.0528 3.25751 20.0975 3.27817C20.1119 3.28486 20.1259 3.29131 20.1393 3.2973C20.2336 3.33847 20.3301 3.38742 20.4073 3.42858C20.4588 3.45529 20.509 3.48389 20.556 3.5107C20.5814 3.5252 20.606 3.53918 20.6293 3.55206C20.6677 3.57328 20.7011 3.59598 20.7332 3.6178C20.7567 3.63375 20.7795 3.64922 20.803 3.66331C21.1268 3.87246 21.4292 4.11721 21.7026 4.39199L21.7123 4.40868C21.813 4.50992 21.9085 4.61672 21.9975 4.72908Z" fill="#CC2626"/>
<path d="M17.625 1.39619V5.33561C17.625 5.83196 17.2222 6.23399 16.725 6.23399C16.2277 6.23399 15.825 5.83196 15.825 5.33561V1.40517C15.8205 0.908817 16.221 0.503421 16.7182 0.500052C17.2155 0.496683 17.6216 0.895341 17.625 1.3917V1.39619Z" fill="#CC2626"/>
<path d="M8.175 1.41046V5.34014C8.175 5.83865 7.77176 6.24284 7.27444 6.24284C6.77712 6.24284 6.375 5.83865 6.375 5.34014V1.41046C6.375 0.911953 6.77712 0.508881 7.27444 0.508881C7.77176 0.508881 8.175 0.911953 8.175 1.41046Z" fill="#CC2626"/>
<path fill-rule="evenodd" clip-rule="evenodd" d="M0.75 19.1377V9.44492H23.25V19.1377C23.25 23.3645 20.8895 25.5 16.2114 25.5H7.7779C3.11052 25.5 0.75 23.3645 0.75 19.1377ZM5.82513 14.8335C5.82513 15.4199 6.2865 15.8957 6.85517 15.8957C7.43457 15.8957 7.89594 15.4089 7.88521 14.8224C7.88521 14.236 7.42384 13.7602 6.8659 13.7602H6.85517C6.2865 13.7602 5.82513 14.2471 5.82513 14.8335ZM10.9646 14.8335C10.9646 15.4199 11.4367 15.8957 12.0054 15.8957C12.574 15.8957 13.0354 15.4199 13.0354 14.8224C13.0354 14.2471 12.574 13.7713 12.0054 13.7602H11.9946C11.426 13.7713 10.9646 14.2471 10.9646 14.8335ZM17.1449 15.8957C16.5762 15.8957 16.1148 15.4199 16.1148 14.8335C16.1148 14.2471 16.5655 13.7713 17.1449 13.7713C17.7135 13.7713 18.1749 14.2471 18.1749 14.8335C18.1749 15.4199 17.7135 15.8957 17.1449 15.8957ZM17.1449 20.4323C16.5762 20.4323 16.1148 19.9565 16.1041 19.3701C16.1041 18.7836 16.5655 18.3079 17.1341 18.3079H17.1449C17.7135 18.3079 18.1749 18.7836 18.1749 19.3701C18.1749 19.9565 17.7135 20.4323 17.1449 20.4323ZM12.0054 20.4323C11.4367 20.4323 10.9646 19.9565 10.9646 19.3701C10.9646 18.7836 11.426 18.3079 11.9946 18.2968H12.0054C12.574 18.3079 13.0247 18.7836 13.0354 19.359C13.0354 19.9565 12.574 20.4323 12.0054 20.4323ZM6.85515 20.4323C6.28648 20.4323 5.82511 19.9565 5.82511 19.3701C5.81438 18.7836 6.27575 18.2968 6.85515 18.2968C7.42382 18.2968 7.88519 18.7726 7.88519 19.359C7.88519 19.9455 7.42382 20.4323 6.85515 20.4323Z" fill="#CC2626"/>
</svg>
