<svg width="16" height="16" viewBox="0 0 16 16" fill="none" xmlns="http://www.w3.org/2000/svg">
<path d="M8.00001 0C3.58882 0 2.15004e-05 3.39986 2.15004e-05 7.57895C2.15004e-05 9.03972 0.438954 10.4547 1.27149 11.6783C1.11389 13.5133 0.691487 14.8755 0.0781547 15.5208C-0.00291183 15.6062 -0.0231785 15.7367 0.0280215 15.8445C0.0733547 15.9408 0.166688 16 0.266688 16C0.278954 16 0.291221 15.9992 0.303754 15.9972C0.411754 15.9812 2.92055 15.6011 4.73522 14.4985C5.76561 14.9361 6.86321 15.1579 8.00001 15.1579C12.4112 15.1579 16 11.758 16 7.57895C16 3.39986 12.4112 0 8.00001 0ZM4.26668 8.70175C3.67842 8.70175 3.20002 8.19818 3.20002 7.57895C3.20002 6.95972 3.67842 6.45614 4.26668 6.45614C4.85495 6.45614 5.33335 6.95972 5.33335 7.57895C5.33335 8.19818 4.85495 8.70175 4.26668 8.70175ZM8.00001 8.70175C7.41175 8.70175 6.93335 8.19818 6.93335 7.57895C6.93335 6.95972 7.41175 6.45614 8.00001 6.45614C8.58828 6.45614 9.06668 6.95972 9.06668 7.57895C9.06668 8.19818 8.58828 8.70175 8.00001 8.70175ZM11.7333 8.70175C11.1451 8.70175 10.6667 8.19818 10.6667 7.57895C10.6667 6.95972 11.1451 6.45614 11.7333 6.45614C12.3216 6.45614 12.8 6.95972 12.8 7.57895C12.8 8.19818 12.3216 8.70175 11.7333 8.70175Z" fill="#CC2626"/>
</svg>
