<svg width="23" height="23" viewBox="0 0 23 23" fill="none" xmlns="http://www.w3.org/2000/svg">
<path opacity="0.01" fill-rule="evenodd" clip-rule="evenodd" d="M0 0V23H23V0H0Z" fill="#1C8FF8" fill-opacity="0.338428"/>
<path fill-rule="evenodd" clip-rule="evenodd" d="M11.26 14.4186C12.7396 14.4186 13.939 13.2192 13.939 11.7396C13.939 10.26 12.7396 9.06062 11.26 9.06062C9.78047 9.06062 8.58105 10.26 8.58105 11.7396C8.58105 13.2192 9.78047 14.4186 11.26 14.4186Z" stroke="white" stroke-width="1.5" stroke-linecap="round" stroke-linejoin="round"/>
<path fill-rule="evenodd" clip-rule="evenodd" d="M17.8686 14.4186C17.6254 14.9696 17.7421 15.6132 18.1632 16.0438L18.2168 16.0974C18.5522 16.4324 18.7406 16.887 18.7406 17.361C18.7406 17.835 18.5522 18.2896 18.2168 18.6246C17.8818 18.9599 17.4273 19.1484 16.9532 19.1484C16.4792 19.1484 16.0247 18.9599 15.6897 18.6246L15.6361 18.571C15.2055 18.1498 14.5619 18.0331 14.0108 18.2763C13.471 18.5076 13.1202 19.0374 13.1178 19.6247V19.7765C13.1178 20.7629 12.3182 21.5625 11.3319 21.5625C10.3455 21.5625 9.54587 20.7629 9.54587 19.7765V19.6962C9.53172 19.0913 9.14927 18.5566 8.58144 18.3477C8.03038 18.1045 7.38678 18.2212 6.95619 18.6424L6.90261 18.696C6.56762 19.0314 6.11305 19.2198 5.63903 19.2198C5.16501 19.2198 4.71044 19.0314 4.37544 18.696C4.04008 18.361 3.85164 17.9064 3.85164 17.4324C3.85164 16.9584 4.04008 16.5038 4.37544 16.1688L4.42902 16.1153C4.85022 15.6847 4.96692 15.0411 4.72371 14.49C4.49237 13.9502 3.96256 13.5994 3.37529 13.597H3.22348C2.23711 13.597 1.4375 12.7974 1.4375 11.811C1.4375 10.8247 2.23711 10.025 3.22348 10.025H3.30385C3.9087 10.0109 4.44343 9.62844 4.65227 9.06061C4.89548 8.50955 4.77878 7.86595 4.35759 7.43537L4.30401 7.38179C3.96864 7.04679 3.7802 6.59222 3.7802 6.1182C3.7802 5.64418 3.96864 5.18961 4.30401 4.85462C4.639 4.51925 5.09357 4.33081 5.56759 4.33081C6.04161 4.33081 6.49618 4.51925 6.83117 4.85462L6.88475 4.9082C7.31534 5.32939 7.95894 5.44609 8.51 5.20288H8.58144C9.12123 4.97154 9.47209 4.44174 9.47443 3.85447V3.70266C9.47443 2.71628 10.274 1.91667 11.2604 1.91667C12.2468 1.91667 13.0464 2.71628 13.0464 3.70266V3.78303C13.0487 4.3703 13.3996 4.9001 13.9394 5.13144C14.4905 5.37465 15.1341 5.25795 15.5646 4.83676L15.6182 4.78318C15.9532 4.44781 16.4078 4.25937 16.8818 4.25937C17.3558 4.25937 17.8104 4.44781 18.1454 4.78318C18.4808 5.11817 18.6692 5.57274 18.6692 6.04676C18.6692 6.52078 18.4808 6.97535 18.1454 7.31035L18.0918 7.36393C17.6706 7.79451 17.5539 8.43812 17.7971 8.98917V9.06061C18.0285 9.6004 18.5583 9.95126 19.1455 9.9536H19.2973C20.2837 9.9536 21.0833 10.7532 21.0833 11.7396C21.0833 12.726 20.2837 13.5256 19.2973 13.5256H19.217C18.6297 13.5279 18.0999 13.8788 17.8686 14.4186Z" stroke="white" stroke-width="1.5" stroke-linecap="round" stroke-linejoin="round"/>
</svg>
