<svg width="20" height="20" viewBox="0 0 20 20" fill="none" xmlns="http://www.w3.org/2000/svg">
<path d="M2.92895 2.92895C4.81766 1.0402 7.32891 0 10 0C12.6711 0 15.1823 1.0402 17.0711 2.92895C18.9598 4.81766 20 7.32891 20 10C20 12.6711 18.9598 15.1823 17.0711 17.0711C15.1823 18.9598 12.6711 20 10 20C7.32891 20 4.81766 18.9598 2.92895 17.0711C1.04016 15.1823 0 12.6711 0 10C0 7.32891 1.04016 4.81766 2.92895 2.92895ZM10 18.8095C14.8576 18.8095 18.8095 14.8576 18.8095 10C18.8095 5.14242 14.8576 1.19047 10 1.19047C5.14242 1.19047 1.19047 5.14242 1.19047 10C1.19047 14.8576 5.14242 18.8095 10 18.8095Z" fill="#0254A8"/>
<path d="M12.1632 7.35922C13.1379 6.38441 14.724 6.38449 15.6987 7.35922C15.9312 7.59164 15.9312 7.96855 15.6987 8.20101C15.4662 8.43344 15.0893 8.43344 14.8569 8.20101C14.3462 7.69043 13.5155 7.69047 13.0049 8.20101C12.8887 8.31726 12.7364 8.37539 12.5841 8.37539C12.4317 8.37539 12.2794 8.31726 12.1632 8.20101C11.9307 7.96855 11.9307 7.59168 12.1632 7.35922Z" fill="#0254A8"/>
<path d="M4.30137 7.35922C5.2761 6.38449 6.86216 6.38441 7.83688 7.35922C8.06935 7.59164 8.06935 7.96855 7.83688 8.20101C7.60438 8.43344 7.22747 8.43344 6.99505 8.20101C6.4845 7.69043 5.65372 7.69039 5.14309 8.20101C5.02684 8.31726 4.87454 8.37539 4.72223 8.37539C4.56993 8.37539 4.41755 8.31726 4.30137 8.20101C4.06891 7.96855 4.06891 7.59168 4.30137 7.35922Z" fill="#0254A8"/>
<path d="M4.72227 10.4365H15.2778C15.6066 10.4365 15.873 10.703 15.873 11.0318C15.873 14.2701 13.2384 16.9048 10 16.9048C6.76168 16.9048 4.12703 14.2701 4.12703 11.0318C4.12703 10.703 4.39352 10.4365 4.72227 10.4365ZM10 15.7143C12.3804 15.7143 14.3517 13.929 14.6449 11.627H5.35512C5.6484 13.929 7.61965 15.7143 10 15.7143Z" fill="#0254A8"/>
</svg>
