<svg width="375" height="155" viewBox="0 0 375 155" fill="none" xmlns="http://www.w3.org/2000/svg">
<path d="M374.549 0.567153V154.218C374.329 154.296 374.094 154.317 373.864 154.279H1.26652C1.03557 154.305 0.80193 154.29 0.575911 154.236C0.392564 153.992 0.465903 153.711 0.465903 153.442C0.465903 149.966 0.465903 146.487 0.465903 143.003C0.478126 95.879 0.484237 48.7507 0.484237 1.61834C0.424717 1.26339 0.458412 0.899054 0.582022 0.561036C0.803058 0.491001 1.03713 0.472193 1.26652 0.506034H373.864C374.094 0.467875 374.329 0.488913 374.549 0.567153Z" fill="#124394"/>
<path d="M242.073 48.4824V76.7728C242.073 77.5368 242.152 77.4512 241.4 77.4512H233.419C233.162 77.4512 233.015 77.3962 233.046 77.1029C233.046 76.9806 233.046 76.8523 233.046 76.724V33.1974C233.046 32.3479 232.948 32.4273 233.834 32.4273C236.749 32.4273 239.659 32.4273 242.574 32.4273C242.806 32.3982 243.041 32.4556 243.234 32.5886C243.427 32.7216 243.564 32.9209 243.619 33.1485C248.15 43.7704 252.693 54.3862 257.248 64.9959C257.352 65.2403 257.462 65.4909 257.596 65.7904C257.776 65.6042 257.904 65.3747 257.969 65.1242C261.151 57.7129 264.329 50.2955 267.503 42.872C268.902 39.5962 270.314 36.3265 271.689 33.0446C271.743 32.8467 271.866 32.6752 272.038 32.5625C272.209 32.4499 272.415 32.404 272.618 32.4334C275.576 32.4334 278.528 32.4334 281.486 32.4334H281.865C282.116 32.4334 282.195 32.5557 282.189 32.7879C282.183 33.0201 282.189 33.0813 282.189 33.2279C282.189 47.7164 282.189 62.2049 282.189 76.6934C282.189 77.5551 282.305 77.4573 281.407 77.4573H273.486C273.223 77.4573 273.083 77.3901 273.107 77.109C273.107 76.9379 273.107 76.7667 273.107 76.6017V48.4885C272.924 48.6777 272.793 48.9116 272.728 49.1669C268.923 58.3913 265.125 67.6198 261.336 76.8523C261.281 76.9678 261.232 77.0861 261.19 77.2068C261.129 77.4268 260.982 77.4879 260.762 77.4879C258.696 77.4879 256.624 77.4879 254.559 77.4879C254.174 77.4879 254.106 77.2495 254.009 76.999C253.269 75.2327 252.542 73.4604 251.808 71.688L242.439 49.0752C242.392 48.8399 242.262 48.6294 242.073 48.4824V48.4824Z" fill="#F5E631"/>
<path d="M181.061 47.1623C180.294 44.6164 179.019 42.2522 177.313 40.2124C175.607 38.1726 173.506 36.4994 171.136 35.2937C167.909 33.6016 164.344 32.6555 160.703 32.5251C154.879 32.2807 149.048 32.464 143.224 32.4212C142.735 32.4212 142.735 32.4212 142.723 32.904C142.723 33.0507 142.723 33.2035 142.723 33.3502V77.2007C142.723 77.3474 142.784 77.439 142.943 77.439H143.322C148.621 77.439 153.926 77.439 159.212 77.439C162.123 77.4474 165.015 76.9682 167.768 76.0211C174.607 73.6315 179.264 69.0784 181.263 62.0562C182.684 57.1828 182.614 51.9955 181.061 47.1623V47.1623ZM172.205 60.6078C170.83 65.1853 167.689 68.0028 163.038 69.1945C161.563 69.5614 160.048 69.7441 158.528 69.7384H152.159C151.878 69.7384 151.713 69.6712 151.744 69.3473C151.753 69.2008 151.753 69.0538 151.744 68.9073V54.8507C151.744 50.1692 151.744 45.4837 151.744 40.7941C151.744 39.9629 151.628 40.0301 152.532 40.0301C154.647 40.0301 156.755 40.0301 158.87 40.0301C160.625 40.0357 162.367 40.3183 164.034 40.8674C165.951 41.454 167.693 42.5077 169.102 43.934C170.511 45.3603 171.544 47.1143 172.107 49.0386C173.334 52.8007 173.368 56.85 172.205 60.6322V60.6078Z" fill="#F5E631"/>
<path d="M129.198 47.5168C129.198 51.9049 129.198 56.293 129.198 60.6811C129.242 63.3264 128.697 65.9483 127.603 68.3572C126.067 71.7643 123.33 74.4861 119.915 76.0028C117.2 77.2741 114.247 77.9574 111.249 78.008C108.252 78.0585 105.277 77.4752 102.521 76.2962C97.3324 74.1449 94.3255 70.1235 93.201 64.6842C92.9237 63.2754 92.7926 61.8418 92.8099 60.4061V33.2218C92.8099 32.3234 92.706 32.4273 93.6349 32.4273H101.488C101.721 32.4273 101.849 32.4946 101.837 32.7513C101.824 33.0079 101.837 33.0874 101.837 33.2524V60.0822C101.811 61.3697 101.972 62.6541 102.313 63.8958C102.652 65.235 103.356 66.4538 104.346 67.4164C105.337 68.379 106.575 69.0475 107.924 69.3473C109.978 69.8925 112.141 69.8778 114.188 69.3045C117.244 68.455 119.077 66.3832 119.792 63.3091C120.019 62.2345 120.122 61.1374 120.098 60.0394C120.098 51.1165 120.098 42.1936 120.098 33.2707C120.098 32.3418 119.988 32.4273 120.941 32.4273H128.856C129.1 32.4273 129.21 32.5129 129.198 32.7574C129.186 33.0018 129.198 33.0935 129.198 33.2646V47.5168Z" fill="#F5E631"/>
<path d="M193.822 54.924V33.1607C193.822 32.2745 193.742 32.3784 194.598 32.3784H219.228C220.102 32.3784 219.991 32.2929 219.998 33.1607C219.998 35.1225 219.998 37.0844 219.998 39.0462C219.998 39.7918 220.089 39.7368 219.331 39.7368H204.499C204.077 39.7368 203.655 39.7368 203.234 39.7368C202.952 39.7368 202.861 39.8407 202.867 40.1096C202.867 40.6107 202.867 41.118 202.867 41.6252V50.2914C202.867 50.4381 202.867 50.5909 202.867 50.7376C202.867 50.8842 202.934 51.0126 203.124 51.0065H217.333C218.072 51.0065 218.048 50.872 218.048 51.7154C218.048 53.6345 218.048 55.5535 218.048 57.4725C218.048 57.6192 218.048 57.7659 218.048 57.9126C218.048 58.0592 217.932 58.212 217.73 58.1998C217.529 58.1876 217.388 58.1998 217.223 58.1998H203.6C202.818 58.1998 202.885 58.1081 202.885 58.9026V69.4084C202.885 69.5551 202.885 69.7018 202.885 69.8484C202.885 69.9951 202.983 70.1112 203.16 70.1051H219.246C220.089 70.1051 219.998 70.0196 219.998 70.8385V76.7851C219.998 77.5062 220.077 77.4512 219.307 77.4512H194.164C193.932 77.4512 193.803 77.384 193.822 77.1273C193.822 76.9623 193.822 76.7912 193.822 76.6201V54.924Z" fill="#F5E631"/>
<path d="M94.0676 115.75L93.6076 105.69H96.4676L95.9876 115.75H94.0676ZM94.9876 120.57C94.5343 120.57 94.1476 120.417 93.8276 120.11C93.521 119.804 93.3676 119.43 93.3676 118.99C93.3676 118.55 93.521 118.177 93.8276 117.87C94.1476 117.55 94.5343 117.39 94.9876 117.39C95.4276 117.39 95.8076 117.55 96.1276 117.87C96.4476 118.177 96.6076 118.55 96.6076 118.99C96.6076 119.43 96.4476 119.804 96.1276 120.11C95.8076 120.417 95.4276 120.57 94.9876 120.57ZM108.513 120.41L107.553 117.57H102.093L101.133 120.41H98.1926L103.453 106.21H106.153L111.453 120.41H108.513ZM102.913 115.17H106.733L104.833 109.59H104.793L102.913 115.17ZM115.884 120.57C115.017 120.57 114.337 120.297 113.844 119.75C113.35 119.204 113.104 118.397 113.104 117.33V112.81H111.944V110.65H113.104V107.45L115.704 107.17V110.65H118.364V112.81H115.704V116.97C115.704 117.797 115.99 118.21 116.564 118.21C116.937 118.21 117.35 118.097 117.804 117.87L118.484 119.97C117.737 120.37 116.87 120.57 115.884 120.57ZM125.904 110.49C126.011 110.49 126.078 110.497 126.104 110.51V113.35C125.931 113.337 125.704 113.33 125.424 113.33C124.638 113.33 124.024 113.57 123.584 114.05C123.144 114.517 122.924 115.124 122.924 115.87V120.41H120.304V110.65H122.924V112.09H122.944C123.704 111.024 124.691 110.49 125.904 110.49ZM135.69 106.33L133.21 109.29H130.69L132.95 106.35L135.69 106.33ZM136.67 115.43C136.67 115.95 136.65 116.264 136.61 116.37H129.75C129.91 116.957 130.21 117.417 130.65 117.75C131.09 118.084 131.623 118.25 132.25 118.25C133.197 118.264 133.977 117.897 134.59 117.15L136.29 118.73C135.317 119.957 133.91 120.57 132.07 120.57C130.617 120.57 129.417 120.104 128.47 119.17C127.523 118.237 127.05 117.017 127.05 115.51C127.05 114.044 127.503 112.844 128.41 111.91C129.33 110.964 130.49 110.49 131.89 110.49C133.303 110.49 134.45 110.957 135.33 111.89C136.223 112.81 136.67 113.99 136.67 115.43ZM131.97 112.79C131.423 112.79 130.957 112.937 130.57 113.23C130.183 113.524 129.917 113.944 129.77 114.49H134.07C133.777 113.357 133.077 112.79 131.97 112.79ZM144.555 110.65H147.335L143.515 120.41H141.055L137.215 110.65H139.975L142.275 117.21H142.295L144.555 110.65ZM157.49 115.43C157.49 115.95 157.47 116.264 157.43 116.37H150.57C150.73 116.957 151.03 117.417 151.47 117.75C151.91 118.084 152.444 118.25 153.07 118.25C154.017 118.264 154.797 117.897 155.41 117.15L157.11 118.73C156.137 119.957 154.73 120.57 152.89 120.57C151.437 120.57 150.237 120.104 149.29 119.17C148.344 118.237 147.87 117.017 147.87 115.51C147.87 114.044 148.324 112.844 149.23 111.91C150.15 110.964 151.31 110.49 152.71 110.49C154.124 110.49 155.27 110.957 156.15 111.89C157.044 112.81 157.49 113.99 157.49 115.43ZM152.79 112.79C152.244 112.79 151.777 112.937 151.39 113.23C151.004 113.524 150.737 113.944 150.59 114.49H154.89C154.597 113.357 153.897 112.79 152.79 112.79ZM162.622 120.57C161.755 120.57 161.075 120.297 160.582 119.75C160.089 119.204 159.842 118.397 159.842 117.33V112.81H158.682V110.65H159.842V107.45L162.442 107.17V110.65H165.102V112.81H162.442V116.97C162.442 117.797 162.729 118.21 163.302 118.21C163.675 118.21 164.089 118.097 164.542 117.87L165.222 119.97C164.475 120.37 163.609 120.57 162.622 120.57ZM175.654 115.43C175.654 115.95 175.634 116.264 175.594 116.37H168.734C168.894 116.957 169.194 117.417 169.634 117.75C170.074 118.084 170.608 118.25 171.234 118.25C172.181 118.264 172.961 117.897 173.574 117.15L175.274 118.73C174.301 119.957 172.894 120.57 171.054 120.57C169.601 120.57 168.401 120.104 167.454 119.17C166.508 118.237 166.034 117.017 166.034 115.51C166.034 114.044 166.488 112.844 167.394 111.91C168.314 110.964 169.474 110.49 170.874 110.49C172.288 110.49 173.434 110.957 174.314 111.89C175.208 112.81 175.654 113.99 175.654 115.43ZM170.954 112.79C170.408 112.79 169.941 112.937 169.554 113.23C169.168 113.524 168.901 113.944 168.754 114.49H173.054C172.761 113.357 172.061 112.79 170.954 112.79ZM189.98 110.65H192.58V120.41H190.1V119.23H190.04C189.36 120.124 188.386 120.57 187.12 120.57C185.76 120.57 184.64 120.11 183.76 119.19C182.893 118.257 182.46 117.044 182.46 115.55C182.46 114.084 182.893 112.877 183.76 111.93C184.64 110.97 185.74 110.49 187.06 110.49C188.273 110.49 189.226 110.91 189.92 111.75H189.98V110.65ZM187.6 118.23C188.293 118.23 188.88 117.984 189.36 117.49C189.84 116.997 190.08 116.357 190.08 115.57C190.08 114.784 189.846 114.13 189.38 113.61C188.913 113.09 188.326 112.83 187.62 112.83C186.9 112.83 186.3 113.084 185.82 113.59C185.34 114.084 185.1 114.744 185.1 115.57C185.1 116.357 185.333 116.997 185.8 117.49C186.266 117.984 186.866 118.23 187.6 118.23ZM204.902 120.57C203.435 120.57 202.229 120.104 201.282 119.17C200.349 118.237 199.882 117.024 199.882 115.53C199.882 114.037 200.355 112.824 201.302 111.89C202.262 110.957 203.502 110.49 205.022 110.49C205.835 110.49 206.609 110.65 207.342 110.97C208.075 111.29 208.682 111.75 209.162 112.35L207.402 113.87C206.802 113.177 206.042 112.83 205.122 112.83C204.349 112.83 203.722 113.084 203.242 113.59C202.762 114.084 202.522 114.724 202.522 115.51C202.522 116.31 202.762 116.964 203.242 117.47C203.735 117.977 204.369 118.23 205.142 118.23C206.075 118.23 206.835 117.897 207.422 117.23L209.202 118.81C208.749 119.33 208.149 119.757 207.402 120.09C206.669 120.41 205.835 120.57 204.902 120.57ZM218.007 110.65H220.607V120.41H218.127V119.23H218.067C217.387 120.124 216.414 120.57 215.147 120.57C213.787 120.57 212.667 120.11 211.787 119.19C210.92 118.257 210.487 117.044 210.487 115.55C210.487 114.084 210.92 112.877 211.787 111.93C212.667 110.97 213.767 110.49 215.087 110.49C216.3 110.49 217.254 110.91 217.947 111.75H218.007V110.65ZM215.627 118.23C216.32 118.23 216.907 117.984 217.387 117.49C217.867 116.997 218.107 116.357 218.107 115.57C218.107 114.784 217.874 114.13 217.407 113.61C216.94 113.09 216.354 112.83 215.647 112.83C214.927 112.83 214.327 113.084 213.847 113.59C213.367 114.084 213.127 114.744 213.127 115.57C213.127 116.357 213.36 116.997 213.827 117.49C214.294 117.984 214.894 118.23 215.627 118.23ZM235.076 110.49C237.369 110.49 238.516 111.904 238.516 114.73V120.41H235.896V115.37C235.896 113.677 235.329 112.83 234.196 112.83C233.622 112.83 233.142 113.07 232.756 113.55C232.382 114.017 232.196 114.677 232.196 115.53V120.41H229.576V115.37C229.576 113.677 229.002 112.83 227.856 112.83C227.242 112.83 226.742 113.07 226.356 113.55C225.982 114.017 225.796 114.677 225.796 115.53V120.41H223.176V110.65H225.796V111.95H225.816C226.589 110.977 227.562 110.49 228.736 110.49C230.096 110.49 231.062 111.01 231.636 112.05H231.676C232.489 111.01 233.622 110.49 235.076 110.49ZM246.628 110.49C247.948 110.49 249.041 110.97 249.908 111.93C250.788 112.877 251.228 114.084 251.228 115.55C251.228 117.044 250.788 118.257 249.908 119.19C249.041 120.11 247.921 120.57 246.548 120.57C245.268 120.57 244.274 120.124 243.568 119.23H243.508V120.41H241.008V105.69H243.628V111.75H243.688C244.408 110.91 245.388 110.49 246.628 110.49ZM246.068 118.23C246.814 118.23 247.414 117.984 247.868 117.49C248.334 116.997 248.568 116.357 248.568 115.57C248.568 114.744 248.328 114.084 247.848 113.59C247.381 113.084 246.788 112.83 246.068 112.83C245.321 112.83 244.708 113.09 244.228 113.61C243.748 114.13 243.508 114.784 243.508 115.57C243.508 116.357 243.754 116.997 244.248 117.49C244.741 117.984 245.348 118.23 246.068 118.23ZM254.791 109.27C254.351 109.27 253.971 109.117 253.651 108.81C253.331 108.49 253.171 108.11 253.171 107.67C253.171 107.23 253.331 106.857 253.651 106.55C253.971 106.23 254.351 106.07 254.791 106.07C255.245 106.07 255.631 106.23 255.951 106.55C256.271 106.857 256.431 107.23 256.431 107.67C256.431 108.11 256.271 108.49 255.951 108.81C255.631 109.117 255.245 109.27 254.791 109.27ZM253.471 120.41V110.65H256.091V120.41H253.471ZM265.839 110.65H268.439V120.41H265.959V119.23H265.899C265.219 120.124 264.246 120.57 262.979 120.57C261.619 120.57 260.499 120.11 259.619 119.19C258.753 118.257 258.319 117.044 258.319 115.55C258.319 114.084 258.753 112.877 259.619 111.93C260.499 110.97 261.599 110.49 262.919 110.49C264.133 110.49 265.086 110.91 265.779 111.75H265.839V110.65ZM263.459 118.23C264.153 118.23 264.739 117.984 265.219 117.49C265.699 116.997 265.939 116.357 265.939 115.57C265.939 114.784 265.706 114.13 265.239 113.61C264.773 113.09 264.186 112.83 263.479 112.83C262.759 112.83 262.159 113.084 261.679 113.59C261.199 114.084 260.959 114.744 260.959 115.57C260.959 116.357 261.193 116.997 261.659 117.49C262.126 117.984 262.726 118.23 263.459 118.23ZM276.608 110.49C276.714 110.49 276.781 110.497 276.808 110.51V113.35C276.634 113.337 276.408 113.33 276.128 113.33C275.341 113.33 274.728 113.57 274.288 114.05C273.848 114.517 273.628 115.124 273.628 115.87V120.41H271.008V110.65H273.628V112.09H273.648C274.408 111.024 275.394 110.49 276.608 110.49ZM279.068 115.75L278.608 105.69H281.468L280.988 115.75H279.068ZM279.988 120.57C279.534 120.57 279.148 120.417 278.828 120.11C278.521 119.804 278.368 119.43 278.368 118.99C278.368 118.55 278.521 118.177 278.828 117.87C279.148 117.55 279.534 117.39 279.988 117.39C280.428 117.39 280.808 117.55 281.128 117.87C281.448 118.177 281.608 118.55 281.608 118.99C281.608 119.43 281.448 119.804 281.128 120.11C280.808 120.417 280.428 120.57 279.988 120.57Z" fill="white"/>
</svg>
