<svg width="62" height="62" viewBox="0 0 62 62" fill="none" xmlns="http://www.w3.org/2000/svg">
<path d="M28.9333 62C44.9128 62 57.8667 49.0461 57.8667 33.0667C57.8667 17.0872 44.9128 4.13333 28.9333 4.13333C12.9539 4.13333 0 17.0872 0 33.0667C0 49.0461 12.9539 62 28.9333 62Z" fill="#6BC13B"/>
<path d="M51.9253 50.6333C54.8189 46.8446 56.7319 42.3998 57.4941 37.6938C58.2564 32.9878 57.8445 28.1664 56.2948 23.658C54.7452 19.1496 52.1059 15.0937 48.6114 11.8509C45.1169 8.60802 40.8755 6.27858 36.2641 5.06953L28.9336 12.4V20.6667L35.1336 28.9333L43.4003 32.0333V37.2L39.2669 44.4333L45.4669 50.6333H51.9253Z" fill="#3B5892"/>
<path d="M49.6002 28.9333C56.4485 28.9333 62.0002 23.3817 62.0002 16.5333C62.0002 9.685 56.4485 4.13333 49.6002 4.13333C42.7519 4.13333 37.2002 9.685 37.2002 16.5333C37.2002 23.3817 42.7519 28.9333 49.6002 28.9333Z" fill="#F0AE42"/>
<path d="M29.9666 61.9814C29.6222 61.9938 29.2778 62 28.9333 62C23.6542 62.0002 18.4756 60.5559 13.9584 57.8238C9.44124 55.0916 5.75768 51.1757 3.30664 46.5H11.3666L17.5666 44.4333L23.7666 46.5V52.7L29.9666 54.7667V61.9814Z" fill="#3B5892"/>
<path d="M0.273438 29.0697C0.82417 25.117 2.1869 21.3209 4.27592 17.9204C6.36494 14.5198 9.13505 11.5883 12.412 9.31033L21.6996 17.5667V26.8667L25.8329 33.0667V38.2333H11.3663L8.26627 31H4.13294L0.273438 29.0697Z" fill="#3B5892"/>
<path d="M32.0333 33.0667H36.1667V39.2667L31 41.3333V37.2L32.0333 33.0667Z" fill="#3B5892"/>
<path d="M49.5998 25.8333C47.7604 25.8333 45.9624 25.2879 44.433 24.266C42.9036 23.2441 41.7116 21.7916 41.0077 20.0923C40.3038 18.3929 40.1197 16.523 40.4785 14.719C40.8373 12.915 41.7231 11.2579 43.0237 9.95723C44.3243 8.6566 45.9814 7.77087 47.7855 7.41202C49.5895 7.05318 51.4594 7.23735 53.1588 7.94125C54.8581 8.64514 56.3106 9.83715 57.3325 11.3665C58.3544 12.8959 58.8998 14.694 58.8998 16.5333C58.8971 18.999 57.9164 21.3629 56.1729 23.1064C54.4294 24.8499 52.0655 25.8306 49.5998 25.8333ZM49.5998 9.29999C48.1692 9.29999 46.7707 9.72422 45.5812 10.519C44.3917 11.3138 43.4646 12.4435 42.9171 13.7652C42.3696 15.087 42.2264 16.5414 42.5055 17.9445C42.7846 19.3476 43.4735 20.6365 44.4851 21.6481C45.4967 22.6597 46.7855 23.3486 48.1887 23.6277C49.5918 23.9068 51.0462 23.7635 52.3679 23.2161C53.6896 22.6686 54.8193 21.7415 55.6141 20.552C56.4089 19.3624 56.8331 17.9639 56.8331 16.5333C56.8307 14.6157 56.0678 12.7773 54.7118 11.4213C53.3559 10.0653 51.5175 9.30245 49.5998 9.29999Z" fill="#FCE797"/>
<path d="M49.6003 21.7C48.5784 21.7 47.5795 21.397 46.7298 20.8293C45.8802 20.2615 45.2179 19.4546 44.8269 18.5105C44.4358 17.5665 44.3335 16.5276 44.5329 15.5254C44.7322 14.5231 45.2243 13.6025 45.9469 12.88C46.6694 12.1574 47.5901 11.6653 48.5923 11.4659C49.5945 11.2666 50.6334 11.3689 51.5775 11.76C52.5215 12.151 53.3285 12.8132 53.8962 13.6629C54.4639 14.5125 54.7669 15.5115 54.7669 16.5333C54.7653 17.9031 54.2204 19.2163 53.2518 20.1849C52.2833 21.1535 50.97 21.6984 49.6003 21.7ZM49.6003 13.4333C48.9871 13.4333 48.3878 13.6151 47.878 13.9558C47.3682 14.2964 46.9709 14.7806 46.7362 15.347C46.5016 15.9135 46.4402 16.5368 46.5598 17.1381C46.6794 17.7395 46.9747 18.2918 47.4082 18.7254C47.8418 19.1589 48.3941 19.4542 48.9955 19.5738C49.5968 19.6934 50.2201 19.632 50.7866 19.3974C51.353 19.1627 51.8372 18.7654 52.1778 18.2556C52.5184 17.7458 52.7003 17.1465 52.7003 16.5333C52.7003 15.7112 52.3737 14.9227 51.7923 14.3413C51.2109 13.7599 50.4224 13.4333 49.6003 13.4333Z" fill="#FCE797"/>
<path d="M55.8004 6.2C55.8004 4.55566 55.1472 2.97866 53.9845 1.81594C52.8217 0.653212 51.2447 0 49.6004 0C47.956 0 46.3791 0.653212 45.2163 1.81594C44.0536 2.97866 43.4004 4.55566 43.4004 6.2C43.4007 8.20037 44.1161 10.1347 45.4175 11.6539L49.6004 16.5333L53.7833 11.6539C55.0847 10.1347 55.8001 8.20037 55.8004 6.2Z" fill="#B52F28"/>
<path d="M49.5999 7.23334C49.1911 7.23334 48.7916 7.11213 48.4517 6.88504C48.1118 6.65796 47.8469 6.33519 47.6905 5.95755C47.5341 5.57992 47.4932 5.16438 47.5729 4.76349C47.6527 4.36259 47.8495 3.99435 48.1385 3.70532C48.4275 3.41629 48.7958 3.21946 49.1967 3.13972C49.5976 3.05997 50.0131 3.1009 50.3907 3.25732C50.7684 3.41374 51.0912 3.67863 51.3182 4.0185C51.5453 4.35836 51.6665 4.75793 51.6665 5.16667C51.6665 5.71479 51.4488 6.24045 51.0612 6.62803C50.6737 7.0156 50.148 7.23334 49.5999 7.23334Z" fill="white"/>
</svg>
