<svg width="21" height="21" viewBox="0 0 21 21" fill="none" xmlns="http://www.w3.org/2000/svg">
<path d="M19.1543 0H1.8457C0.827982 0 0 0.827982 0 1.8457V15.3809C0 16.3986 0.827982 17.2266 1.8457 17.2266H7.20247L10.0166 20.7676C10.1334 20.9144 10.3107 21 10.4983 21C10.6858 21 10.8632 20.9144 10.9799 20.7676L13.7941 17.2266H19.1543C20.172 17.2266 21 16.3986 21 15.3809V1.8457C21 0.827982 20.172 0 19.1543 0ZM19.7695 15.3809C19.7695 15.7201 19.4935 15.9961 19.1543 15.9961H13.4972C13.3097 15.9961 13.1323 16.0817 13.0156 16.2285L10.4983 19.396L7.98103 16.2285C7.8643 16.0817 7.68694 15.9961 7.49938 15.9961H1.8457C1.50646 15.9961 1.23047 15.7201 1.23047 15.3809V1.8457C1.23047 1.50646 1.50646 1.23047 1.8457 1.23047H19.1543C19.4935 1.23047 19.7695 1.50646 19.7695 1.8457V15.3809Z" fill="white"/>
<path d="M6.48047 3.19573H3.07617C2.7364 3.19573 2.46094 3.47119 2.46094 3.81097V7.21526C2.46094 7.55504 2.7364 7.8305 3.07617 7.8305H6.48047C6.82024 7.8305 7.0957 7.55504 7.0957 7.21526V3.81097C7.0957 3.47119 6.82024 3.19573 6.48047 3.19573ZM5.86523 6.60003H3.69141V4.4262H5.86523V6.60003Z" fill="white"/>
<path d="M17.9238 6.19685H8.94141C8.60163 6.19685 8.32617 6.47231 8.32617 6.81208C8.32617 7.15185 8.60163 7.42731 8.94141 7.42731H17.9238C18.2636 7.42731 18.5391 7.15185 18.5391 6.81208C18.5391 6.47231 18.2636 6.19685 17.9238 6.19685Z" fill="white"/>
<path d="M8.94141 4.82938H13.1372C13.477 4.82938 13.7525 4.55392 13.7525 4.21415C13.7525 3.87438 13.477 3.59892 13.1372 3.59892H8.94141C8.60163 3.59892 8.32617 3.87438 8.32617 4.21415C8.32617 4.55392 8.60163 4.82938 8.94141 4.82938Z" fill="white"/>
<path d="M17.9238 12.3972H8.94141C8.60163 12.3972 8.32617 12.6727 8.32617 13.0125C8.32617 13.3522 8.60163 13.6277 8.94141 13.6277H17.9238C18.2636 13.6277 18.5391 13.3522 18.5391 13.0125C18.5391 12.6727 18.2636 12.3972 17.9238 12.3972Z" fill="white"/>
<path d="M8.94141 11.0297H13.1372C13.477 11.0297 13.7525 10.7543 13.7525 10.4145C13.7525 10.0747 13.477 9.79925 13.1372 9.79925H8.94141C8.60163 9.79925 8.32617 10.0747 8.32617 10.4145C8.32617 10.7543 8.60163 11.0297 8.94141 11.0297Z" fill="white"/>
<path d="M6.02577 10.1047L4.11346 12.017L3.51119 11.4148C3.27096 11.1746 2.88139 11.1746 2.64112 11.4148C2.40085 11.6551 2.4009 12.0446 2.64112 12.2849L3.67841 13.3221C3.79854 13.4423 3.956 13.5023 4.11342 13.5023C4.27084 13.5023 4.42834 13.4423 4.54843 13.3221L6.89576 10.9748C7.13603 10.7346 7.13603 10.345 6.89576 10.1047C6.65561 9.8645 6.266 9.8645 6.02577 10.1047Z" fill="white"/>
</svg>
