<svg width="20" height="20" viewBox="0 0 20 20" fill="none" xmlns="http://www.w3.org/2000/svg">
<path fill-rule="evenodd" clip-rule="evenodd" d="M19.0189 19.004C18.3517 19.668 17.4341 20 16.5997 20C15.8492 20 15.0148 19.668 14.4308 19.0872L12.846 17.5096C11.7619 18.008 10.5107 18.2568 9.17626 18.2568C4.08731 18.2568 0 14.1904 0 9.128C0 6.7216 0.917626 4.3984 2.66968 2.6552C4.42172 0.9128 6.75699 0 9.09226 0C14.1812 0 18.2685 4.0664 18.2685 9.128C18.2685 10.456 18.0181 11.6176 17.5173 12.7792L19.1021 14.3568C20.3534 15.6016 20.2702 17.5936 19.0189 19.004ZM9.17626 1.66C7.1738 1.66 5.25535 2.4064 3.83771 3.8176C2.41927 5.228 1.66885 7.1368 1.66885 9.128C1.66885 13.2776 5.00494 16.5968 9.17626 16.5968C13.3468 16.5968 16.6837 13.2776 16.6837 9.128C16.6837 4.9792 13.3468 1.66 9.17626 1.66ZM17.9349 15.5184L16.6837 14.2736C16.0997 15.1864 15.2652 15.9336 14.3476 16.5968L15.5988 17.8424C16.1829 18.4232 17.1837 18.4232 17.8509 17.7592C18.5189 17.0952 18.5189 16.0992 17.9349 15.5184ZM10.4275 5.1448C9.34266 4.8128 8.25863 4.9792 7.2578 5.4768C6.25618 6.0584 5.58896 6.8872 5.25535 7.9672C5.08894 8.2984 4.75533 8.548 4.42172 8.548C4.33772 8.548 4.25452 8.548 4.17132 8.548C3.6705 8.4648 3.4201 7.9672 3.5873 7.552C4.00411 6.0584 5.00494 4.8128 6.34018 4.0664C7.67462 3.32 9.25946 3.1536 10.7611 3.568C11.2611 3.6512 11.5115 4.1496 11.4283 4.564C11.3451 4.9792 10.8443 5.3104 10.4275 5.1448Z" fill="#C1C1C1"/>
</svg>
