<svg width="114" height="216" viewBox="0 0 114 216" fill="none" xmlns="http://www.w3.org/2000/svg">
<path fill-rule="evenodd" clip-rule="evenodd" d="M1.60104 146.242L58.8383 161.109L63.7154 153.656L0.0178528 136.588L1.60104 146.242Z" fill="#0254A8"/>
<path fill-rule="evenodd" clip-rule="evenodd" d="M51.3089 165.772L4.13415 153.471C4.36462 170.413 4.90255 205.988 5.71734 224.966C5.90423 229.456 6.8139 232.07 8.14772 233.288C8.46383 233.583 8.86665 233.768 9.29632 233.815C10.3613 233.87 11.4262 233.706 12.4254 233.334C14.0428 232.798 15.5361 231.943 16.8165 230.819C18.0968 229.695 19.1382 228.325 19.8786 226.791C24.3448 216.467 42.7698 181.704 51.2809 165.764L51.3089 165.772Z" fill="#0254A8"/>
<path d="M78.3763 50.013C79.0541 51.7236 79.3734 53.5553 79.3143 55.3944C80.6868 53.7934 81.6301 51.87 82.0558 49.8047C82.4815 47.7393 82.3757 45.5997 81.7483 43.5864C79.326 35.7573 71.9717 37.1168 66.3688 29.2154C66.1927 44.2784 75.0322 41.9669 78.3763 50.013Z" fill="#CC2626"/>
<path d="M92.9527 103.209C93.5566 100.099 93.8578 96.9382 93.8519 93.7701C93.6285 84.7246 91.1528 75.8775 86.6488 68.0298C86.9749 70.8534 86.4632 73.7106 85.1774 76.2456C83.0536 80.0666 80.5238 80.9988 80.5238 80.9988C81.2763 76.5764 80.7605 72.0313 79.0362 67.89C68.4068 42.4716 43.4059 43.7427 47.1578 6.93758C47.1578 6.93758 34.7449 14.9717 29.3877 22.6864C24.0306 30.401 18.0656 41.6529 21.3636 63.3068C21.4117 63.6497 21.4623 63.9833 21.4961 64.3423L21.5565 64.7885C21.5769 64.974 21.6022 65.1408 21.6275 65.3075L21.7402 66.2678C21.7722 66.5963 21.8091 66.9062 21.8368 67.2136C21.8762 67.5142 21.8945 67.8191 21.9222 68.1265C21.9523 68.4246 21.9731 68.7202 21.9914 69.0251C22.0097 69.33 22.0237 69.6138 22.0376 69.8975L22.0516 70.1812L22.068 71.0157C22.0727 71.2969 22.068 71.5756 22.0776 71.8382L22.0736 72.6371C22.0739 72.8972 22.0555 73.1523 22.0558 73.4124C22.0561 73.6725 22.0284 73.9251 22.0126 74.1708C21.9967 74.4166 21.9877 74.6742 21.9744 74.9106C21.961 75.147 21.9334 75.3996 21.9107 75.6336C21.8507 75.8575 21.8771 76.0946 21.8451 76.326C21.8131 76.5574 21.7836 76.7795 21.7634 77.0041C21.7433 77.2287 21.6459 77.4426 21.6656 77.6679C21.6852 77.8932 21.5997 78.1003 21.5634 78.3105C21.527 78.5208 21.4534 78.7211 21.4009 78.917L21.2409 79.5141C21.1884 79.7101 21.1359 79.906 21.0859 80.0926L20.9334 80.6617C20.8834 80.8483 20.8359 81.0256 20.7884 81.2029L20.6459 81.7347C20.5984 81.912 20.5534 82.0799 20.5084 82.2479C20.4634 82.4158 20.3692 82.5806 20.3081 82.7342C20.2469 82.8878 20.2206 83.0608 20.1127 83.2019C20.0049 83.343 19.9718 83.5041 19.8944 83.6434C19.8171 83.7827 19.756 83.9363 19.6786 84.0756L19.4492 84.4841L19.229 85.4551L18.9815 85.8188C18.9033 85.9407 18.8184 86.0582 18.7273 86.1707C18.6456 86.2888 18.5664 86.3976 18.478 86.5039C18.3895 86.6102 18.2917 86.714 18.215 86.8135L17.9452 87.1112C17.8593 87.2081 17.7665 87.2933 17.6711 87.3877L17.3927 87.6431L17.0981 87.8842L16.8085 88.1066L16.5052 88.3053C16.403 88.3696 16.2972 88.4281 16.1883 88.4804L15.8832 88.6487L15.5738 88.7958L15.2508 88.9192L14.9233 89.0215C14.8183 89.0628 14.7095 89.0939 14.5984 89.1144L14.2692 89.1862L13.9356 89.2368C13.8232 89.2577 13.7095 89.2707 13.5952 89.2756L13.2598 89.2958L12.9201 89.2947L12.576 89.2725L12.237 89.2317L11.8918 89.1392L11.2013 88.9542L10.8468 88.8592L10.4922 88.7642L10.1284 88.6667L9.77948 88.5132L9.42877 88.3292L9.08057 88.1359L8.74668 87.9265L8.42464 87.7102L8.12375 87.4895L7.83718 87.2528L7.56928 87.021L7.32505 86.7755C7.2409 86.7004 7.16238 86.6192 7.09014 86.5326L6.85775 86.2803C6.63717 86.0212 6.43775 85.7578 6.25016 85.4875C6.20286 85.3964 6.14955 85.3087 6.09057 85.2247L5.92414 84.9501L5.77887 84.6712C5.73054 84.5829 5.68824 84.4913 5.65227 84.3973C5.5375 84.1165 5.43206 83.8383 5.34278 83.5743C5.30691 83.475 5.27731 83.3736 5.25416 83.2706C5.16982 82.9978 5.10405 82.7195 5.0573 82.4378L5.0035 82.1534L4.98184 82.0476C4.99685 81.9916 5.01185 81.9357 4.96404 81.8528L4.92207 81.5616L4.9081 81.2778L4.9256 81.2125L4.9153 80.9898C4.89815 80.7159 4.89493 80.4414 4.9057 80.1672C4.9282 80.0832 4.9507 79.9992 4.90789 79.8978L4.92789 79.8231C4.98543 78.7989 5.1438 77.7829 5.40068 76.7898L5.63818 75.9034C5.70318 75.6608 5.76068 75.4462 5.81568 75.241L5.85318 75.101L5.95819 74.7091L5.99069 74.5878C6.01569 74.4945 6.04067 74.4012 6.10482 74.3484L6.13233 74.2458L6.20733 73.9659C2.02249 78.2443 -1.02322 83.5034 -2.65141 89.2624L-2.79392 89.7942C-3.34235 91.849 -3.69466 93.9511 -3.84613 96.0724C-4.64614 106.858 -0.254254 117.525 7.74556 125.849C11.6439 129.88 16.1938 133.226 21.2041 135.745C21.5243 135.931 21.8613 136.091 22.1984 136.251C23.1908 133.232 24.9178 130.505 27.2242 128.318C27.7824 127.727 30.2098 126.058 32.6153 127.082C35.0208 128.107 40.3259 131.148 42.0598 130.313C42.0598 130.313 44.3158 129.918 44.5696 126.806C44.5846 126.509 44.5637 126.211 44.5072 125.919C44.4332 125.652 44.4548 125.368 44.5681 125.115C44.6814 124.862 44.8795 124.657 45.128 124.535C45.4939 124.431 45.8663 124.35 46.2427 124.294C46.5227 124.173 46.7647 123.979 46.9433 123.732C47.3946 123.092 47.3887 121.771 45.4335 120.857C45.4335 120.857 48.1172 120.806 48.6501 120.049C48.8658 119.773 48.9948 119.439 49.0207 119.09C49.0466 118.741 48.9682 118.392 48.7956 118.088C48.5 117.549 48.0093 115.797 49.7223 115.786C49.7223 115.786 52.1967 115.919 52.8655 114.468C53.5342 113.017 53.2905 112.882 52.6824 111.419C52.0744 109.956 50.6709 107.73 50.3675 106.959C50.0642 106.188 49.0152 103.496 49.7265 101.887C50.2303 100.918 50.6307 99.8995 50.9211 98.847C51.0363 98.2948 51.0734 97.7291 51.0313 97.1666C50.9991 96.5779 50.9332 95.4802 50.783 94.1C50.4017 90.8578 49.4848 86.032 46.9934 82.4544C45.9045 80.8827 48.0241 79.5406 40.3417 74.7721L45.7269 74.305C47.8068 74.1059 49.9034 74.1672 51.9682 74.4873C65.5903 76.6073 71.6707 83.2866 73.0584 86.7285C74.4462 90.1704 72.9988 92.3626 72.9988 92.3626C73.5406 94.2085 73.7221 96.1414 73.5333 98.0559C73.243 100.293 72.2905 102.392 70.7983 104.083C70.2777 104.944 70.856 107.899 71.8812 111.723C72.9063 115.548 72.3629 116.793 71.4517 117.058C70.5404 117.324 69.8526 116.98 68.7365 116.891C68.5463 116.878 68.3554 116.903 68.1749 116.965C67.9944 117.026 67.828 117.123 67.6852 117.249C67.5425 117.376 67.4263 117.529 67.3434 117.701C67.2605 117.873 67.2126 118.059 67.2024 118.25C67.1688 118.711 67.617 119.651 67.2319 120.118C66.8468 120.585 64.7629 121.196 64.7629 121.196C64.7629 121.196 65.6059 121.782 65.6325 122.429C65.6864 122.851 65.5995 123.279 65.3853 123.647C65.1711 124.014 64.8416 124.301 64.4479 124.462C63.5473 124.65 63.0559 125.029 63.3993 126.621C63.7428 128.213 63.3323 130.603 61.7892 131.66C60.2461 132.716 57.3361 131.596 55.6717 131.09C50.8631 129.592 43.0919 138.18 37.3008 140.908C39.2224 141.204 41.1594 141.389 43.1023 141.463L43.4755 141.563C46.6553 141.685 49.8395 141.5 52.9836 141.01C61.0682 139.928 68.6989 136.641 75.0395 131.51C83.4977 125.019 89.5702 115.911 92.3102 105.607C92.563 104.925 92.7669 104.09 92.9527 103.209Z" fill="#CC2626"/>
</svg>
