<svg width="375" height="812" viewBox="0 0 375 812" fill="none" xmlns="http://www.w3.org/2000/svg">
<g clip-path="url(#clip0_100_305)">
<rect width="375" height="812" fill="white"/>
<path fill-rule="evenodd" clip-rule="evenodd" d="M1.60101 737.72L58.8382 752.587L63.7154 745.134L0.0178223 728.066L1.60101 737.72Z" fill="#0254A8"/>
<path fill-rule="evenodd" clip-rule="evenodd" d="M51.3088 757.249L4.13412 744.949C4.36459 761.891 4.90252 797.465 5.71731 816.444C5.9042 820.934 6.81387 823.548 8.14768 824.765C8.4638 825.06 8.86661 825.245 9.29629 825.293C10.3613 825.348 11.4262 825.184 12.4254 824.812C14.0428 824.276 15.536 823.421 16.8164 822.297C18.0968 821.173 19.1381 819.803 19.8786 818.269C24.3448 807.945 42.7698 773.182 51.2808 757.242L51.3088 757.249Z" fill="#0254A8"/>
<path d="M78.3763 641.491C79.0542 643.201 79.3735 645.033 79.3144 646.872C80.6868 645.271 81.6301 643.348 82.0558 641.282C82.4815 639.217 82.3757 637.077 81.7483 635.064C79.326 627.235 71.9717 628.594 66.3688 620.693C66.1927 635.756 75.0322 633.445 78.3763 641.491Z" fill="#CC2626"/>
<path d="M92.9527 694.687C93.5566 691.577 93.8578 688.416 93.8519 685.248C93.6285 676.202 91.1527 667.355 86.6488 659.507C86.9749 662.331 86.4632 665.188 85.1774 667.723C83.0536 671.544 80.5238 672.476 80.5238 672.476C81.2763 668.054 80.7605 663.509 79.0362 659.368C68.4068 633.949 43.4059 635.22 47.1578 598.415C47.1578 598.415 34.7449 606.449 29.3877 614.164C24.0306 621.879 18.0656 633.131 21.3636 654.784C21.4117 655.127 21.4623 655.461 21.4961 655.82L21.5565 656.266C21.5768 656.452 21.6022 656.618 21.6275 656.785L21.7402 657.745C21.7721 658.074 21.8091 658.384 21.8367 658.691C21.8762 658.992 21.8945 659.297 21.9221 659.604C21.9523 659.902 21.9731 660.198 21.9914 660.503C22.0097 660.808 22.0236 661.091 22.0376 661.375L22.0516 661.659L22.068 662.493C22.0726 662.775 22.068 663.053 22.0776 663.316L22.0735 664.115C22.0738 664.375 22.0555 664.63 22.0558 664.89C22.0561 665.15 22.0284 665.403 22.0126 665.649C21.9967 665.894 21.9877 666.152 21.9744 666.388C21.961 666.625 21.9333 666.877 21.9107 667.111C21.8507 667.335 21.8771 667.572 21.8451 667.804C21.8131 668.035 21.7836 668.257 21.7634 668.482C21.7432 668.706 21.6459 668.92 21.6656 669.146C21.6852 669.371 21.5997 669.578 21.5634 669.788C21.527 669.998 21.4534 670.199 21.4009 670.395L21.2409 670.992C21.1884 671.188 21.1359 671.384 21.0859 671.57L20.9334 672.139C20.8834 672.326 20.8359 672.503 20.7884 672.681L20.6459 673.212C20.5984 673.39 20.5534 673.558 20.5084 673.726C20.4634 673.893 20.3692 674.058 20.308 674.212C20.2469 674.365 20.2205 674.538 20.1127 674.68C20.0049 674.821 19.9717 674.982 19.8944 675.121C19.8171 675.26 19.7559 675.414 19.6786 675.553L19.4492 675.962L19.229 676.933L18.9815 677.296C18.9033 677.418 18.8184 677.536 18.7272 677.648C18.6456 677.766 18.5664 677.875 18.478 677.982C18.3895 678.088 18.2917 678.192 18.215 678.291L17.9452 678.589C17.8593 678.686 17.7664 678.771 17.6711 678.865L17.3927 679.121L17.0981 679.362L16.8085 679.584L16.5052 679.783C16.403 679.847 16.2972 679.906 16.1883 679.958L15.8832 680.126L15.5738 680.273L15.2507 680.397L14.9233 680.499C14.8182 680.54 14.7095 680.572 14.5984 680.592L14.2692 680.664L13.9356 680.714C13.8232 680.735 13.7095 680.748 13.5952 680.753L13.2598 680.773L12.9201 680.772L12.576 680.75L12.237 680.709L11.8918 680.617L11.2013 680.432L10.8468 680.337L10.4922 680.242L10.1283 680.144L9.77946 679.991L9.42876 679.807L9.08056 679.614L8.74666 679.404L8.42462 679.188L8.12373 678.967L7.83717 678.73L7.56927 678.499L7.32504 678.253C7.24088 678.178 7.16236 678.097 7.09013 678.01L6.85773 677.758C6.63715 677.499 6.43773 677.235 6.25015 676.965C6.20285 676.874 6.14953 676.786 6.09056 676.702L5.92413 676.428L5.77886 676.149C5.73052 676.061 5.68823 675.969 5.65226 675.875C5.53748 675.594 5.43204 675.316 5.34276 675.052C5.30689 674.953 5.2773 674.851 5.25415 674.748C5.16981 674.475 5.10404 674.197 5.05728 673.915L5.00349 673.631L4.98183 673.525C4.99683 673.469 5.01184 673.413 4.96403 673.331L4.92206 673.039L4.90809 672.756L4.92559 672.69L4.91529 672.467C4.89813 672.194 4.89492 671.919 4.90568 671.645C4.92818 671.561 4.95069 671.477 4.90788 671.375L4.92788 671.301C4.98542 670.277 5.14378 669.261 5.40066 668.267L5.63817 667.381C5.70317 667.138 5.76067 666.924 5.81567 666.719L5.85317 666.579L5.95817 666.187L5.99067 666.065C6.01567 665.972 6.04066 665.879 6.10481 665.826L6.13231 665.723L6.20731 665.444C2.02248 669.722 -1.02323 674.981 -2.65143 680.74L-2.79393 681.272C-3.34236 683.327 -3.69468 685.429 -3.84614 687.55C-4.64616 698.336 -0.254269 709.003 7.74555 717.326C11.6439 721.358 16.1938 724.703 21.204 727.223C21.5243 727.408 21.8613 727.569 22.1984 727.729C23.1908 724.709 24.9178 721.983 27.2242 719.796C27.7824 719.205 30.2098 717.536 32.6153 718.56C35.0208 719.585 40.3259 722.626 42.0597 721.791C42.0597 721.791 44.3158 721.395 44.5696 718.283C44.5846 717.986 44.5636 717.688 44.5072 717.396C44.4332 717.13 44.4547 716.845 44.5681 716.593C44.6814 716.34 44.8795 716.135 45.128 716.013C45.4939 715.908 45.8663 715.828 46.2426 715.771C46.5226 715.651 46.7647 715.456 46.9433 715.209C47.3946 714.57 47.3887 713.248 45.4335 712.335C45.4335 712.335 48.1172 712.284 48.6501 711.526C48.8658 711.251 48.9948 710.917 49.0207 710.568C49.0466 710.219 48.9682 709.87 48.7955 709.565C48.5 709.026 48.0093 707.275 49.7223 707.264C49.7223 707.264 52.1967 707.397 52.8654 705.946C53.5342 704.495 53.2904 704.36 52.6824 702.897C52.0744 701.434 50.6708 699.208 50.3675 698.436C50.0642 697.665 49.0152 694.974 49.7265 693.365C50.2303 692.396 50.6307 691.377 50.921 690.325C51.0363 689.772 51.0734 689.207 51.0313 688.644C50.9991 688.056 50.9332 686.958 50.783 685.578C50.4017 682.335 49.4848 677.51 46.9933 673.932C45.9045 672.36 48.0241 671.018 40.3417 666.25L45.7269 665.783C47.8068 665.584 49.9034 665.645 51.9681 665.965C65.5902 668.085 71.6707 674.764 73.0584 678.206C74.4462 681.648 72.9988 683.84 72.9988 683.84C73.5406 685.686 73.7221 687.619 73.5333 689.534C73.243 691.77 72.2905 693.869 70.7983 695.561C70.2777 696.421 70.8559 699.376 71.8811 703.201C72.9063 707.026 72.3629 708.27 71.4516 708.536C70.5404 708.802 69.8526 708.458 68.7365 708.368C68.5462 708.356 68.3553 708.381 68.1749 708.442C67.9944 708.504 67.8279 708.601 67.6852 708.727C67.5425 708.854 67.4263 709.007 67.3434 709.179C67.2605 709.351 67.2126 709.537 67.2024 709.727C67.1688 710.188 67.6169 711.129 67.2319 711.595C66.8468 712.062 64.7628 712.674 64.7628 712.674C64.7628 712.674 65.6059 713.26 65.6325 713.907C65.6863 714.329 65.5994 714.757 65.3852 715.124C65.171 715.492 64.8415 715.778 64.4478 715.939C63.5473 716.128 63.0559 716.507 63.3993 718.099C63.7427 719.691 63.3323 722.081 61.7892 723.137C60.2461 724.194 57.3361 723.074 55.6717 722.568C50.8631 721.07 43.0919 729.657 37.3008 732.386C39.2224 732.682 41.1594 732.867 43.1023 732.94L43.4755 733.04C46.6553 733.163 49.8395 732.978 52.9836 732.488C61.0682 731.406 68.6989 728.119 75.0395 722.988C83.4977 716.496 89.5702 707.389 92.3102 697.085C92.563 696.403 92.7669 695.567 92.9527 694.687Z" fill="#CC2626"/>
</g>
<defs>
<clipPath id="clip0_100_305">
<rect width="375" height="812" fill="white"/>
</clipPath>
</defs>
</svg>
