<svg width="58" height="138" viewBox="0 0 58 138" fill="none" xmlns="http://www.w3.org/2000/svg">
<path fill-rule="evenodd" clip-rule="evenodd" d="M11.3633 88.1995L47.0017 87.9259L48.6783 82.8264H8.93579L11.3633 88.1995Z" fill="#0254A8"/>
<path fill-rule="evenodd" clip-rule="evenodd" d="M43.3459 91.8146L13.9655 92.0125C16.7422 101.839 22.6044 122.464 26.039 133.385C26.8481 135.97 27.7854 137.349 28.7517 137.85C28.9817 137.972 29.2451 138.017 29.5027 137.978C30.1312 137.844 30.7256 137.582 31.2491 137.21C32.1071 136.646 32.843 135.915 33.413 135.061C33.9831 134.207 34.3756 133.247 34.5673 132.238C35.5569 125.532 40.8602 102.421 43.3284 91.8146H43.3459Z" fill="#0254A8"/>
<path d="M41.0465 20.206C41.7079 21.0961 42.1795 22.1125 42.4319 23.1923C42.9811 22.0463 43.2303 20.7795 43.1559 19.5108C43.0816 18.2421 42.6863 17.013 42.007 15.9389C39.3757 11.7592 35.3066 13.6977 30.8125 9.97202C33.0595 18.7681 37.8447 16.0437 41.0465 20.206Z" fill="#CC2626"/>
<path d="M57.8295 48.8995C57.6959 46.9949 57.3782 45.1077 56.8806 43.2644C55.3396 38.0336 52.5184 33.2696 48.6725 29.4037C49.3027 30.9966 49.4505 32.7397 49.0974 34.4159C48.4571 36.9715 47.1298 37.9087 47.1298 37.9087C46.878 35.217 45.8688 32.6516 44.2191 30.5098C34.0666 17.371 19.7112 22.0106 16.1543 0C16.1543 0 10.1816 6.61307 8.26634 11.9396C6.35111 17.2662 4.63381 24.7466 9.93125 36.8376C10.0128 37.0297 10.0943 37.216 10.1699 37.4197L10.2747 37.6701C10.3155 37.7749 10.3562 37.868 10.397 37.9611L10.6124 38.5025C10.6822 38.6888 10.7521 38.8634 10.8161 39.0381C10.886 39.2069 10.9442 39.3815 11.0082 39.5562C11.0722 39.725 11.1305 39.8938 11.1887 40.0685C11.2469 40.2431 11.2993 40.4061 11.3517 40.5691L11.4041 40.7321L11.5438 41.2153C11.5903 41.3783 11.6311 41.5413 11.6777 41.6926L11.7999 42.1583C11.8407 42.3097 11.8698 42.4611 11.9105 42.6124C11.9513 42.7638 11.9746 42.9151 12.0037 43.0607C12.0328 43.2062 12.0677 43.3575 12.0968 43.4973C12.1259 43.637 12.1492 43.7883 12.1725 43.928C12.1725 44.0678 12.2249 44.2016 12.2423 44.3414C12.2598 44.4811 12.2773 44.615 12.3006 44.7488C12.3238 44.8827 12.3006 45.0225 12.3471 45.1505C12.3937 45.2786 12.3762 45.4125 12.3879 45.5406C12.3995 45.6686 12.3879 45.7967 12.3879 45.9189V46.2915C12.3879 46.4138 12.3879 46.536 12.3879 46.6524V47.0075C12.3879 47.124 12.3879 47.2346 12.3879 47.3452V47.677C12.3879 47.7876 12.3879 47.8924 12.3879 47.9972C12.3879 48.102 12.3588 48.2126 12.3471 48.3115C12.3355 48.4105 12.3471 48.5153 12.3064 48.6142C12.2656 48.7132 12.2714 48.8122 12.2482 48.9053C12.2249 48.9984 12.2132 49.0974 12.1899 49.1906L12.1201 49.4642L12.1434 50.0638L12.0561 50.3141C12.0295 50.3972 11.9984 50.4788 11.9629 50.5586C11.9338 50.6401 11.9047 50.7158 11.8698 50.7914C11.8348 50.8671 11.7941 50.9428 11.765 51.0126L11.6544 51.228C11.6195 51.2979 11.5787 51.3619 11.538 51.4318L11.4157 51.6239L11.2818 51.8102L11.1479 51.9848L11.0024 52.1478C10.9529 52.2012 10.9004 52.2517 10.8452 52.2992L10.6938 52.4447L10.5367 52.5786L10.3679 52.7008L10.1932 52.8114C10.1385 52.8519 10.08 52.887 10.0186 52.9162L9.83811 53.0094L9.65183 53.0909C9.58965 53.1206 9.52546 53.1459 9.45972 53.1666L9.26762 53.2306L9.06969 53.283L8.86594 53.3237L8.6622 53.3528H8.4468H8.01603H7.79481H7.5736H7.34656L7.11953 53.3179L6.88668 53.2655L6.65383 53.2073L6.42679 53.1374L6.20558 53.0618L5.99601 52.9803L5.79226 52.8871L5.60015 52.794L5.41969 52.6892C5.35899 52.6586 5.30061 52.6236 5.24505 52.5844L5.07042 52.4738C4.9016 52.3574 4.74441 52.2351 4.59306 52.1071C4.55132 52.0614 4.5066 52.0187 4.45917 51.979V51.979L4.31945 51.8451L4.19138 51.7054C4.14947 51.6615 4.11057 51.6148 4.07496 51.5657C3.96435 51.4201 3.85957 51.2746 3.76643 51.1349C3.73006 51.0827 3.69701 51.0282 3.66746 50.9719C3.57581 50.8262 3.49413 50.6745 3.42297 50.5178L3.34729 50.3606L3.31818 50.3024C3.31818 50.2675 3.31818 50.2326 3.27743 50.1918L3.20757 50.0288L3.15518 49.8658V49.8251L3.11444 49.697C3.06173 49.5403 3.01704 49.381 2.98054 49.2197C2.98054 49.1673 2.98054 49.1149 2.93979 49.0625V49.0159C2.81353 48.4107 2.74724 47.7946 2.74187 47.1764V46.6233C2.74187 46.472 2.74187 46.3381 2.74187 46.21V46.1227V45.8782V45.8025C2.74187 45.7443 2.74186 45.6861 2.77097 45.6453V45.5813V45.4067C1.0022 48.55 0.0495205 52.0865 0 55.693V56.0248C0.00124195 57.3065 0.124043 58.5852 0.366749 59.8437C1.58341 66.2472 5.8039 71.7716 11.7592 75.3692C14.6573 77.108 17.8278 78.3459 21.1374 79.0309C21.3528 79.0891 21.574 79.1298 21.7952 79.1706C21.9019 77.2578 22.482 75.4015 23.4834 73.7684C23.7162 73.3376 24.8689 71.987 26.429 72.2082C27.9891 72.4295 31.5518 73.3725 32.4308 72.6157C32.4308 72.6157 33.6824 72.0336 33.3448 70.1824C33.3072 70.0072 33.2486 69.8371 33.1701 69.6759C33.0855 69.5322 33.0536 69.3633 33.0802 69.1985C33.1068 69.0338 33.1901 68.8835 33.3157 68.7736C33.5125 68.6558 33.7166 68.5508 33.9269 68.4593C34.0711 68.3453 34.1817 68.1944 34.2471 68.0227C34.4101 67.5803 34.2005 66.8118 32.9198 66.5848C32.9198 66.5848 34.4741 66.1366 34.6662 65.6126C34.7488 65.4185 34.7719 65.2042 34.7325 64.9969C34.6931 64.7896 34.5931 64.5987 34.445 64.4484C34.1889 64.1806 33.63 63.2375 34.6255 62.9639C34.6255 62.9639 36.0867 62.6554 36.2497 61.7065C36.4127 60.7576 36.2497 60.7169 35.6675 59.9601C35.0854 59.2033 33.9211 58.1264 33.6242 57.7247C33.3273 57.323 32.2969 55.9201 32.4599 54.8722C32.6021 54.2298 32.6763 53.5742 32.6812 52.9162C32.6621 52.5768 32.5955 52.2417 32.4832 51.9208C32.3726 51.5831 32.1631 50.9544 31.8603 50.1744C31.1327 48.3465 29.8462 45.6803 27.8378 43.9863C26.9588 43.2411 27.9833 42.1292 22.7674 40.5516L25.8294 39.4398C27.0091 38.9994 28.2392 38.7081 29.491 38.5724C37.7516 37.6817 42.333 40.6215 43.6777 42.4087C45.0225 44.1958 44.5218 45.6977 44.5218 45.6977C45.1251 46.6878 45.5323 47.7847 45.721 48.9286C45.9009 50.276 45.6739 51.6464 45.069 52.8638C44.9002 53.446 45.6977 55.076 46.8911 57.1425C48.0845 59.2091 47.9622 60.0183 47.4733 60.3152C46.9843 60.6121 46.5302 60.5189 45.8666 60.6412C45.7538 60.6634 45.6466 60.7078 45.5511 60.7718C45.4557 60.8357 45.3739 60.9181 45.3105 61.0139C45.2471 61.1098 45.2034 61.2173 45.182 61.3302C45.1605 61.4431 45.1617 61.5591 45.1855 61.6716C45.2379 61.9452 45.6453 62.4225 45.494 62.7543C45.3426 63.0862 44.2249 63.7673 44.2249 63.7673C44.2249 63.7673 44.8071 63.9768 44.9235 64.3494C45.0207 64.5866 45.0368 64.8493 44.9695 65.0967C44.9021 65.344 44.755 65.5622 44.5509 65.7174C44.0561 65.9677 43.8291 66.2646 44.2773 67.1378C44.7256 68.011 44.8595 69.4664 44.126 70.3221C43.3925 71.1779 41.5238 70.9799 40.476 70.945C37.443 70.8228 34.2587 77.0342 31.3131 79.5257C32.4779 79.3984 33.6344 79.2041 34.7769 78.9436H35.0097C36.8799 78.519 38.7047 77.9147 40.4585 77.1389C44.996 75.2478 48.9253 72.1442 51.816 68.1682C55.7273 63.0702 57.8417 56.8212 57.8295 50.3956C57.8702 49.959 57.8586 49.4409 57.8295 48.8995Z" fill="#CC2626"/>
</svg>
