<svg width="190" height="47" viewBox="0 0 190 47" fill="none" xmlns="http://www.w3.org/2000/svg">
<path d="M149.266 16.7625V45.0529C149.266 45.8169 149.346 45.7313 148.594 45.7313H140.612C140.356 45.7313 140.209 45.6763 140.239 45.383C140.239 45.2607 140.239 45.1324 140.239 45.004V1.47748C140.239 0.627971 140.142 0.707416 141.028 0.707416C143.943 0.707416 146.852 0.707416 149.767 0.707416C150 0.678294 150.235 0.735706 150.427 0.86871C150.62 1.00171 150.757 1.201 150.812 1.42858C155.343 12.0505 159.886 22.6663 164.441 33.276C164.545 33.5204 164.655 33.771 164.79 34.0704C164.969 33.8843 165.098 33.6548 165.162 33.4043C168.345 25.993 171.523 18.5756 174.696 11.1521C176.096 7.87628 177.508 4.6066 178.883 1.32469C178.936 1.12679 179.06 0.955271 179.231 0.842636C179.402 0.73 179.609 0.684065 179.812 0.713533C182.77 0.713533 185.722 0.713533 188.68 0.713533H189.059C189.309 0.713533 189.389 0.835756 189.383 1.068C189.376 1.30024 189.383 1.36135 189.383 1.50803C189.383 15.9965 189.383 30.485 189.383 44.9735C189.383 45.8352 189.499 45.7374 188.6 45.7374H180.68C180.417 45.7374 180.276 45.6702 180.301 45.3891C180.301 45.218 180.301 45.0468 180.301 44.8818V16.7686C180.117 16.9578 179.987 17.1917 179.922 17.447C176.116 26.6714 172.319 35.8998 168.53 45.1324C168.475 45.2478 168.426 45.3662 168.383 45.4868C168.322 45.7069 168.175 45.768 167.955 45.768C165.89 45.768 163.818 45.768 161.752 45.768C161.367 45.768 161.3 45.5296 161.202 45.2791C160.463 43.5128 159.735 41.7405 159.002 39.9681L149.633 17.3553C149.586 17.12 149.456 16.9095 149.266 16.7625Z" fill="#124394"/>
<path d="M88.2545 15.4424C87.4872 12.8965 86.2122 10.5323 84.5064 8.49248C82.8006 6.45266 80.6993 4.77945 78.3293 3.57376C75.1029 1.88166 71.5377 0.93555 67.8969 0.80522C62.0725 0.560757 56.2421 0.744096 50.4178 0.701315C49.9289 0.701315 49.9288 0.70132 49.9166 1.18413C49.9166 1.33081 49.9166 1.48361 49.9166 1.63028V45.4808C49.9166 45.6274 49.9777 45.7191 50.1366 45.7191H50.5156C55.8143 45.7191 61.1191 45.7191 66.4056 45.7191C69.3168 45.7275 72.2089 45.2482 74.9618 44.3012C81.8007 41.9116 86.4577 37.3585 88.4562 30.3363C89.8774 25.4629 89.8071 20.2756 88.2545 15.4424ZM79.3988 28.8879C78.0237 33.4654 74.8824 36.2829 70.2315 37.4746C68.7563 37.8415 67.2413 38.0242 65.7211 38.0185H59.3529C59.0718 38.0185 58.9067 37.9513 58.9373 37.6274C58.9465 37.4809 58.9465 37.3339 58.9373 37.1874V23.1308C58.9373 18.4493 58.9373 13.7638 58.9373 9.07417C58.9373 8.24299 58.8212 8.31022 59.7257 8.31022C61.8403 8.31022 63.9488 8.31022 66.0634 8.31022C67.8181 8.31581 69.561 8.59838 71.2277 9.1475C73.145 9.73404 74.8865 10.7878 76.2957 12.2141C77.7049 13.6404 78.7376 15.3944 79.301 17.3187C80.5278 21.0808 80.5619 25.13 79.3988 28.9123V28.8879Z" fill="#124394"/>
<path d="M36.3917 15.7969C36.3917 20.185 36.3917 24.5731 36.3917 28.9612C36.4352 31.6065 35.8904 34.2284 34.7966 36.6373C33.2609 40.0444 30.5238 42.7662 27.1083 44.2829C24.3933 45.5542 21.4403 46.2375 18.4429 46.2881C15.4454 46.3386 12.4711 45.7553 9.71475 44.5762C4.52603 42.425 1.51914 38.4036 0.394611 32.9643C0.117296 31.5555 -0.0137793 30.1219 0.0034713 28.6862V1.50193C0.0034713 0.603529 -0.100422 0.707433 0.828536 0.707433H8.68189C8.91413 0.707433 9.04248 0.774659 9.03026 1.03134C9.01803 1.28803 9.03026 1.36749 9.03026 1.5325V28.3623C9.00478 29.6498 9.16534 30.9342 9.50696 32.1759C9.84539 33.5151 10.5492 34.7339 11.5398 35.6965C12.5304 36.6591 13.769 37.3276 15.1174 37.6274C17.1719 38.1726 19.3349 38.1578 21.3817 37.5846C24.4375 36.7351 26.271 34.6633 26.986 31.5892C27.2129 30.5146 27.3154 29.4175 27.2916 28.3195C27.2916 19.3966 27.2916 10.4737 27.2916 1.55083C27.2916 0.621874 27.1816 0.707433 28.135 0.707433H36.0495C36.2939 0.707433 36.4039 0.793 36.3917 1.03746C36.3795 1.28192 36.3917 1.37359 36.3917 1.54471V15.7969Z" fill="#124394"/>
<path d="M101.015 23.2041V1.44081C101.015 0.554636 100.936 0.658534 101.792 0.658534H126.421C127.295 0.658534 127.185 0.572971 127.191 1.44081C127.191 3.40263 127.191 5.36444 127.191 7.32625C127.191 8.07186 127.283 8.01684 126.525 8.01684H111.692C111.271 8.01684 110.849 8.01684 110.427 8.01684C110.146 8.01684 110.054 8.12075 110.06 8.38966C110.06 8.89081 110.06 9.39806 110.06 9.90532V18.5715C110.06 18.7182 110.06 18.871 110.06 19.0177C110.06 19.1643 110.128 19.2927 110.317 19.2866H124.527C125.266 19.2866 125.242 19.1521 125.242 19.9955C125.242 21.9145 125.242 23.8336 125.242 25.7526C125.242 25.8993 125.242 26.046 125.242 26.1927C125.242 26.3393 125.125 26.4921 124.924 26.4799C124.722 26.4677 124.582 26.4799 124.417 26.4799H110.794C110.012 26.4799 110.079 26.3882 110.079 27.1827V37.6885C110.079 37.8352 110.079 37.9819 110.079 38.1285C110.079 38.2752 110.177 38.3913 110.354 38.3852H126.439C127.283 38.3852 127.191 38.2997 127.191 39.1186V45.0652C127.191 45.7863 127.271 45.7313 126.501 45.7313H101.358C101.125 45.7313 100.997 45.6641 101.015 45.4074C101.015 45.2424 101.015 45.0713 101.015 44.9001V23.2041Z" fill="#124394"/>
</svg>
