<svg width="11" height="11" viewBox="0 0 11 11" fill="none" xmlns="http://www.w3.org/2000/svg">
<path d="M3.75656 3.117L4.93097 1.94259V8.15519C4.93097 8.30609 4.99092 8.45081 5.09762 8.55751C5.20432 8.66422 5.34904 8.72416 5.49994 8.72416C5.65084 8.72416 5.79555 8.66422 5.90226 8.55751C6.00896 8.45081 6.0689 8.30609 6.0689 8.15519V1.94259L7.24332 3.117C7.2961 3.17007 7.35883 3.21221 7.42793 3.24099C7.49702 3.26977 7.57111 3.28464 7.64596 3.28474C7.7208 3.28485 7.79494 3.27018 7.86411 3.24158C7.93328 3.21299 7.99612 3.17102 8.04905 3.1181C8.10197 3.06517 8.14394 3.00233 8.17253 2.93316C8.20113 2.86399 8.2158 2.78985 8.21569 2.71501C8.21559 2.64016 8.20072 2.56607 8.17194 2.49697C8.14316 2.42788 8.10102 2.36515 8.04795 2.31237L5.90227 0.166656C5.84943 0.11382 5.78671 0.0719078 5.71768 0.0433127C5.64865 0.0147177 5.57466 0 5.49994 0C5.42522 0 5.35123 0.0147177 5.2822 0.0433127C5.21317 0.0719078 5.15044 0.11382 5.09761 0.166656L2.95192 2.31237C2.89885 2.36515 2.85672 2.42788 2.82794 2.49697C2.79915 2.56607 2.78428 2.64016 2.78418 2.71501C2.78408 2.78985 2.79875 2.86399 2.82734 2.93316C2.85594 3.00233 2.8979 3.06517 2.95083 3.1181C3.00375 3.17102 3.0666 3.21299 3.13577 3.24158C3.20494 3.27018 3.27907 3.28485 3.35392 3.28474C3.42877 3.28464 3.50286 3.26977 3.57195 3.24099C3.64104 3.21221 3.70378 3.17007 3.75656 3.117Z" fill="#FEFEFF"/>
<path d="M10.431 4.93105C10.2801 4.93105 10.1354 4.99099 10.0287 5.09769C9.92201 5.20439 9.86207 5.34911 9.86207 5.50001V9.86208H1.13793V5.50001C1.13793 5.34911 1.07799 5.20439 0.971285 5.09769C0.864583 4.99099 0.719865 4.93105 0.568965 4.93105C0.418066 4.93105 0.273348 4.99099 0.166646 5.09769C0.0599444 5.20439 0 5.34911 0 5.50001V10.0517C0 10.3032 0.0999073 10.5444 0.277744 10.7223C0.45558 10.9001 0.696777 11 0.948276 11H10.0517C10.3032 11 10.5444 10.9001 10.7223 10.7223C10.9001 10.5444 11 10.3032 11 10.0517V5.50001C11 5.34911 10.9401 5.20439 10.8334 5.09769C10.7267 4.99099 10.5819 4.93105 10.431 4.93105Z" fill="#FEFEFF"/>
</svg>
