<svg width="80" height="66" viewBox="0 0 80 66" fill="none" xmlns="http://www.w3.org/2000/svg">
<path d="M68.5271 16.9549V63.2149C68.5271 64.1449 67.7124 64.8986 66.7083 64.8986H4.92199C2.20334 64.8986 0 62.8568 0 60.3405V15.2693H66.7083C67.7124 15.2693 68.5271 16.023 68.5271 16.9549Z" fill="#F8C952"/>
<path d="M17.55 15.2689V64.8979H4.60466C2.06163 64.8979 0 62.8575 0 60.3407V15.2689H17.55Z" fill="#366FCC"/>
<path d="M13.5543 15.2689V64.8979H3.55701C1.59295 64.8979 0.000976562 62.8575 0.000976562 60.3407V15.2689H13.5543Z" fill="#E5AA33"/>
<path d="M13.5535 13.6506V61.7869C13.5535 58.0826 10.5196 55.08 6.77674 55.08C4.90532 55.08 3.21123 55.8315 1.98433 57.0439C0.757624 58.2579 0 59.9348 0 61.7869V13.6506C0 11.7984 0.757624 10.1218 1.98433 8.90757C3.21104 7.69332 4.90532 6.94369 6.77674 6.94369C10.5196 6.94388 13.5535 9.94632 13.5535 13.6506Z" fill="#4ACE99"/>
<path d="M13.0774 11.1726C12.0157 10.4882 10.7454 10.0892 9.38324 10.0892C7.51182 10.0892 5.81773 10.839 4.59083 12.0531C3.36393 13.2671 2.6065 14.9439 2.6065 16.7961V56.5007C2.38749 56.6693 2.1808 56.8498 1.98433 57.0441C0.757624 58.2581 0 59.9349 0 61.7871V13.6506C0 11.7984 0.757624 10.1218 1.98433 8.90757C3.21104 7.69332 4.90532 6.94369 6.77674 6.94369C9.63521 6.94388 12.0799 8.69438 13.0774 11.1726Z" fill="#38C689"/>
<path d="M13.5535 59.5478V61.1854C13.5535 58.4012 10.5196 56.1444 6.77674 56.1444C4.90532 56.1444 3.21123 56.7092 1.98433 57.6204C0.757624 58.533 0 59.7932 0 61.1852V59.5476C0 58.1556 0.757624 56.8954 1.98433 55.9828C3.21104 55.0716 4.90532 54.5068 6.77674 54.5068C10.5196 54.5068 13.5535 56.7636 13.5535 59.5478Z" fill="#02A054"/>
<path d="M61.5127 15.2689V64.8979H71.5099C73.474 64.8979 75.066 62.8575 75.066 60.3407V15.2689H61.5127Z" fill="#2E66B7"/>
<path d="M61.5127 59.5478V61.1854C61.5127 58.4012 64.5466 56.1444 68.2894 56.1444C70.1608 56.1444 71.8549 56.7092 73.0818 57.6204C74.3085 58.533 75.0662 59.7932 75.0662 61.1852V59.5476C75.0662 58.1556 74.3085 56.8954 73.0818 55.9828C71.8551 55.0716 70.1608 54.5068 68.2894 54.5068C64.5466 54.5068 61.5127 56.7636 61.5127 59.5478Z" fill="#205799"/>
<path d="M9.29688 26.9807C10.6884 26.9807 11.8164 24.5771 11.8164 21.6122C11.8164 18.6472 10.6884 16.2437 9.29688 16.2437C7.90538 16.2437 6.77734 18.6472 6.77734 21.6122C6.77734 24.5771 7.90538 26.9807 9.29688 26.9807Z" fill="#5EE5AB"/>
<path d="M9.29671 31.7784C10.2658 31.7784 11.0514 30.1045 11.0514 28.0397C11.0514 25.9748 10.2658 24.3009 9.29671 24.3009C8.3276 24.3009 7.54199 25.9748 7.54199 28.0397C7.54199 30.1045 8.3276 31.7784 9.29671 31.7784Z" fill="#7DEAB8"/>
<path d="M13.5537 15.2689H17.5502V64.8979H13.5537V15.2689Z" fill="#F9BD38"/>
<path d="M65.5088 15.2689V64.8979H75.506C77.4701 64.8979 79.0621 62.8575 79.0621 60.3407V15.2689H65.5088Z" fill="#E5AA33"/>
<path d="M65.5088 13.6506V61.7869C65.5088 58.0826 68.5427 55.08 72.2855 55.08C74.157 55.08 75.851 55.8315 77.0779 57.0439C78.3046 58.2579 79.0623 59.9348 79.0623 61.7869V13.6506C79.0623 11.7984 78.3046 10.1218 77.0779 8.90757C75.8512 7.69351 74.157 6.94369 72.2855 6.94369C68.5427 6.94388 65.5088 9.94632 65.5088 13.6506Z" fill="#4ACE99"/>
<path d="M65.9844 11.1726C67.0461 10.4882 68.3164 10.0892 69.6785 10.0892C71.5499 10.0892 73.244 10.839 74.4709 12.0531C75.6976 13.2671 76.4553 14.9439 76.4553 16.7961V56.5007C76.6743 56.6693 76.881 56.8498 77.0774 57.0441C78.3041 58.2581 79.0618 59.9349 79.0618 61.7871V13.6506C79.0618 11.7984 78.3041 10.1218 77.0774 8.90757C75.8507 7.69351 74.1564 6.94369 72.285 6.94369C69.4266 6.94388 66.9818 8.69438 65.9844 11.1726Z" fill="#38C689"/>
<path d="M65.5088 59.5478V61.1854C65.5088 58.4012 68.5427 56.1444 72.2855 56.1444C74.157 56.1444 75.851 56.7092 77.0779 57.6204C78.3046 58.533 79.0623 59.7932 79.0623 61.1852V59.5476C79.0623 58.1556 78.3046 56.8954 77.0779 55.9828C75.8512 55.0716 74.157 54.5068 72.2855 54.5068C68.5427 54.5068 65.5088 56.7636 65.5088 59.5478Z" fill="#02A054"/>
<path d="M61.5127 15.2689H65.5092V64.8979H61.5127V15.2689Z" fill="#F9BD38"/>
<path d="M65.5088 28.5564V23.8689H57.1262C55.9363 23.8689 54.9718 22.9142 54.9718 21.7367V15.2691H50.2354V33.0493C50.2354 34.4685 49.073 35.6192 47.6388 35.6192H30.9501C29.359 35.6192 28.0692 34.3427 28.0692 32.7681V31.3851C28.0692 28.5782 29.8046 26.0038 32.3888 24.9819C36.2593 23.4501 38.7658 20.4126 39.6372 16.1994C39.7035 15.8826 39.7566 15.5732 39.8002 15.2694H34.9956C34.4405 17.9319 33.014 19.6869 30.6306 20.6301C26.1974 22.3851 23.3329 26.6057 23.3329 31.3851V32.7681C23.3329 34.3427 22.0431 35.6192 20.4521 35.6192H13.5537V40.3067H20.4574C22.1562 40.3067 23.504 41.7227 23.4013 43.4008C23.0277 49.5002 21.4437 58.0382 15.9253 63.1926C15.4517 63.6369 15.1826 64.2519 15.1826 64.8988H20.8094C26.3297 58.4929 27.8531 49.4156 28.1753 43.0777C28.2543 41.5247 29.5487 40.3065 31.1198 40.3065H39.0912C39.8657 40.3065 40.5589 40.7859 40.8198 41.5076C41.1765 42.4944 41.3973 43.6496 41.1356 44.6994C40.8117 45.9988 39.7848 47.0563 37.9945 47.9319C35.4994 49.1526 33.567 51.1569 32.5534 53.5738C31.6099 55.8238 31.034 59.3394 33.6446 63.3107C33.9951 63.8451 34.3987 64.3738 34.8534 64.8988H41.9351C40.3462 63.7839 38.941 62.5534 37.9589 61.2343C37.0559 60.0212 37.9384 58.3067 39.4609 58.3067H53.7064C55.3528 58.3067 56.6875 59.6276 56.6875 61.257V64.8983H61.4238V40.3063H65.5084V35.6188H57.5678C56.1339 35.6188 54.9712 34.4683 54.9712 33.0489V30.6885C54.9712 29.5108 55.9359 28.5563 57.1257 28.5563H65.5088V28.5564ZM56.688 50.6685C56.688 52.2979 55.3533 53.6188 53.707 53.6188H38.0742C38.6275 53.0224 39.3116 52.5161 40.094 52.1336C43.1821 50.6224 45.0842 48.4868 45.7435 45.7849C46.0334 44.5991 46.0466 43.4393 45.9006 42.3636C45.7526 41.274 46.6089 40.3065 47.7197 40.3065H56.6878V50.6685H56.688Z" fill="white"/>
<path d="M17.5502 15.2689C17.5502 15.2689 29.7243 53.2723 65.5086 59.5478V64.8981H13.5537V15.2689H17.5502Z" fill="#F9BD38"/>
<path d="M48.6613 53.7576H38.0746C38.6278 53.1613 39.3118 52.6551 40.0942 52.2726C41.2783 51.6932 42.2862 51.0238 43.1179 50.2626C41.7879 49.3138 40.5186 48.3219 39.3061 47.3019C38.9272 47.5738 38.4914 47.8288 37.9951 48.0707C35.5 49.2913 33.5675 51.2957 32.554 53.7126C31.6105 55.9626 31.0346 59.4782 33.6452 63.4494C33.9957 63.9838 34.3992 64.5126 34.8539 65.0376H41.9357C40.3462 63.9238 38.9423 62.6919 37.9591 61.3738C37.0573 60.1607 37.9382 58.4451 39.4614 58.4451H53.7064C55.3528 58.4451 56.6884 59.7669 56.6884 61.3963V65.0376H61.4247V58.8107C56.7396 57.6182 52.4939 55.8726 48.6613 53.7576ZM23.7255 28.5126C23.4678 29.4782 23.3333 30.4869 23.3333 31.5238V32.9076C23.3333 34.4826 22.0431 35.7576 20.4517 35.7576H13.5537V40.4451H20.4574C22.1568 40.4451 23.5038 41.8626 23.4015 43.5407C23.0283 49.6401 21.4444 58.1769 15.9257 63.3313C15.452 63.7757 15.183 64.3907 15.183 65.0376H20.8098C26.3304 58.6326 27.8536 49.5557 28.1757 43.2163C28.2553 41.6638 29.5492 40.4451 31.1198 40.4451H32.3228C28.7573 36.3969 25.9212 32.2438 23.7255 28.5126Z" fill="#C6C6C6"/>
<path d="M28.3877 9.58687C28.3877 13.8786 34.7518 23.1542 37.1632 26.5148C37.6089 27.1359 38.5399 27.1359 38.9857 26.5148C41.3971 23.1542 47.7612 13.8786 47.7612 9.58687C47.7612 4.29225 43.4242 0 38.0744 0C32.7247 0 28.3877 4.29206 28.3877 9.58687Z" fill="#DD1B1B"/>
<path d="M40.0607 24.9906C39.6533 25.5774 39.2888 26.0931 38.9855 26.5149C38.5399 27.1361 37.6086 27.1361 37.163 26.5149C34.7516 23.1544 28.3877 13.8784 28.3877 9.58687C28.3877 5.2815 31.2556 1.63894 35.2035 0.427875C32.8438 2.17631 31.3172 4.96519 31.3172 8.10713C31.317 12.3806 37.6251 21.5933 40.0607 24.9906Z" fill="#BF1B1B"/>
<path d="M38.0747 17.085C42.21 17.085 45.5624 13.7672 45.5624 9.67443C45.5624 5.58169 42.21 2.26387 38.0747 2.26387C33.9393 2.26387 30.5869 5.58169 30.5869 9.67443C30.5869 13.7672 33.9393 17.085 38.0747 17.085Z" fill="white"/>
<path d="M39.6271 16.9251C39.1261 17.0299 38.6069 17.0848 38.0747 17.0848C33.9393 17.0848 30.5869 13.7676 30.5869 9.67425C30.5869 5.5815 33.9393 2.26369 38.0747 2.26369C38.6067 2.26369 39.126 2.31844 39.6271 2.42344C36.2368 3.13069 33.6917 6.10819 33.6917 9.67425C33.6917 13.2409 36.2368 16.2178 39.6271 16.9251Z" fill="#D1D1D1"/>
<path d="M43.0071 18.8827C43.3647 18.2497 43.3029 17.5419 42.8692 17.302C42.4355 17.0621 41.7941 17.3808 41.4365 18.0139C41.0789 18.6469 41.1406 19.3547 41.5743 19.5946C42.008 19.8345 42.6495 19.5158 43.0071 18.8827Z" fill="#E53535"/>
<path d="M41.9844 20.7956C42.402 20.0561 42.3299 19.2294 41.8234 18.9491C41.3168 18.6689 40.5675 19.0412 40.1498 19.7806C39.7321 20.5201 39.8042 21.3468 40.3108 21.6271C40.8174 21.9073 41.5667 21.535 41.9844 20.7956Z" fill="#EA4949"/>
</svg>
