<svg width="62" height="80" viewBox="0 0 62 80" fill="none" xmlns="http://www.w3.org/2000/svg">
<path d="M54.7005 15.0543H53.1261L53.7369 13.9968C55.1581 11.5363 53.3817 8.46067 50.5393 8.46067H42.8482L30.6641 13.3898V62.336L42.4867 73.4373L47.3157 57.2796L42.4867 40.4948L40.4162 36.9101C37.6043 32.0419 39.2038 25.7782 43.7949 23.1287L46.4795 21.5794C47.602 20.9315 48.8754 20.5906 50.1717 20.5906H54.6222C56.1133 20.5906 57.3963 19.4452 57.4665 17.9564C57.5415 16.3667 56.2742 15.0543 54.7005 15.0543V15.0543Z" fill="#EFEDFF"/>
<path d="M42.8487 8.46067L34.9593 0.574628C33.7311 -0.652899 31.6311 0.216479 31.6311 1.9525V1.95346C31.6311 6.56836 29.168 10.8327 25.1696 13.1403L22.0585 14.9357L17.2295 29.3681L22.0585 48.5232L28.9559 60.4644V62.4324C28.9559 64.4102 30.0115 66.2378 31.7251 67.2268L42.4871 73.4375C28.7014 53.9292 28.8467 27.8139 42.8487 8.46067V8.46067Z" fill="#D4D4FF"/>
<path d="M59.8456 72.9334L59.0666 72.4142V60.4025L59.4462 60.1496C61.2326 58.9591 61.9045 56.5528 60.7724 54.5897L58.8258 51.2197C58.2652 50.2491 57.2291 49.6511 56.1079 49.6511H53.8338V44.9702C53.8338 43.9759 52.7569 43.3544 51.8953 43.8516L49.9706 44.9623H45.0679L42.4873 40.4945V73.4372L52.8741 79.4314C54.1879 80.1895 55.8064 80.1895 57.1202 79.4314L59.7128 77.9354C59.726 77.9278 59.739 77.9202 59.752 77.9125C61.6093 76.8141 61.6411 74.13 59.8456 72.9334V72.9334Z" fill="#FF8E9E"/>
<path d="M14.373 19.3706C13.5733 19.8321 12.588 19.8321 11.7883 19.3706L10.3435 18.5368C9.65812 18.1413 8.81353 18.1413 8.12814 18.5368L5.90278 19.821V16.9391C5.90278 16.1586 5.56154 15.4134 4.96162 14.9027C3.8891 13.9897 2.27638 14.1078 1.28016 15.1036C0.460363 15.9227 0 17.0339 0 18.1924V21.0967C0 22.4151 0.703744 23.6335 1.84612 24.2928L9.02874 28.4378C10.432 29.2477 11.5973 30.4124 12.4074 31.8151L22.0581 48.5232V14.9355L14.373 19.3706Z" fill="#EA5B70"/>
</svg>
