<svg width="15" height="23" viewBox="0 0 15 23" fill="none" xmlns="http://www.w3.org/2000/svg">
<path d="M7.19128 0C4.96963 0 3.16211 1.80752 3.16211 4.02917V11.9479C3.16211 14.1693 4.96963 15.9768 7.19128 15.9768C9.41293 15.9768 11.2204 14.1819 11.2204 11.9756V4.02917C11.2204 1.80752 9.41293 0 7.19128 0ZM9.54136 11.9754C9.54136 13.2558 8.48705 14.2978 7.19128 14.2978C5.89551 14.2978 4.84093 13.2437 4.84093 11.9477V4.02917C4.84093 2.73313 5.89524 1.67882 7.19128 1.67882C8.48732 1.67882 9.54163 2.73313 9.54136 4.02917V11.9754Z" fill="white"/>
<path d="M8.03038 18.3832H6.35156V22.1606H8.03038V18.3832Z" fill="white"/>
<path d="M9.40146 21.3212H4.98052C4.51688 21.3212 4.14111 21.6969 4.14111 22.1606C4.14111 22.6242 4.51688 23 4.98052 23H9.40146C9.86509 23 10.2409 22.6242 10.2409 22.1606C10.2409 21.6969 9.86509 21.3212 9.40146 21.3212Z" fill="white"/>
<path d="M13.5426 10.5486C13.0789 10.5486 12.7032 10.9244 12.7032 11.388V12.0595C12.7032 15.0988 10.2303 17.5717 7.19099 17.5717C4.15149 17.5717 1.67882 15.0988 1.67882 12.0595V11.388C1.67882 10.9244 1.30305 10.5486 0.839409 10.5486C0.375771 10.5486 0 10.9244 0 11.388V12.0595C0 16.0246 3.22588 19.2505 7.19099 19.2505C11.1561 19.2505 14.382 16.0246 14.382 12.0595V11.388C14.382 10.9244 14.0062 10.5486 13.5426 10.5486Z" fill="white"/>
</svg>
