<svg width="21" height="23" viewBox="0 0 21 23" fill="none" xmlns="http://www.w3.org/2000/svg">
<path fill-rule="evenodd" clip-rule="evenodd" d="M16.1393 8.98013C16.2439 10.3042 16.1926 14.1852 15.134 15.9966C14.1999 17.595 13.0987 19.0547 13.2522 21.8725C13.2606 22.0262 13.3922 22.1443 13.546 22.1359C13.6998 22.1276 13.8178 21.9959 13.8094 21.8421C13.6639 19.1705 14.7302 17.7936 15.6158 16.2781C16.7793 14.2873 16.8071 9.91499 16.6778 8.74476C16.6703 8.67637 16.6378 8.61324 16.5864 8.56735C16.3781 8.38109 15.9936 8.36225 15.5653 8.61279C14.8569 9.02701 13.9521 10.1764 13.8841 11.7731C13.2587 12.0119 11.3449 12.9429 10.6585 15.5763C10.6196 15.7253 10.7091 15.8778 10.8581 15.9167C11.0072 15.9555 11.1597 15.866 11.1985 15.717C11.9351 12.8911 14.2333 12.2424 14.2333 12.2424C14.3544 12.2089 14.4383 12.0986 14.438 11.9729C14.4353 10.5231 15.2181 9.46221 15.847 9.09451C15.9534 9.03228 16.0525 8.99102 16.1393 8.98013Z" fill="white"/>
<path fill-rule="evenodd" clip-rule="evenodd" d="M6.44628 21.8573C6.44628 19.3567 5.62062 17.3186 5.01515 15.5353C4.78576 14.8598 4.78764 13.8405 4.88657 12.744C5.04006 11.0423 5.43891 9.16014 5.66982 8.02563C5.81875 7.29408 6.06715 6.74406 6.34145 6.46378C6.39592 6.40797 6.45003 6.36467 6.50485 6.33806C6.54557 6.31833 6.58503 6.30797 6.62227 6.32395C6.67557 6.34681 6.7187 6.40011 6.76209 6.47306C6.83004 6.58735 6.88585 6.74343 6.93023 6.94291C6.96362 7.09318 7.11282 7.18809 7.26319 7.1547C7.41346 7.12122 7.50838 6.97201 7.47489 6.82174C7.28819 5.98242 6.86433 5.7108 6.48824 5.76491C6.26404 5.79714 6.01519 5.9542 5.79232 6.24913C5.52276 6.60557 5.27275 7.17863 5.12301 7.91428C4.88907 9.06344 4.48629 10.9701 4.33074 12.6939C4.22368 13.8809 4.23842 14.9835 4.48673 15.7147C5.07524 17.4481 5.88822 19.4267 5.88822 21.8573C5.88822 22.0113 6.01322 22.1363 6.16725 22.1363C6.32118 22.1363 6.44628 22.0113 6.44628 21.8573Z" fill="white"/>
<path fill-rule="evenodd" clip-rule="evenodd" d="M14.1947 11.9838C13.8854 7.98277 13.6848 4.75425 13.1723 3.18489C13.0501 2.81095 12.9076 2.5238 12.7483 2.32914C12.5434 2.0786 12.3052 1.9619 12.0404 1.96699C11.792 1.97172 11.5715 2.12244 11.4036 2.36066C11.1143 2.77086 10.9779 3.44651 10.9779 3.44651C10.9483 3.59768 11.0469 3.74438 11.198 3.77403C11.3492 3.80367 11.4959 3.70501 11.5255 3.55393C11.5255 3.55393 11.6045 3.14811 11.7756 2.82158C11.8235 2.73032 11.8778 2.64505 11.943 2.58362C11.9758 2.55281 12.0091 2.52576 12.051 2.52496C12.1538 2.52299 12.2369 2.58523 12.3164 2.68246C12.4415 2.83533 12.5459 3.06444 12.6418 3.35812C13.1468 4.90407 13.3336 8.08563 13.6384 12.0268C13.6503 12.1804 13.7845 12.2954 13.938 12.2835C14.0916 12.2716 14.2066 12.1373 14.1947 11.9838Z" fill="white"/>
<path fill-rule="evenodd" clip-rule="evenodd" d="M11.8891 10.0259C11.6472 7.39008 11.7643 4.46523 11.4089 2.9649C11.3226 2.60095 11.2063 2.31317 11.0612 2.11647C10.8727 1.86074 10.6347 1.73574 10.3453 1.74708C9.75396 1.77011 9.35904 2.22263 9.14644 3.02883C8.74008 4.56943 8.94866 7.51303 8.7391 10.2615C8.7274 10.4151 8.8425 10.5493 8.99607 10.561C9.14965 10.5727 9.28385 10.4575 9.29555 10.304C9.4735 7.97001 9.34207 5.49366 9.55467 3.87261C9.6203 3.37214 9.7161 2.95829 9.87477 2.6681C9.99326 2.4513 10.1458 2.31335 10.3671 2.30469C10.469 2.30067 10.5457 2.35764 10.6121 2.44764C10.7219 2.59658 10.8005 2.8181 10.8658 3.09356C11.2173 4.57728 11.0941 7.47026 11.3333 10.0769C11.3474 10.2303 11.4833 10.3433 11.6367 10.3292C11.79 10.3152 11.9032 10.1793 11.8891 10.0259Z" fill="white"/>
<path fill-rule="evenodd" clip-rule="evenodd" d="M6.8855 11.0676C7.0806 9.8752 7.28588 7.10847 7.7242 5.34063C7.8309 4.91008 7.95019 4.5414 8.08948 4.27729C8.161 4.14174 8.23181 4.03629 8.31645 3.98138C8.41574 3.917 8.49244 3.8845 8.55986 3.90379C8.60191 3.91575 8.63379 3.94772 8.66343 3.98433C8.71433 4.04737 8.75379 4.12701 8.78692 4.21112C8.91827 4.54444 8.94327 4.9466 8.94327 4.9466C8.95309 5.10027 9.08586 5.21706 9.23953 5.20723C9.3932 5.19732 9.50999 5.06455 9.50016 4.91088C9.50016 4.91088 9.44784 4.18559 9.1814 3.7528C9.06318 3.56083 8.9046 3.4218 8.7129 3.36707C8.52414 3.31332 8.29074 3.33287 8.01278 3.51324C7.86429 3.60958 7.72125 3.77923 7.59589 4.01692C7.4399 4.31264 7.30204 4.72409 7.18248 5.20634C6.74085 6.98802 6.53138 9.77582 6.33476 10.9774C6.30985 11.1294 6.41307 11.2729 6.56504 11.2978C6.71701 11.3227 6.86059 11.2195 6.8855 11.0676Z" fill="white"/>
<path fill-rule="evenodd" clip-rule="evenodd" d="M18.5575 12.2791L20.6672 12.692C20.8184 12.7216 20.9651 12.6229 20.9946 12.4718C21.0242 12.3206 20.9255 12.1739 20.7744 12.1444L18.6647 11.7315C18.5135 11.7019 18.3668 11.8006 18.3373 11.9517C18.3076 12.1029 18.4064 12.2496 18.5575 12.2791Z" fill="white"/>
<path fill-rule="evenodd" clip-rule="evenodd" d="M2.33518 11.7315L0.225444 12.1444C0.0743666 12.1739 -0.0243875 12.3206 0.00525656 12.4718C0.0348114 12.6229 0.181514 12.7216 0.332681 12.692L2.44232 12.2791C2.59349 12.2496 2.69215 12.1029 2.6626 11.9517C2.63304 11.8006 2.48634 11.7019 2.33518 11.7315Z" fill="white"/>
<path fill-rule="evenodd" clip-rule="evenodd" d="M17.616 5.81886L19.721 5.3825C19.8718 5.35125 19.9688 5.20348 19.9376 5.05267C19.9063 4.90186 19.7585 4.8048 19.6077 4.83605L17.5027 5.27241C17.3519 5.30366 17.2549 5.45143 17.2861 5.60224C17.3174 5.75305 17.4652 5.85011 17.616 5.81886Z" fill="white"/>
<path fill-rule="evenodd" clip-rule="evenodd" d="M3.4983 5.27241L1.3933 4.83605C1.24249 4.8048 1.09472 4.90186 1.06347 5.05267C1.03222 5.20348 1.12927 5.35125 1.28 5.3825L3.38499 5.81886C3.5358 5.85011 3.68358 5.75305 3.71492 5.60224C3.74617 5.45143 3.64911 5.30366 3.4983 5.27241Z" fill="white"/>
<path fill-rule="evenodd" clip-rule="evenodd" d="M15.4106 1.72644L17.1824 0.508982C17.3094 0.421746 17.3416 0.247899 17.2544 0.121019C17.1671 -0.00595045 16.9933 -0.0381839 16.8664 0.0490519L15.0947 1.26642C14.9677 1.35366 14.9354 1.52751 15.0227 1.65448C15.1098 1.78136 15.2837 1.81359 15.4106 1.72644Z" fill="white"/>
<path fill-rule="evenodd" clip-rule="evenodd" d="M5.90606 1.26642L4.13428 0.0490519C4.00732 -0.0381839 3.83347 -0.00595045 3.74632 0.121019C3.65909 0.247899 3.69132 0.421746 3.8182 0.508982L5.59006 1.72644C5.71694 1.81359 5.89079 1.78136 5.97802 1.65448C6.06526 1.52751 6.03302 1.35366 5.90606 1.26642Z" fill="white"/>
</svg>
