<svg width="20" height="28" viewBox="0 0 20 28" fill="none" xmlns="http://www.w3.org/2000/svg">
<path d="M12.911 5.10935C12.1618 5.10935 11.5544 5.71671 11.5544 6.46593V2.8457C11.5544 2.09648 10.947 1.48911 10.1978 1.48911C9.44858 1.48911 8.84122 2.09648 8.84122 2.8457V1.35692C8.84122 0.607701 8.23385 0.000335693 7.48463 0.000335693C6.73542 0.000335693 6.12805 0.607701 6.12805 1.35692V3.02379C6.12805 2.27457 5.52069 1.66721 4.77147 1.66721C4.02225 1.66721 3.41488 2.27457 3.41488 3.02379V11.9924L2.74759 10.3752C2.4498 9.6534 1.62739 9.3048 0.901639 9.59265C0.165738 9.88449 -0.192143 10.7195 0.104063 11.4537L1.0406 13.7752L1.33511 14.4547C1.83839 15.6157 2.69082 16.5534 3.73794 17.1674C4.18784 17.4312 4.4579 17.9198 4.4579 18.4414V20.4875H11.5544V18.4517C11.5544 17.9479 11.813 17.4836 12.2322 17.2041C13.4591 16.3861 14.2676 14.9904 14.2676 13.4053V13.2865V6.46593C14.2676 5.71671 13.6602 5.10935 12.911 5.10935V5.10935Z" fill="white"/>
<path d="M11.5558 2.84588V10.6767H11.3826C10.8593 10.6767 10.435 10.2524 10.435 9.72912V2.84588C10.435 2.47151 10.2832 2.13192 10.0377 1.88642C9.92336 1.77207 9.78833 1.67792 9.63867 1.61013C9.80962 1.53225 9.99955 1.48907 10.1991 1.48907C10.5735 1.48907 10.9131 1.64097 11.1586 1.88642C11.404 2.13186 11.5558 2.47151 11.5558 2.84588V2.84588Z" fill="white"/>
<path d="M8.84143 1.3568V10.6767H8.66874C8.14543 10.6767 7.72118 10.2524 7.72118 9.72909V1.3568C7.72118 0.981893 7.56928 0.642843 7.32384 0.397342C7.20949 0.282997 7.07446 0.188847 6.9248 0.121058C7.09575 0.0431727 7.28514 0 7.48523 0C7.86014 0 8.19865 0.151896 8.44409 0.397342C8.68959 0.642788 8.84143 0.981839 8.84143 1.3568V1.3568Z" fill="white"/>
<path d="M6.12947 3.05472V10.6767H5.95623C5.43292 10.6767 5.00867 10.2524 5.00867 9.72909V3.02345C5.00867 2.47421 4.6825 2.00122 4.21289 1.78825C4.38629 1.70895 4.57945 1.66566 4.78347 1.66725C5.53362 1.67309 6.12947 2.30447 6.12947 3.05472V3.05472Z" fill="white"/>
<path d="M14.2684 6.46561V13.4053C14.2684 14.9902 13.4597 16.3862 12.233 17.2039C11.8138 17.4836 11.5554 17.9476 11.5554 18.4514V19.686H10.4346V17.8837C10.4346 17.3798 10.6929 16.9153 11.1121 16.6362C12.3389 15.818 13.1476 14.4225 13.1476 12.8371V6.46561C13.1476 5.91697 12.8209 5.44398 12.3518 5.23046C12.5221 5.15258 12.7116 5.10941 12.9117 5.10941C13.6609 5.10941 14.2684 5.71688 14.2684 6.46561V6.46561Z" fill="white"/>
<path d="M3.41559 11.9925L3.4556 12.6352C3.47901 13.0109 2.96285 13.137 2.81035 12.7929L1.96016 10.8745C1.6889 10.2176 0.983888 9.87018 0.3125 10.0288C0.462158 9.84049 0.662194 9.68805 0.902073 9.5928C1.62782 9.30473 2.45051 9.65333 2.74813 10.3752L3.41559 11.9925Z" fill="white"/>
<path d="M16.6908 12.6698C16.4587 12.6698 16.2705 12.4817 16.2705 12.2495V5.90363C16.2705 5.67144 16.4587 5.48331 16.6908 5.48331C16.923 5.48331 17.1111 5.67144 17.1111 5.90363V12.2495C17.1111 12.4817 16.923 12.6698 16.6908 12.6698Z" fill="white"/>
<path d="M18.7367 8.13005C18.5046 8.13005 18.3164 7.94191 18.3164 7.70973V5.90363C18.3164 5.67144 18.5046 5.48331 18.7367 5.48331C18.9689 5.48331 19.157 5.67144 19.157 5.90363V7.70973C19.157 7.94186 18.9689 8.13005 18.7367 8.13005Z" fill="white"/>
<path d="M12.6742 27.9446H3.4043V20.0467C3.4043 19.8476 3.56569 19.6862 3.7648 19.6862H12.3137C12.5128 19.6862 12.6742 19.8476 12.6742 20.0467V27.9446Z" fill="white"/>
<path d="M12.6741 20.0469V27.945H11.5533V20.0469C11.5533 19.8474 11.3919 19.686 11.1924 19.686H12.3132C12.5127 19.686 12.6741 19.8474 12.6741 20.0469Z" fill="white"/>
</svg>
