<svg width="21" height="23" viewBox="0 0 21 23" fill="none" xmlns="http://www.w3.org/2000/svg">
<path fill-rule="evenodd" clip-rule="evenodd" d="M16.1393 8.98014C16.2439 10.3042 16.1926 14.1852 15.134 15.9966C14.1999 17.595 13.0987 19.0547 13.2522 21.8725C13.2606 22.0262 13.3922 22.1443 13.546 22.136C13.6998 22.1276 13.8178 21.996 13.8094 21.8421C13.6639 19.1705 14.7302 17.7936 15.6158 16.2781C16.7793 14.2873 16.8071 9.915 16.6778 8.74478C16.6703 8.67638 16.6378 8.61325 16.5864 8.56736C16.3781 8.3811 15.9936 8.36226 15.5653 8.61281C14.8569 9.02702 13.9521 10.1764 13.8841 11.7731C13.2587 12.0119 11.3449 12.9429 10.6585 15.5763C10.6196 15.7253 10.7091 15.8778 10.8581 15.9167C11.0072 15.9555 11.1597 15.8661 11.1985 15.717C11.9351 12.8911 14.2333 12.2424 14.2333 12.2424C14.3544 12.2089 14.4383 12.0986 14.438 11.9729C14.4353 10.5232 15.2181 9.46222 15.847 9.09452C15.9534 9.03229 16.0525 8.99104 16.1393 8.98014Z" fill="white"/>
<path fill-rule="evenodd" clip-rule="evenodd" d="M6.44628 21.8573C6.44628 19.3567 5.62062 17.3186 5.01515 15.5353C4.78576 14.8598 4.78764 13.8405 4.88657 12.744C5.04006 11.0423 5.43891 9.16014 5.66982 8.02563C5.81875 7.29408 6.06715 6.74406 6.34145 6.46378C6.39592 6.40797 6.45003 6.36467 6.50485 6.33806C6.54557 6.31833 6.58503 6.30797 6.62227 6.32395C6.67557 6.34681 6.7187 6.40011 6.76209 6.47306C6.83004 6.58735 6.88585 6.74343 6.93023 6.94291C6.96362 7.09318 7.11282 7.18809 7.26319 7.1547C7.41346 7.12122 7.50838 6.97201 7.47489 6.82174C7.28819 5.98242 6.86433 5.7108 6.48824 5.76491C6.26404 5.79714 6.01519 5.9542 5.79232 6.24913C5.52276 6.60557 5.27275 7.17863 5.12301 7.91428C4.88907 9.06344 4.48629 10.9701 4.33074 12.6939C4.22368 13.8809 4.23842 14.9835 4.48673 15.7147C5.07524 17.4481 5.88822 19.4267 5.88822 21.8573C5.88822 22.0113 6.01322 22.1363 6.16725 22.1363C6.32118 22.1363 6.44628 22.0113 6.44628 21.8573Z" fill="white"/>
<path fill-rule="evenodd" clip-rule="evenodd" d="M14.1947 11.9838C13.8854 7.98278 13.6848 4.75426 13.1723 3.18491C13.0501 2.81096 12.9076 2.52381 12.7483 2.32916C12.5434 2.07861 12.3052 1.96191 12.0404 1.967C11.792 1.97173 11.5715 2.12245 11.4036 2.36068C11.1143 2.77087 10.9779 3.44652 10.9779 3.44652C10.9483 3.59769 11.0469 3.74439 11.198 3.77404C11.3492 3.80368 11.4959 3.70502 11.5255 3.55394C11.5255 3.55394 11.6045 3.14812 11.7756 2.82159C11.8235 2.73033 11.8778 2.64506 11.943 2.58363C11.9758 2.55283 12.0091 2.52577 12.051 2.52497C12.1538 2.523 12.2369 2.58524 12.3164 2.68247C12.4415 2.83534 12.5459 3.06445 12.6418 3.35813C13.1468 4.90408 13.3336 8.08565 13.6384 12.0268C13.6503 12.1804 13.7845 12.2954 13.938 12.2835C14.0916 12.2716 14.2066 12.1373 14.1947 11.9838Z" fill="white"/>
<path fill-rule="evenodd" clip-rule="evenodd" d="M11.8891 10.0259C11.6472 7.39008 11.7643 4.46522 11.4089 2.96489C11.3226 2.60095 11.2063 2.31317 11.0612 2.11646C10.8727 1.86074 10.6347 1.73573 10.3453 1.74707C9.75396 1.77011 9.35904 2.22263 9.14644 3.02882C8.74008 4.56942 8.94866 7.51303 8.7391 10.2615C8.7274 10.4151 8.8425 10.5493 8.99607 10.561C9.14965 10.5727 9.28385 10.4575 9.29555 10.304C9.4735 7.97001 9.34207 5.49366 9.55467 3.87261C9.6203 3.37214 9.7161 2.95828 9.87477 2.66809C9.99326 2.4513 10.1458 2.31335 10.3671 2.30468C10.469 2.30067 10.5457 2.35763 10.6121 2.44764C10.7219 2.59657 10.8005 2.8181 10.8658 3.09356C11.2173 4.57728 11.0941 7.47026 11.3333 10.0769C11.3474 10.2303 11.4833 10.3433 11.6367 10.3292C11.79 10.3152 11.9032 10.1793 11.8891 10.0259Z" fill="white"/>
<path fill-rule="evenodd" clip-rule="evenodd" d="M6.8855 11.0676C7.0806 9.87519 7.28588 7.10846 7.7242 5.34062C7.8309 4.91007 7.95019 4.54139 8.08948 4.27727C8.161 4.14173 8.23181 4.03628 8.31645 3.98137C8.41574 3.91699 8.49244 3.88449 8.55986 3.90378C8.60191 3.91574 8.63379 3.94771 8.66343 3.98432C8.71433 4.04735 8.75379 4.127 8.78692 4.21111C8.91827 4.54443 8.94327 4.94659 8.94327 4.94659C8.95309 5.10025 9.08586 5.21705 9.23953 5.20722C9.3932 5.19731 9.50999 5.06454 9.50016 4.91087C9.50016 4.91087 9.44784 4.18557 9.1814 3.75279C9.06318 3.56082 8.9046 3.42179 8.7129 3.36706C8.52414 3.31331 8.29074 3.33286 8.01278 3.51322C7.86429 3.60957 7.72125 3.77922 7.59589 4.01691C7.4399 4.31263 7.30204 4.72408 7.18248 5.20633C6.74085 6.98801 6.53138 9.77581 6.33476 10.9774C6.30985 11.1293 6.41307 11.2729 6.56504 11.2978C6.71701 11.3227 6.86059 11.2195 6.8855 11.0676Z" fill="white"/>
<path fill-rule="evenodd" clip-rule="evenodd" d="M18.5575 12.2791L20.6672 12.692C20.8184 12.7216 20.9651 12.6229 20.9946 12.4718C21.0242 12.3206 20.9255 12.1739 20.7744 12.1444L18.6647 11.7315C18.5135 11.7019 18.3668 11.8006 18.3373 11.9517C18.3076 12.1029 18.4064 12.2496 18.5575 12.2791Z" fill="white"/>
<path fill-rule="evenodd" clip-rule="evenodd" d="M2.33518 11.7315L0.225444 12.1444C0.0743666 12.1739 -0.0243875 12.3206 0.00525656 12.4718C0.0348114 12.6229 0.181514 12.7216 0.332681 12.692L2.44232 12.2791C2.59349 12.2496 2.69215 12.1029 2.6626 11.9517C2.63304 11.8006 2.48634 11.7019 2.33518 11.7315Z" fill="white"/>
<path fill-rule="evenodd" clip-rule="evenodd" d="M17.616 5.81884L19.721 5.38249C19.8718 5.35124 19.9688 5.20346 19.9376 5.05265C19.9063 4.90184 19.7585 4.80478 19.6077 4.83604L17.5027 5.27239C17.3519 5.30364 17.2549 5.45142 17.2861 5.60223C17.3174 5.75304 17.4652 5.8501 17.616 5.81884Z" fill="white"/>
<path fill-rule="evenodd" clip-rule="evenodd" d="M3.4983 5.27239L1.3933 4.83604C1.24249 4.80478 1.09472 4.90184 1.06347 5.05265C1.03222 5.20346 1.12927 5.35124 1.28 5.38249L3.38499 5.81884C3.5358 5.8501 3.68358 5.75304 3.71492 5.60223C3.74617 5.45142 3.64911 5.30364 3.4983 5.27239Z" fill="white"/>
<path fill-rule="evenodd" clip-rule="evenodd" d="M15.4106 1.72645L17.1824 0.508986C17.3094 0.42175 17.3416 0.247903 17.2544 0.121023C17.1671 -0.00594664 16.9933 -0.0381801 16.8664 0.0490557L15.0947 1.26643C14.9677 1.35366 14.9354 1.52751 15.0227 1.65448C15.1098 1.78136 15.2837 1.81359 15.4106 1.72645Z" fill="white"/>
<path fill-rule="evenodd" clip-rule="evenodd" d="M5.90606 1.26643L4.13428 0.0490557C4.00732 -0.0381801 3.83347 -0.00594664 3.74632 0.121023C3.65909 0.247903 3.69132 0.42175 3.8182 0.508986L5.59006 1.72645C5.71694 1.81359 5.89079 1.78136 5.97802 1.65448C6.06526 1.52751 6.03302 1.35366 5.90606 1.26643Z" fill="white"/>
</svg>
