<svg width="236" height="96" viewBox="0 0 236 96" fill="none" xmlns="http://www.w3.org/2000/svg">
<path fill-rule="evenodd" clip-rule="evenodd" d="M7.83721 61.6585L32.4169 61.4698L33.5732 57.9527H6.16296L7.83721 61.6585Z" fill="#0254A8"/>
<path fill-rule="evenodd" clip-rule="evenodd" d="M29.8955 64.1517L9.6319 64.2883C11.547 71.0655 15.5901 85.2906 17.9589 92.8227C18.517 94.6053 19.1634 95.5568 19.8299 95.9021C19.9886 95.9865 20.1702 96.0175 20.3479 95.9905C20.7813 95.8979 21.1913 95.7176 21.5523 95.4605C22.1441 95.0715 22.6517 94.5675 23.0448 93.9785C23.4379 93.3895 23.7087 92.7274 23.8409 92.0317C24.5234 87.4065 28.1811 71.467 29.8834 64.1517H29.8955Z" fill="#0254A8"/>
<path d="M28.3095 14.7636C28.7657 15.3775 29.091 16.0785 29.2651 16.8233C29.6439 16.0328 29.8157 15.1591 29.7644 14.2841C29.7132 13.4091 29.4405 12.5614 28.972 11.8206C27.1572 8.93789 24.3508 10.2749 21.2512 7.70529C22.801 13.7719 26.1013 11.8929 28.3095 14.7636Z" fill="#CC2626"/>
<path d="M39.8847 34.5534C39.7926 33.2398 39.5735 31.9382 39.2303 30.6669C38.1675 27.0592 36.2217 23.7735 33.5692 21.1073C34.0038 22.2059 34.1058 23.408 33.8623 24.5641C33.4206 26.3267 32.5052 26.9731 32.5052 26.9731C32.3316 25.1166 31.6355 23.3473 30.4977 21.8701C23.4956 12.8083 13.5947 16.0082 11.1415 0.827637C11.1415 0.827637 7.02218 5.38864 5.70126 9.06234C4.38033 12.736 3.19592 17.8953 6.84954 26.2344C6.90575 26.3669 6.96196 26.4953 7.01415 26.6359L7.08642 26.8085C7.11453 26.8808 7.14263 26.945 7.17074 27.0093L7.31929 27.3827C7.36747 27.5111 7.41565 27.6316 7.45982 27.752C7.508 27.8685 7.54815 27.9889 7.59231 28.1094C7.63648 28.2258 7.67662 28.3422 7.71677 28.4627C7.75692 28.5831 7.79306 28.6956 7.82919 28.808L7.86533 28.9204L7.96169 29.2536C7.99381 29.3661 8.02191 29.4785 8.05403 29.5829L8.13835 29.9041C8.16645 30.0084 8.18653 30.1128 8.21463 30.2172C8.24274 30.3216 8.25879 30.426 8.27887 30.5264C8.29894 30.6268 8.32303 30.7311 8.34311 30.8275C8.36318 30.9239 8.37924 31.0283 8.3953 31.1246C8.3953 31.221 8.43144 31.3133 8.44348 31.4097C8.45553 31.506 8.46758 31.5984 8.48363 31.6907C8.49969 31.7831 8.48364 31.8794 8.51576 31.9678C8.54788 32.0561 8.53583 32.1484 8.54386 32.2368C8.55189 32.3251 8.54386 32.4134 8.54386 32.4977V32.7547C8.54386 32.839 8.54386 32.9233 8.54386 33.0036V33.2485C8.54386 33.3288 8.54386 33.4051 8.54386 33.4814V33.7102C8.54386 33.7865 8.54386 33.8588 8.54386 33.9311C8.54386 34.0033 8.52379 34.0796 8.51576 34.1479C8.50773 34.2161 8.51575 34.2884 8.48765 34.3567C8.45954 34.4249 8.46356 34.4932 8.4475 34.5574C8.43144 34.6216 8.42341 34.6899 8.40735 34.7541L8.35917 34.9428L8.37523 35.3564L8.31501 35.529C8.2967 35.5864 8.27525 35.6427 8.25077 35.6977C8.23069 35.7539 8.21062 35.8061 8.18653 35.8583C8.16244 35.9105 8.13433 35.9627 8.11426 36.0108L8.03797 36.1594C8.01388 36.2076 7.98578 36.2517 7.95767 36.2999L7.87336 36.4324L7.78101 36.5609L7.68867 36.6813L7.58829 36.7937C7.55416 36.8306 7.51797 36.8654 7.47989 36.8981L7.3755 36.9985L7.2671 37.0909L7.15066 37.1752L7.03021 37.2515C6.99246 37.2793 6.95213 37.3035 6.90977 37.3237L6.7853 37.388L6.65682 37.4442C6.61394 37.4647 6.56966 37.4821 6.52433 37.4964L6.39183 37.5405L6.25532 37.5767L6.1148 37.6048L5.97428 37.6248H5.82572H5.52862H5.37605H5.22347H5.06689L4.91031 37.6008L4.74971 37.5646L4.58911 37.5245L4.43252 37.4763L4.27996 37.4241L4.13542 37.3679L3.99489 37.3036L3.8624 37.2394L3.73794 37.1671C3.69607 37.146 3.65581 37.1219 3.61749 37.0949L3.49704 37.0186C3.38061 36.9383 3.2722 36.854 3.16781 36.7656C3.13903 36.7342 3.10818 36.7047 3.07547 36.6773L2.97911 36.585L2.89078 36.4886C2.86187 36.4583 2.83504 36.4261 2.81048 36.3923C2.73419 36.2919 2.66193 36.1915 2.59769 36.0951C2.5726 36.0591 2.54981 36.0216 2.52943 35.9827C2.46622 35.8823 2.40988 35.7776 2.3608 35.6696L2.30861 35.5611L2.28853 35.521C2.28853 35.4969 2.28854 35.4728 2.26043 35.4447L2.21225 35.3323L2.17611 35.2199V35.1918L2.14801 35.1034C2.11166 34.9953 2.08084 34.8855 2.05566 34.7742C2.05566 34.7381 2.05567 34.7019 2.02756 34.6658V34.6337C1.94048 34.2163 1.89476 33.7913 1.89105 33.365V32.9835C1.89105 32.8791 1.89105 32.7868 1.89105 32.6985V32.6383V32.4696V32.4174C1.89105 32.3773 1.89105 32.3371 1.91112 32.309V32.2649V32.1444C0.691214 34.3124 0.034154 36.7515 0 39.2389V39.4677C0.000856566 40.3517 0.0855521 41.2336 0.252945 42.1015C1.09207 46.518 4.00292 50.3282 8.11024 52.8095C10.1091 54.0087 12.2957 54.8624 14.5784 55.3349C14.7269 55.375 14.8795 55.4031 15.0321 55.4312C15.1056 54.112 15.5057 52.8317 16.1964 51.7053C16.357 51.4082 17.152 50.4768 18.228 50.6293C19.304 50.7819 21.7611 51.4323 22.3674 50.9104C22.3674 50.9104 23.2306 50.5089 22.9978 49.2321C22.9718 49.1113 22.9314 48.994 22.8773 48.8828C22.8189 48.7837 22.797 48.6672 22.8153 48.5536C22.8336 48.4399 22.891 48.3363 22.9777 48.2605C23.1134 48.1792 23.2542 48.1068 23.3993 48.0437C23.4987 47.9651 23.575 47.861 23.6201 47.7426C23.7325 47.4374 23.588 46.9075 22.7047 46.7509C22.7047 46.7509 23.7767 46.4417 23.9092 46.0804C23.9661 45.9465 23.982 45.7987 23.9548 45.6557C23.9277 45.5127 23.8587 45.3811 23.7566 45.2774C23.5799 45.0927 23.1945 44.4423 23.881 44.2536C23.881 44.2536 24.8888 44.0408 25.0012 43.3863C25.1136 42.7319 25.0012 42.7038 24.5997 42.1818C24.1982 41.6599 23.3952 40.9171 23.1905 40.6401C22.9857 40.3631 22.2751 39.3954 22.3875 38.6728C22.4855 38.2297 22.5367 37.7775 22.54 37.3237C22.5269 37.0896 22.4809 36.8585 22.4035 36.6372C22.3273 36.4043 22.1827 35.9707 21.9739 35.4327C21.4721 34.172 20.5848 32.3331 19.1996 31.1648C18.5933 30.6508 19.3 29.884 15.7026 28.7959L17.8144 28.0291C18.6281 27.7254 19.4764 27.5244 20.3398 27.4308C26.0371 26.8165 29.1969 28.8441 30.1243 30.0767C31.0518 31.3093 30.7065 32.3452 30.7065 32.3452C31.1226 33.028 31.4034 33.7845 31.5336 34.5735C31.6577 35.5028 31.5011 36.448 31.0839 37.2876C30.9675 37.6891 31.5175 38.8133 32.3406 40.2386C33.1637 41.6639 33.0793 42.222 32.7421 42.4268C32.4048 42.6315 32.0917 42.5673 31.634 42.6516C31.5562 42.6669 31.4822 42.6975 31.4164 42.7416C31.3506 42.7858 31.2942 42.8425 31.2505 42.9087C31.2067 42.9748 31.1766 43.0489 31.1618 43.1268C31.147 43.2047 31.1478 43.2847 31.1642 43.3622C31.2003 43.5509 31.4814 43.8802 31.377 44.109C31.2726 44.3379 30.5017 44.8076 30.5017 44.8076C30.5017 44.8076 30.9032 44.9522 30.9835 45.2091C31.0506 45.3727 31.0617 45.5539 31.0152 45.7245C30.9688 45.8951 30.8673 46.0456 30.7266 46.1526C30.3853 46.3253 30.2287 46.5301 30.5379 47.1323C30.847 47.7345 30.9394 48.7383 30.4335 49.3285C29.9276 49.9187 28.6388 49.7822 27.9161 49.7581C25.8243 49.6738 23.6281 53.9577 21.5965 55.6762C22.3999 55.5884 23.1975 55.4543 23.9854 55.2747H24.146C25.4359 54.9819 26.6944 54.565 27.9041 54.03C31.0335 52.7257 33.7436 50.5852 35.7373 47.8429C38.4348 44.3268 39.8931 40.0169 39.8847 35.5852C39.9128 35.2841 39.9048 34.9268 39.8847 34.5534Z" fill="#CC2626"/>
<path d="M50.7974 51.5568V36.4043H55.6716V51.4163C55.6716 52.2755 55.6716 52.8978 55.6716 53.2873C55.6716 53.6767 55.7037 54.1465 55.7358 54.7045C55.7439 55.1022 55.8074 55.4968 55.9245 55.8769C56.0276 56.1288 56.1511 56.3719 56.2939 56.6036C56.4271 56.8425 56.6448 57.0229 56.9042 57.1095C57.5012 57.2701 58.13 57.2701 58.727 57.1095C58.9844 57.0234 59.2006 56.8445 59.3333 56.6076C59.4766 56.3804 59.6002 56.1413 59.7026 55.893C59.8186 55.5167 59.882 55.1262 59.8913 54.7326C59.9275 54.1826 59.9475 53.7209 59.9556 53.3394C59.9636 52.958 59.9556 52.3477 59.9556 51.4966V36.4043H64.8297V51.5568C64.8297 52.3237 64.8097 53.0223 64.7655 53.6486C64.7145 54.2991 64.6288 54.9465 64.5085 55.5878C64.4032 56.1961 64.2323 56.7911 63.9987 57.3624C63.7793 57.8889 63.4918 58.3843 63.1435 58.8359C62.7957 59.2962 62.3672 59.6894 61.8787 59.9963C61.3315 60.3255 60.7371 60.5692 60.1162 60.719C58.5912 61.0777 57.0038 61.0777 55.4789 60.719C54.86 60.5708 54.2681 60.3269 53.7243 59.9963C53.2392 59.6881 52.8135 59.295 52.4677 58.8359C52.1195 58.3835 51.8308 57.8883 51.6084 57.3624C51.3771 56.79 51.2049 56.1953 51.0945 55.5878C50.9672 54.9475 50.88 54.2998 50.8336 53.6486C50.8175 53.0223 50.7974 52.3237 50.7974 51.5568Z" fill="#CC2626"/>
<path d="M70.3664 60.5182V36.3922H73.8755L79.1672 49.0073V36.3922H83.2143V60.5182H79.8417L74.562 47.1363V60.5182H70.3664Z" fill="#CC2626"/>
<path d="M88.8232 60.5182V36.4043H93.6974V60.5182H88.8232Z" fill="#CC2626"/>
<path d="M99.3103 60.5182V36.4043H104.333C105.671 36.3742 107.008 36.5214 108.308 36.8419C109.246 37.0711 110.098 37.5693 110.757 38.2753C111.359 38.9574 111.783 39.7782 111.99 40.6642C112.242 41.8311 112.357 43.0237 112.331 44.2174V52.1189C112.331 52.9781 112.307 53.7249 112.251 54.3632C112.203 54.9935 112.107 55.6191 111.961 56.2342C111.84 56.7795 111.637 57.3033 111.359 57.788C111.092 58.2357 110.761 58.6415 110.376 58.9925C109.951 59.3715 109.457 59.6659 108.922 59.8597C108.272 60.0962 107.6 60.2631 106.915 60.3576C106.042 60.4806 105.162 60.5383 104.281 60.5302L99.3103 60.5182ZM104.373 57.1015C104.839 57.1015 105.204 57.1015 105.473 57.1015C105.743 57.0895 106.012 57.056 106.276 57.0011C106.487 56.9717 106.688 56.8963 106.866 56.7803C107.007 56.6704 107.124 56.534 107.212 56.3788C107.325 56.1826 107.396 55.9653 107.421 55.7404C107.456 55.4352 107.472 55.1281 107.469 54.821V41.8165C107.469 41.0135 107.232 40.4875 106.758 40.2386C106.284 39.9897 105.489 39.8558 104.373 39.8371V57.1015Z" fill="#CC2626"/>
<path d="M115.904 60.5182L121.124 36.4043H125.436L130.655 60.5182H125.837L124.809 55.363H121.678L120.742 60.5182H115.904ZM121.999 52.3598H124.492L123.288 43.4104L121.999 52.3598Z" fill="#CC2626"/>
<path d="M134.923 60.5182V36.4043H139.962C141.299 36.3742 142.634 36.5213 143.933 36.8419C144.872 37.0713 145.725 37.5694 146.386 38.2753C146.988 38.9574 147.411 39.7782 147.618 40.6642C147.869 41.8315 147.983 43.0238 147.96 44.2174V52.1189C147.96 52.9781 147.932 53.7249 147.879 54.3633C147.824 54.9947 147.724 55.6213 147.578 56.2383C147.457 56.7843 147.253 57.3084 146.972 57.7921C146.705 58.2397 146.374 58.6456 145.988 58.9965C145.564 59.3756 145.07 59.6699 144.535 59.8638C143.885 60.1007 143.212 60.2676 142.527 60.3616C141.655 60.4848 140.775 60.5425 139.894 60.5343L134.923 60.5182ZM139.986 57.1015C140.452 57.1015 140.817 57.1015 141.086 57.1015C141.356 57.0898 141.625 57.0562 141.889 57.0011C142.086 56.9842 142.275 56.918 142.439 56.8085C142.603 56.699 142.737 56.5498 142.829 56.3748C142.941 56.1786 143.012 55.9613 143.037 55.7364C143.069 55.431 143.084 55.124 143.082 54.817V41.8165C143.082 41.0135 142.845 40.4875 142.371 40.2386C141.897 39.9897 141.102 39.8558 139.986 39.8371V57.1015Z" fill="#CC2626"/>
<path d="M172.893 66.0107L168.488 69.6402H165.766L168.127 66.0107H172.893Z" fill="#0254A8"/>
<path d="M50.9058 95.5288V71.4149H55.9406C57.2777 71.3845 58.613 71.5316 59.9114 71.8525C60.8514 72.0807 61.7042 72.579 62.3646 73.2858C62.9696 73.9737 63.3933 74.8017 63.5972 75.6948C63.8496 76.8618 63.9641 78.0544 63.9384 79.2481V87.1495C63.9384 88.0087 63.9103 88.7555 63.8581 89.3939C63.8071 90.0258 63.7064 90.6528 63.557 91.2689C63.4356 91.8142 63.2325 92.338 62.9548 92.8227C62.6865 93.2694 62.3552 93.6751 61.9711 94.0272C61.5456 94.4053 61.0525 94.6996 60.5177 94.8944C59.868 95.131 59.1951 95.2979 58.5102 95.3923C57.6391 95.5154 56.7601 95.5731 55.8804 95.5649L50.9058 95.5288ZM55.9687 92.112C56.4304 92.112 56.7998 92.112 57.0648 92.092C57.3347 92.0801 57.6032 92.0465 57.8678 91.9916C58.0771 91.9622 58.2773 91.8868 58.454 91.7708C58.5966 91.6622 58.7155 91.5255 58.8033 91.3693C58.9161 91.1731 58.9872 90.9558 59.0121 90.7309C59.0476 90.4257 59.0637 90.1186 59.0602 89.8115V76.827C59.0602 76.024 58.8233 75.4981 58.3496 75.2491C57.8758 75.0002 57.0809 74.8664 55.9647 74.8476L55.9687 92.112Z" fill="#0254A8"/>
<path d="M69.2422 95.5288V71.4149H79.2796V74.7674H74.1164V81.3318H77.786V84.7606H74.1164V92.1803H79.2997V95.5288H69.2422Z" fill="#0254A8"/>
<path d="M83.7844 95.5288V71.4149H89.6262L92.1998 87.4747L94.9701 71.4149H100.611V95.5288H97.0218L96.9134 78.5695C96.6457 80.312 96.1773 83.1386 95.5081 87.0492C94.839 90.9597 94.3706 93.7863 94.1029 95.5288H90.4573L87.4983 78.4611L87.3899 95.5288H83.7844Z" fill="#0254A8"/>
<path d="M105.915 87.5992V79.493C105.915 73.7971 108.264 70.9491 112.961 70.9491C117.659 70.9491 120.012 73.7971 120.02 79.493V87.4788C120.024 88.3745 119.953 89.269 119.807 90.1527C119.667 90.9565 119.421 91.7382 119.076 92.4774C118.755 93.174 118.31 93.8065 117.763 94.3444C117.185 94.8813 116.501 95.2915 115.756 95.5489C113.948 96.1325 112.003 96.1325 110.195 95.5489C109.452 95.2967 108.769 94.8949 108.187 94.3685C107.642 93.8475 107.198 93.2293 106.879 92.5457C106.532 91.8164 106.285 91.044 106.144 90.2491C105.988 89.3744 105.912 88.4876 105.915 87.5992ZM115.149 88.6993V78.2604C115.149 75.8835 114.421 74.6951 112.965 74.6951C112.569 74.6817 112.178 74.7972 111.853 75.0243C111.544 75.2501 111.311 75.5635 111.183 75.9237C111.042 76.2866 110.941 76.6634 110.881 77.0479C110.82 77.4464 110.79 77.8492 110.793 78.2524V88.6913C110.793 91.0548 111.517 92.2378 112.965 92.2405C114.413 92.2432 115.14 91.0628 115.145 88.6993H115.149Z" fill="#0254A8"/>
<path d="M125.014 87.4787V79.493C125.014 73.7971 127.345 70.9491 132.008 70.9491C132.897 70.9381 133.781 71.0737 134.626 71.3506C135.327 71.5702 135.975 71.9335 136.528 72.4174C137.081 72.9013 137.527 73.4951 137.838 74.1611C138.182 74.8608 138.425 75.6055 138.561 76.3733C138.715 77.24 138.789 78.1189 138.781 78.9991V81.0749H133.976V78.8385C133.976 78.4009 133.976 78.0355 133.947 77.7063C133.925 77.3422 133.878 76.9801 133.807 76.6223C133.751 76.2792 133.649 75.9455 133.502 75.6306C133.365 75.3702 133.166 75.147 132.924 74.9801C132.655 74.7959 132.334 74.7018 132.008 74.7111C130.595 74.7111 129.888 75.8996 129.888 78.2764V88.6832C129.888 91.0521 130.595 92.2351 132.008 92.2325C132.392 92.2443 132.768 92.1159 133.064 91.8711C133.368 91.5992 133.583 91.2426 133.682 90.8473C133.804 90.4217 133.888 89.9865 133.935 89.5465C133.983 89.0635 134.006 88.5784 134.004 88.093V85.6158H138.769V87.6514C138.759 88.5044 138.684 89.3553 138.545 90.1969C138.409 90.9765 138.18 91.7368 137.862 92.4613C137.571 93.1506 137.155 93.7796 136.633 94.3162C136.086 94.8485 135.432 95.2589 134.714 95.5207C133.849 95.8428 132.931 95.9994 132.008 95.9825C131.061 95.9999 130.119 95.8476 129.226 95.5328C128.48 95.2766 127.796 94.8662 127.218 94.3283C126.676 93.7929 126.237 93.1612 125.926 92.4653C125.585 91.7255 125.345 90.9438 125.211 90.1407C125.07 89.2605 125.004 88.37 125.014 87.4787Z" fill="#0254A8"/>
<path d="M143.792 95.5288V71.4148H149.096C150.167 71.4002 151.236 71.5162 152.28 71.7601C153.143 71.9617 153.96 72.324 154.689 72.8281C155.384 73.327 155.926 74.0097 156.255 74.7995C156.633 75.7417 156.815 76.7515 156.789 77.7665C156.789 78.2684 156.789 78.7141 156.736 79.1075C156.69 79.5619 156.607 80.0118 156.488 80.4526C156.373 80.921 156.196 81.372 155.962 81.7936C155.701 82.2231 155.374 82.6092 154.994 82.9378C154.552 83.3267 154.05 83.6425 153.508 83.8733C154.954 88.4664 156.213 92.3476 157.286 95.5167H152.232L149.473 84.4113H148.67V95.5167L143.792 95.5288ZM148.67 81.4523H150.064C150.422 81.457 150.767 81.3215 151.027 81.0749C151.301 80.8139 151.502 80.4859 151.609 80.1233C151.721 79.7784 151.805 79.4254 151.862 79.0674C151.91 78.7659 151.936 78.4613 151.939 78.156C151.938 77.8606 151.918 77.5655 151.878 77.2727C151.83 76.9307 151.758 76.5926 151.662 76.2609C151.575 75.9175 151.399 75.603 151.152 75.3495C151.04 75.234 150.906 75.1426 150.757 75.0812C150.609 75.0197 150.449 74.9894 150.288 74.9922H148.682L148.67 81.4523Z" fill="#0254A8"/>
<path d="M160.254 95.5288L165.473 71.4149H169.777L174.997 95.5288H170.179L169.175 90.3615H166.027L165.088 95.5167L160.254 95.5288ZM166.36 87.3703H168.854L167.649 78.421L166.36 87.3703Z" fill="#0254A8"/>
<path d="M180.895 95.5287V75.0524H177.357V71.4068H189.238V75.0524H185.769V95.5287H180.895Z" fill="#0254A8"/>
<path d="M193.606 95.5288V71.4149H198.48V95.5288H193.606Z" fill="#0254A8"/>
<path d="M203.784 87.4787V79.493C203.784 73.7971 206.114 70.9491 210.774 70.9491C211.664 70.9381 212.55 71.0737 213.396 71.3506C214.096 71.5717 214.743 71.9356 215.296 72.4193C215.849 72.9031 216.296 73.4961 216.608 74.1611C216.95 74.8615 217.193 75.6061 217.33 76.3733C217.484 77.24 217.558 78.1189 217.551 78.9991V81.0749H212.737V78.8385C212.737 78.4009 212.737 78.0355 212.709 77.7063C212.686 77.3422 212.64 76.9801 212.569 76.6223C212.514 76.2785 212.41 75.9445 212.259 75.6306C212.125 75.3695 211.928 75.146 211.685 74.9801C211.415 74.7959 211.093 74.7017 210.766 74.7111C209.358 74.7111 208.653 75.8996 208.65 78.2764V88.6832C208.65 91.0521 209.355 92.2351 210.766 92.2325C211.151 92.2431 211.527 92.1148 211.826 91.8711C212.13 91.6001 212.344 91.243 212.44 90.8473C212.563 90.4218 212.649 89.9866 212.697 89.5465C212.743 89.0634 212.765 88.5783 212.761 88.093V85.6158H217.555V87.6514C217.545 88.5044 217.47 89.3553 217.33 90.1969C217.194 90.9766 216.963 91.7369 216.644 92.4613C216.353 93.1495 215.938 93.7783 215.419 94.3162C214.871 94.8494 214.215 95.26 213.496 95.5207C212.631 95.8432 211.713 95.9998 210.79 95.9825C209.844 95.9996 208.904 95.8473 208.012 95.5328C207.265 95.2766 206.581 94.8662 206.004 94.3283C205.46 93.794 205.022 93.162 204.711 92.4653C204.37 91.7257 204.128 90.944 203.993 90.1407C203.85 89.2606 203.78 88.3703 203.784 87.4787Z" fill="#0254A8"/>
<path d="M221.249 95.5288L226.468 71.4149H230.781L236 95.5288H231.182L230.17 90.3615H227.023L226.083 95.5167L221.249 95.5288ZM227.356 87.3703H229.849L228.645 78.421L227.356 87.3703Z" fill="#0254A8"/>
</svg>
