<svg width="14" height="16" viewBox="0 0 14 16" fill="none" xmlns="http://www.w3.org/2000/svg">
<path fill-rule="evenodd" clip-rule="evenodd" d="M4.62535 2.46523H9.40298V1.32105H4.62535V2.46523ZM3.53862 1.36804V1.37374C3.16567 1.40862 2.79672 1.48481 2.43778 1.59944V1.59517C2.42711 1.59978 2.41706 1.60334 2.40742 1.60674C2.39476 1.61122 2.38281 1.61545 2.37106 1.62151C2.34238 1.62863 2.31435 1.63931 2.28767 1.65284C2.20894 1.67918 2.13021 1.71051 2.05616 1.74255C2.03648 1.75038 2.01679 1.75946 1.99711 1.76854C1.97743 1.77761 1.95775 1.78669 1.93807 1.79452C1.91105 1.8077 1.88286 1.82211 1.85467 1.83653C1.82649 1.85095 1.79829 1.86537 1.77127 1.87854L1.63784 1.95757C1.61317 1.97051 1.59033 1.98569 1.56703 2.00118C1.55315 2.0104 1.53911 2.01974 1.52442 2.02877C1.3236 2.16191 1.13746 2.31784 0.969331 2.49513L0.959323 2.50581C0.937243 2.53228 0.915254 2.55797 0.893564 2.58331C0.856927 2.62612 0.821136 2.66793 0.787192 2.71086L0.777185 2.72083C0.231436 3.49548 -0.0421055 4.45026 0.00526386 5.41787V5.72474H1.08275V5.41502C1.08275 4.0665 1.5004 3.22706 2.42978 2.79701C2.78471 2.64251 3.15966 2.5471 3.54129 2.51222H3.5513V1.37302L3.53862 1.36804ZM13.2204 2.70659L13.2251 2.71656C13.7702 3.49192 14.0424 4.44742 13.9944 5.41502V5.72474H12.9175V5.40719C12.9402 4.83617 12.8288 4.268 12.5926 3.75465C12.3658 3.31535 12.0028 2.9743 11.5645 2.78918C11.2156 2.63468 10.846 2.53856 10.469 2.50438V1.37089C10.842 1.40649 11.2109 1.48196 11.5705 1.59659V1.5909C11.5907 1.60033 11.6061 1.60593 11.6326 1.61556L11.6372 1.61724C11.6495 1.62171 11.661 1.62617 11.6723 1.63059C11.6881 1.63673 11.7036 1.64277 11.7206 1.64857C11.7944 1.67346 11.8634 1.7028 11.9344 1.73299L11.9468 1.73828C11.9796 1.75011 12.0104 1.76479 12.0382 1.77801C12.0472 1.78229 12.0559 1.78642 12.0642 1.79025C12.1229 1.8166 12.183 1.84793 12.231 1.87427C12.2631 1.89137 12.2943 1.90966 12.3235 1.92683C12.3393 1.93611 12.3546 1.94505 12.3691 1.9533C12.393 1.96688 12.4138 1.98141 12.4338 1.99538C12.4484 2.00558 12.4626 2.01548 12.4772 2.0245C12.6787 2.15836 12.8668 2.31499 13.037 2.49086L13.043 2.50154C13.1057 2.56633 13.1651 2.63468 13.2204 2.70659Z" fill="white"/>
<path d="M10.5001 3.09477C10.5001 3.41244 10.2495 3.66974 9.94014 3.66974C9.63074 3.66974 9.38014 3.41244 9.38014 3.09477V0.579293C9.37734 0.261624 9.62654 0.00216969 9.93594 1.35654e-05C10.2453 -0.00214256 10.498 0.252999 10.5001 0.570668V3.09477Z" fill="white"/>
<path d="M4.62 0.58268V3.09768C4.62 3.41672 4.3691 3.67541 4.05965 3.67541C3.75021 3.67541 3.5 3.41672 3.5 3.09768V0.58268C3.5 0.263635 3.75021 0.00566774 4.05965 0.00566774C4.3691 0.00566774 4.62 0.263635 4.62 0.58268Z" fill="white"/>
<path fill-rule="evenodd" clip-rule="evenodd" d="M0 11.9281V5.72473H14V11.9281C14 14.6333 12.5312 16 9.62041 16H4.37291C1.46876 16 0 14.6333 0 11.9281ZM3.1576 9.17342C3.1576 9.54874 3.44467 9.85325 3.79851 9.85325C4.15903 9.85325 4.4461 9.54166 4.43942 9.16634C4.43942 8.79102 4.15235 8.48652 3.80519 8.48652H3.79851C3.44467 8.48652 3.1576 8.7981 3.1576 9.17342ZM6.3556 9.17342C6.3556 9.54874 6.64935 9.85325 7.00319 9.85325C7.35703 9.85325 7.64411 9.54874 7.64411 9.16634C7.64411 8.7981 7.35703 8.4936 7.00319 8.48652H6.99652C6.64268 8.4936 6.3556 8.7981 6.3556 9.17342ZM10.2012 9.85326C9.84736 9.85326 9.56029 9.54875 9.56029 9.17343C9.56029 8.79811 9.84069 8.49361 10.2012 8.49361C10.555 8.49361 10.8421 8.79811 10.8421 9.17343C10.8421 9.54875 10.555 9.85326 10.2012 9.85326ZM10.2012 12.7567C9.84735 12.7567 9.56028 12.4522 9.5536 12.0768C9.5536 11.7015 9.84068 11.397 10.1945 11.397H10.2012C10.555 11.397 10.8421 11.7015 10.8421 12.0768C10.8421 12.4522 10.555 12.7567 10.2012 12.7567ZM7.00319 12.7567C6.64935 12.7567 6.3556 12.4522 6.3556 12.0768C6.3556 11.7015 6.64268 11.397 6.99652 11.3899H7.00319C7.35703 11.397 7.63743 11.7015 7.64411 12.0698C7.64411 12.4522 7.35703 12.7567 7.00319 12.7567ZM3.79863 12.7567C3.44479 12.7567 3.15771 12.4522 3.15771 12.0768C3.15103 11.7015 3.43811 11.3899 3.79863 11.3899C4.15246 11.3899 4.43954 11.6944 4.43954 12.0698C4.43954 12.4451 4.15246 12.7567 3.79863 12.7567Z" fill="white"/>
</svg>
