<svg width="343" height="174" viewBox="0 0 343 174" fill="none" xmlns="http://www.w3.org/2000/svg">
<path fill-rule="evenodd" clip-rule="evenodd" d="M11.3633 88.1995L47.0017 87.9259L48.6783 82.8264H8.93579L11.3633 88.1995Z" fill="#0254A8"/>
<path fill-rule="evenodd" clip-rule="evenodd" d="M43.3459 91.8146L13.9655 92.0125C16.7422 101.839 22.6044 122.464 26.039 133.385C26.8481 135.97 27.7854 137.349 28.7517 137.85C28.9817 137.972 29.2451 138.017 29.5027 137.978C30.1312 137.844 30.7256 137.582 31.2491 137.21C32.1071 136.646 32.843 135.915 33.413 135.061C33.9831 134.207 34.3756 133.247 34.5673 132.238C35.5569 125.532 40.8602 102.421 43.3284 91.8146H43.3459Z" fill="#0254A8"/>
<path d="M41.0465 20.206C41.7079 21.0961 42.1795 22.1125 42.4319 23.1923C42.9811 22.0463 43.2303 20.7795 43.1559 19.5108C43.0816 18.2421 42.6863 17.013 42.007 15.9389C39.3757 11.7592 35.3066 13.6977 30.8125 9.97202C33.0595 18.7681 37.8447 16.0437 41.0465 20.206Z" fill="#CC2626"/>
<path d="M57.8295 48.8995C57.6959 46.9949 57.3782 45.1077 56.8806 43.2644C55.3396 38.0336 52.5184 33.2696 48.6725 29.4037C49.3027 30.9966 49.4505 32.7397 49.0974 34.4159C48.4571 36.9715 47.1298 37.9087 47.1298 37.9087C46.878 35.217 45.8688 32.6516 44.2191 30.5098C34.0666 17.371 19.7112 22.0106 16.1543 0C16.1543 0 10.1816 6.61307 8.26634 11.9396C6.35111 17.2662 4.63381 24.7466 9.93125 36.8376C10.0128 37.0297 10.0943 37.216 10.1699 37.4197L10.2747 37.6701C10.3155 37.7749 10.3562 37.868 10.397 37.9611L10.6124 38.5025C10.6822 38.6888 10.7521 38.8634 10.8161 39.0381C10.886 39.2069 10.9442 39.3815 11.0082 39.5562C11.0722 39.725 11.1305 39.8938 11.1887 40.0685C11.2469 40.2431 11.2993 40.4061 11.3517 40.5691L11.4041 40.7321L11.5438 41.2153C11.5903 41.3783 11.6311 41.5413 11.6777 41.6926L11.7999 42.1583C11.8407 42.3097 11.8698 42.4611 11.9105 42.6124C11.9513 42.7638 11.9746 42.9151 12.0037 43.0607C12.0328 43.2062 12.0677 43.3575 12.0968 43.4973C12.1259 43.637 12.1492 43.7883 12.1725 43.928C12.1725 44.0678 12.2249 44.2016 12.2423 44.3414C12.2598 44.4811 12.2773 44.615 12.3006 44.7488C12.3238 44.8827 12.3006 45.0225 12.3471 45.1505C12.3937 45.2786 12.3762 45.4125 12.3879 45.5406C12.3995 45.6686 12.3879 45.7967 12.3879 45.9189V46.2915C12.3879 46.4138 12.3879 46.536 12.3879 46.6524V47.0075C12.3879 47.124 12.3879 47.2346 12.3879 47.3452V47.677C12.3879 47.7876 12.3879 47.8924 12.3879 47.9972C12.3879 48.102 12.3588 48.2126 12.3471 48.3115C12.3355 48.4105 12.3471 48.5153 12.3064 48.6142C12.2656 48.7132 12.2714 48.8122 12.2482 48.9053C12.2249 48.9984 12.2132 49.0974 12.1899 49.1906L12.1201 49.4642L12.1434 50.0638L12.0561 50.3141C12.0295 50.3972 11.9984 50.4788 11.9629 50.5586C11.9338 50.6401 11.9047 50.7158 11.8698 50.7914C11.8348 50.8671 11.7941 50.9428 11.765 51.0126L11.6544 51.228C11.6195 51.2979 11.5787 51.3619 11.538 51.4318L11.4157 51.6239L11.2818 51.8102L11.1479 51.9848L11.0024 52.1478C10.9529 52.2012 10.9004 52.2517 10.8452 52.2992L10.6938 52.4447L10.5367 52.5786L10.3679 52.7008L10.1932 52.8114C10.1385 52.8519 10.08 52.887 10.0186 52.9162L9.83811 53.0094L9.65183 53.0909C9.58965 53.1206 9.52546 53.1459 9.45972 53.1666L9.26762 53.2306L9.06969 53.283L8.86594 53.3237L8.6622 53.3528H8.4468H8.01603H7.79481H7.5736H7.34656L7.11953 53.3179L6.88668 53.2655L6.65383 53.2073L6.42679 53.1374L6.20558 53.0618L5.99601 52.9803L5.79226 52.8871L5.60015 52.794L5.41969 52.6892C5.35899 52.6586 5.30061 52.6236 5.24505 52.5844L5.07042 52.4738C4.9016 52.3574 4.74441 52.2351 4.59306 52.1071C4.55132 52.0614 4.5066 52.0187 4.45917 51.979V51.979L4.31945 51.8451L4.19138 51.7054C4.14947 51.6615 4.11057 51.6148 4.07496 51.5657C3.96435 51.4201 3.85957 51.2746 3.76643 51.1349C3.73006 51.0827 3.69701 51.0282 3.66746 50.9719C3.57581 50.8262 3.49413 50.6745 3.42297 50.5178L3.34729 50.3606L3.31818 50.3024C3.31818 50.2675 3.31818 50.2326 3.27743 50.1918L3.20757 50.0288L3.15518 49.8658V49.8251L3.11444 49.697C3.06173 49.5403 3.01704 49.381 2.98054 49.2197C2.98054 49.1673 2.98054 49.1149 2.93979 49.0625V49.0159C2.81353 48.4107 2.74724 47.7946 2.74187 47.1764V46.6233C2.74187 46.472 2.74187 46.3381 2.74187 46.21V46.1227V45.8782V45.8025C2.74187 45.7443 2.74186 45.6861 2.77097 45.6453V45.5813V45.4067C1.0022 48.55 0.0495205 52.0865 0 55.693V56.0248C0.00124195 57.3065 0.124043 58.5852 0.366749 59.8437C1.58341 66.2472 5.8039 71.7716 11.7592 75.3692C14.6573 77.108 17.8278 78.3459 21.1374 79.0309C21.3528 79.0891 21.574 79.1298 21.7952 79.1706C21.9019 77.2578 22.482 75.4015 23.4834 73.7684C23.7162 73.3376 24.8689 71.987 26.429 72.2082C27.9891 72.4295 31.5518 73.3725 32.4308 72.6157C32.4308 72.6157 33.6824 72.0336 33.3448 70.1824C33.3072 70.0072 33.2486 69.8371 33.1701 69.6759C33.0855 69.5322 33.0536 69.3633 33.0802 69.1985C33.1068 69.0338 33.1901 68.8835 33.3157 68.7736C33.5125 68.6558 33.7166 68.5508 33.9269 68.4593C34.0711 68.3453 34.1817 68.1944 34.2471 68.0227C34.4101 67.5803 34.2005 66.8118 32.9198 66.5848C32.9198 66.5848 34.4741 66.1366 34.6662 65.6126C34.7488 65.4185 34.7719 65.2042 34.7325 64.9969C34.6931 64.7896 34.5931 64.5987 34.445 64.4484C34.1889 64.1806 33.63 63.2375 34.6255 62.9639C34.6255 62.9639 36.0867 62.6554 36.2497 61.7065C36.4127 60.7576 36.2497 60.7169 35.6675 59.9601C35.0854 59.2033 33.9211 58.1264 33.6242 57.7247C33.3273 57.323 32.2969 55.9201 32.4599 54.8722C32.6021 54.2298 32.6763 53.5742 32.6812 52.9162C32.6621 52.5768 32.5955 52.2417 32.4832 51.9208C32.3726 51.5831 32.1631 50.9544 31.8603 50.1744C31.1327 48.3465 29.8462 45.6803 27.8378 43.9863C26.9588 43.2411 27.9833 42.1292 22.7674 40.5516L25.8294 39.4398C27.0091 38.9994 28.2392 38.7081 29.491 38.5724C37.7516 37.6817 42.333 40.6215 43.6777 42.4087C45.0225 44.1958 44.5218 45.6977 44.5218 45.6977C45.1251 46.6878 45.5323 47.7847 45.721 48.9286C45.9009 50.276 45.6739 51.6464 45.069 52.8638C44.9002 53.446 45.6977 55.076 46.8911 57.1425C48.0845 59.2091 47.9622 60.0183 47.4733 60.3152C46.9843 60.6121 46.5302 60.5189 45.8666 60.6412C45.7538 60.6634 45.6466 60.7078 45.5511 60.7718C45.4557 60.8357 45.3739 60.9181 45.3105 61.0139C45.2471 61.1098 45.2034 61.2173 45.182 61.3302C45.1605 61.4431 45.1617 61.5591 45.1855 61.6716C45.2379 61.9452 45.6453 62.4225 45.494 62.7543C45.3426 63.0862 44.2249 63.7673 44.2249 63.7673C44.2249 63.7673 44.8071 63.9768 44.9235 64.3494C45.0207 64.5866 45.0368 64.8493 44.9695 65.0967C44.9021 65.344 44.755 65.5622 44.5509 65.7174C44.0561 65.9677 43.8291 66.2646 44.2773 67.1378C44.7256 68.011 44.8595 69.4664 44.126 70.3221C43.3925 71.1779 41.5238 70.9799 40.476 70.945C37.443 70.8228 34.2587 77.0342 31.3131 79.5257C32.4779 79.3984 33.6344 79.2041 34.7769 78.9436H35.0097C36.8799 78.519 38.7047 77.9147 40.4585 77.1389C44.996 75.2478 48.9253 72.1442 51.816 68.1682C55.7273 63.0702 57.8417 56.8212 57.8295 50.3956C57.8702 49.959 57.8586 49.4409 57.8295 48.8995Z" fill="#CC2626"/>
<path d="M73.652 73.553V51.5831H80.7191V73.3492C80.7191 74.595 80.7191 75.4973 80.7191 76.062C80.7191 76.6267 80.7657 77.3078 80.8123 78.1169C80.824 78.6935 80.916 79.2656 81.0859 79.8168C81.2353 80.182 81.4144 80.5345 81.6214 80.8704C81.8145 81.2168 82.1301 81.4784 82.5063 81.6039C83.3719 81.8367 84.2836 81.8367 85.1492 81.6039C85.5224 81.479 85.8358 81.2196 86.0282 80.8762C86.2361 80.5468 86.4152 80.2001 86.5638 79.84C86.7318 79.2945 86.8239 78.7284 86.8374 78.1577C86.8898 77.3601 86.9189 76.6907 86.9305 76.1377C86.9422 75.5846 86.9305 74.6998 86.9305 73.4657V51.5831H93.9976V73.553C93.9976 74.6649 93.9686 75.6778 93.9045 76.5859C93.8306 77.5291 93.7063 78.4677 93.5319 79.3976C93.3792 80.2795 93.1313 81.1422 92.7926 81.9707C92.4747 82.734 92.0578 83.4523 91.5527 84.1071C91.0485 84.7744 90.4271 85.3445 89.719 85.7895C88.9254 86.2669 88.0636 86.6202 87.1634 86.8373C84.9523 87.3575 82.6507 87.3575 80.4397 86.8373C79.5424 86.6225 78.6841 86.2689 77.8958 85.7895C77.1923 85.3427 76.5751 84.7728 76.0737 84.1071C75.5689 83.4511 75.1502 82.7331 74.8279 81.9707C74.4924 81.1406 74.2427 80.2785 74.0828 79.3976C73.8981 78.4692 73.7718 77.5301 73.7044 76.5859C73.6811 75.6778 73.652 74.6649 73.652 73.553Z" fill="#CC2626"/>
<path d="M102.025 86.5463V51.5657H107.113L114.786 69.8564V51.5657H120.654V86.5463H115.764L108.109 67.1437V86.5463H102.025Z" fill="#CC2626"/>
<path d="M128.786 86.5463V51.5831H135.853V86.5463H128.786Z" fill="#CC2626"/>
<path d="M143.992 86.5463V51.5831H151.274C153.215 51.5395 155.153 51.7529 157.037 52.2177C158.398 52.55 159.632 53.2723 160.588 54.2959C161.461 55.2849 162.075 56.475 162.375 57.7596C162.741 59.4516 162.907 61.1808 162.87 62.9115V74.368C162.87 75.6137 162.835 76.6965 162.754 77.6221C162.685 78.5359 162.545 79.443 162.335 80.3349C162.159 81.1255 161.864 81.885 161.461 82.5877C161.074 83.2368 160.594 83.8252 160.035 84.3341C159.419 84.8837 158.704 85.3105 157.928 85.5916C156.986 85.9344 156.01 86.1763 155.017 86.3134C153.752 86.4918 152.476 86.5755 151.198 86.5637L143.992 86.5463ZM151.332 81.5923C152.008 81.5923 152.537 81.5923 152.927 81.5923C153.319 81.575 153.708 81.5263 154.092 81.4467C154.397 81.4041 154.689 81.2948 154.947 81.1266C155.151 80.9673 155.321 80.7695 155.448 80.5444C155.612 80.2601 155.715 79.9449 155.751 79.6188C155.802 79.1764 155.826 78.7311 155.821 78.2857V59.4303C155.821 58.2661 155.477 57.5035 154.79 57.1425C154.103 56.7816 152.951 56.5876 151.332 56.5604V81.5923Z" fill="#CC2626"/>
<path d="M168.051 86.5463L175.619 51.5831H181.871L189.439 86.5463H182.453L180.963 79.0716H176.422L175.066 86.5463H168.051ZM176.888 74.7172H180.503L178.757 61.7414L176.888 74.7172Z" fill="#CC2626"/>
<path d="M195.627 86.5463V51.5831H202.933C204.872 51.5394 206.808 51.7528 208.69 52.2176C210.053 52.5502 211.288 53.2724 212.247 54.2959C213.12 55.2849 213.734 56.475 214.034 57.7596C214.397 59.4521 214.563 61.1809 214.529 62.9115V74.368C214.529 75.6137 214.488 76.6965 214.413 77.6221C214.333 78.5376 214.187 79.4462 213.976 80.3407C213.801 81.1324 213.504 81.8923 213.097 82.5936C212.71 83.2426 212.229 83.8311 211.671 84.34C211.055 84.8895 210.34 85.3163 209.563 85.5974C208.622 85.9409 207.646 86.1829 206.653 86.3192C205.388 86.4978 204.111 86.5815 202.834 86.5695L195.627 86.5463ZM202.968 81.5923C203.643 81.5923 204.173 81.5923 204.563 81.5923C204.954 81.5754 205.344 81.5267 205.727 81.4467C206.012 81.4223 206.287 81.3262 206.525 81.1675C206.763 81.0087 206.957 80.7924 207.089 80.5386C207.253 80.2542 207.356 79.9391 207.392 79.613C207.438 79.1702 207.46 78.7251 207.456 78.2799V59.4303C207.456 58.2661 207.113 57.5035 206.426 57.1425C205.739 56.7816 204.586 56.5876 202.968 56.5604V81.5923Z" fill="#CC2626"/>
<path d="M250.68 94.5099L244.294 99.7724H240.347L243.77 94.5099H250.68Z" fill="#0254A8"/>
<path d="M73.8091 137.309V102.345H81.1091C83.0478 102.301 84.9838 102.515 86.8664 102.98C88.2294 103.311 89.4658 104.033 90.4233 105.058C91.3006 106.056 91.9149 107.256 92.2104 108.551C92.5764 110.243 92.7425 111.972 92.7053 113.703V125.159C92.7053 126.405 92.6645 127.488 92.5888 128.414C92.5148 129.33 92.3688 130.239 92.1522 131.132C91.9761 131.923 91.6818 132.682 91.279 133.385C90.8901 134.033 90.4097 134.621 89.8528 135.131C89.2359 135.68 88.5209 136.106 87.7454 136.389C86.8035 136.732 85.8278 136.974 84.8348 137.111C83.5718 137.289 82.2972 137.373 81.0218 137.361L73.8091 137.309ZM81.1498 132.355C81.8193 132.355 82.3548 132.355 82.7391 132.326C83.1304 132.308 83.5198 132.26 83.9033 132.18C84.2068 132.137 84.4971 132.028 84.7533 131.86C84.9601 131.702 85.1324 131.504 85.2597 131.278C85.4233 130.993 85.5264 130.678 85.5624 130.352C85.6139 129.91 85.6372 129.464 85.6323 129.019V110.193C85.6323 109.028 85.2888 108.266 84.6019 107.905C83.915 107.544 82.7623 107.35 81.144 107.323L81.1498 132.355Z" fill="#0254A8"/>
<path d="M100.395 137.309V102.345H114.949V107.206H107.462V116.724H112.783V121.696H107.462V132.454H114.978V137.309H100.395Z" fill="#0254A8"/>
<path d="M121.48 137.309V102.345H129.95L133.682 125.631L137.699 102.345H145.878V137.309H140.673L140.516 112.719C140.128 115.246 139.449 119.344 138.479 125.014C137.508 130.684 136.829 134.782 136.441 137.309H131.155L126.865 112.562L126.708 137.309H121.48Z" fill="#0254A8"/>
<path d="M153.568 125.811V114.058C153.568 105.799 156.973 101.67 163.784 101.67C170.595 101.67 174.007 105.799 174.018 114.058V125.637C174.025 126.936 173.922 128.233 173.71 129.514C173.507 130.679 173.151 131.813 172.65 132.884C172.184 133.894 171.54 134.812 170.747 135.591C169.909 136.37 168.917 136.965 167.836 137.338C165.215 138.184 162.394 138.184 159.773 137.338C158.696 136.972 157.706 136.39 156.863 135.626C156.071 134.871 155.428 133.975 154.965 132.983C154.463 131.926 154.104 130.806 153.9 129.654C153.674 128.385 153.563 127.099 153.568 125.811V125.811ZM166.957 127.406V112.271C166.957 108.825 165.901 107.102 163.79 107.102C163.215 107.082 162.649 107.25 162.178 107.579C161.73 107.906 161.391 108.361 161.205 108.883C161.002 109.409 160.856 109.955 160.769 110.513C160.68 111.091 160.637 111.675 160.641 112.259V127.395C160.641 130.822 161.69 132.537 163.79 132.541C165.89 132.545 166.943 130.833 166.951 127.406H166.957Z" fill="#0254A8"/>
<path d="M181.26 125.637V114.058C181.26 105.799 184.64 101.67 191.401 101.67C192.689 101.654 193.972 101.851 195.196 102.252C196.213 102.571 197.152 103.097 197.954 103.799C198.756 104.501 199.403 105.362 199.853 106.327C200.352 107.342 200.705 108.422 200.901 109.535C201.125 110.791 201.232 112.066 201.221 113.342V116.352H194.253V113.109C194.253 112.475 194.253 111.945 194.212 111.468C194.18 110.94 194.111 110.415 194.009 109.896C193.928 109.398 193.779 108.915 193.566 108.458C193.367 108.08 193.08 107.757 192.728 107.515C192.338 107.248 191.873 107.111 191.401 107.125C189.352 107.125 188.327 108.848 188.327 112.294V127.383C188.327 130.818 189.352 132.533 191.401 132.529C191.958 132.546 192.502 132.36 192.932 132.005C193.372 131.611 193.684 131.094 193.828 130.521C194.004 129.904 194.127 129.273 194.195 128.635C194.264 127.934 194.297 127.231 194.294 126.527V122.936H201.204V125.887C201.189 127.124 201.08 128.358 200.878 129.578C200.682 130.708 200.349 131.811 199.888 132.861C199.467 133.86 198.863 134.772 198.107 135.551C197.313 136.322 196.365 136.917 195.324 137.297C194.07 137.764 192.739 137.991 191.401 137.966C190.028 137.992 188.662 137.771 187.367 137.314C186.284 136.943 185.293 136.348 184.456 135.568C183.669 134.792 183.033 133.876 182.581 132.867C182.088 131.794 181.74 130.661 181.545 129.496C181.341 128.22 181.246 126.929 181.26 125.637V125.637Z" fill="#0254A8"/>
<path d="M208.486 137.309V102.345H216.176C217.73 102.324 219.28 102.492 220.793 102.846C222.044 103.138 223.229 103.664 224.286 104.395C225.293 105.118 226.079 106.108 226.556 107.253C227.105 108.619 227.368 110.083 227.33 111.555C227.33 112.283 227.33 112.929 227.255 113.499C227.188 114.158 227.067 114.81 226.894 115.449C226.727 116.129 226.471 116.783 226.131 117.394C225.753 118.017 225.279 118.576 224.728 119.053C224.087 119.617 223.36 120.074 222.574 120.409C224.67 127.069 226.496 132.696 228.052 137.291H220.723L216.724 121.189H215.559V137.291L208.486 137.309ZM215.559 116.899H217.579C218.099 116.906 218.6 116.709 218.977 116.352C219.373 115.973 219.664 115.498 219.821 114.972C219.982 114.472 220.105 113.96 220.187 113.441C220.257 113.004 220.294 112.562 220.298 112.12C220.297 111.691 220.268 111.263 220.211 110.839C220.141 110.343 220.036 109.853 219.896 109.372C219.771 108.874 219.516 108.418 219.157 108.05C218.995 107.883 218.8 107.75 218.585 107.661C218.37 107.572 218.138 107.528 217.905 107.532H215.577L215.559 116.899Z" fill="#0254A8"/>
<path d="M232.354 137.309L239.922 102.345H246.162L253.73 137.309H246.744L245.289 129.816H240.725L239.363 137.291L232.354 137.309ZM241.208 125.48H244.823L243.077 112.504L241.208 125.48Z" fill="#0254A8"/>
<path d="M262.282 137.309V107.62H257.153V102.334H274.378V107.62H269.349V137.309H262.282Z" fill="#0254A8"/>
<path d="M280.712 137.309V102.345H287.779V137.309H280.712Z" fill="#0254A8"/>
<path d="M295.469 125.637V114.058C295.469 105.799 298.848 101.67 305.604 101.67C306.895 101.654 308.179 101.851 309.406 102.252C310.421 102.573 311.36 103.101 312.161 103.802C312.963 104.503 313.61 105.363 314.063 106.327C314.559 107.343 314.911 108.422 315.111 109.535C315.334 110.791 315.441 112.066 315.431 113.342V116.352H308.451V113.109C308.451 112.475 308.451 111.945 308.41 111.468C308.377 110.94 308.309 110.415 308.206 109.896C308.127 109.397 307.976 108.913 307.758 108.458C307.563 108.079 307.277 107.755 306.926 107.515C306.534 107.248 306.067 107.111 305.593 107.125C303.551 107.125 302.529 108.848 302.525 112.294V127.383C302.525 130.818 303.547 132.533 305.593 132.529C306.151 132.545 306.697 132.359 307.13 132.005C307.57 131.612 307.881 131.095 308.02 130.521C308.198 129.904 308.323 129.273 308.393 128.635C308.46 127.934 308.491 127.231 308.486 126.527V122.936H315.437V125.887C315.421 127.124 315.312 128.358 315.111 129.578C314.912 130.708 314.578 131.811 314.115 132.861C313.693 133.859 313.091 134.771 312.34 135.551C311.544 136.324 310.594 136.919 309.551 137.297C308.297 137.764 306.966 137.992 305.628 137.966C304.257 137.991 302.892 137.77 301.599 137.314C300.517 136.943 299.525 136.348 298.689 135.568C297.9 134.793 297.264 133.877 296.814 132.867C296.319 131.794 295.969 130.661 295.772 129.496C295.565 128.22 295.464 126.929 295.469 125.637Z" fill="#0254A8"/>
<path d="M320.792 137.309L328.36 102.345H334.612L342.18 137.309H335.194L333.727 129.816H329.163L327.801 137.291L320.792 137.309ZM329.647 125.48H333.262L331.515 112.504L329.647 125.48Z" fill="#0254A8"/>
<path d="M78.9142 169.128C77.3035 169.128 75.9222 168.531 74.7702 167.336L76.1142 165.672C76.5195 166.141 76.9729 166.499 77.4742 166.744C77.9755 166.979 78.4662 167.096 78.9462 167.096C79.4795 167.096 79.8849 166.989 80.1622 166.776C80.4395 166.552 80.5782 166.259 80.5782 165.896C80.5782 165.501 80.4342 165.203 80.1462 165C79.8582 164.787 79.3409 164.552 78.5942 164.296C78.0822 164.115 77.6555 163.944 77.3142 163.784C76.9729 163.613 76.6209 163.389 76.2582 163.112C75.8955 162.835 75.6235 162.499 75.4422 162.104C75.2609 161.709 75.1702 161.256 75.1702 160.744C75.1702 159.837 75.5222 159.075 76.2262 158.456C76.9302 157.837 77.7942 157.517 78.8182 157.496C80.2049 157.485 81.4795 157.965 82.6422 158.936L81.3462 160.632C80.4502 159.885 79.6235 159.512 78.8662 159.512C78.4609 159.512 78.1302 159.613 77.8742 159.816C77.6289 160.019 77.5062 160.296 77.5062 160.648C77.4955 160.979 77.6289 161.245 77.9062 161.448C78.1835 161.64 78.6849 161.88 79.4102 162.168C80.5835 162.627 81.3515 162.979 81.7142 163.224C82.5249 163.779 82.9302 164.584 82.9302 165.64C82.9302 166.781 82.5249 167.651 81.7142 168.248C80.9035 168.835 79.9702 169.128 78.9142 169.128ZM88.3699 169.128C87.1433 169.128 86.1459 168.749 85.3779 167.992C84.6099 167.235 84.2259 166.269 84.2259 165.096C84.2259 163.923 84.6099 162.957 85.3779 162.2C86.1459 161.443 87.1433 161.064 88.3699 161.064C89.5859 161.064 90.5833 161.437 91.3619 162.184C92.1406 162.931 92.5299 163.901 92.5299 165.096C92.5299 166.291 92.1406 167.261 91.3619 168.008C90.5833 168.755 89.5859 169.128 88.3699 169.128ZM88.3699 167.256C88.9459 167.256 89.4259 167.053 89.8099 166.648C90.2046 166.243 90.4019 165.725 90.4019 165.096C90.4019 164.456 90.2099 163.939 89.8259 163.544C89.4419 163.139 88.9566 162.936 88.3699 162.936C87.7726 162.936 87.2819 163.144 86.8979 163.56C86.5246 163.965 86.3379 164.477 86.3379 165.096C86.3379 165.704 86.5299 166.216 86.9139 166.632C87.2979 167.048 87.7833 167.256 88.3699 167.256ZM103.724 161.064C105.559 161.064 106.476 162.195 106.476 164.456V169H104.38V164.968C104.38 163.613 103.927 162.936 103.02 162.936C102.562 162.936 102.178 163.128 101.868 163.512C101.57 163.885 101.42 164.413 101.42 165.096V169H99.3244V164.968C99.3244 163.613 98.8658 162.936 97.9484 162.936C97.4578 162.936 97.0578 163.128 96.7484 163.512C96.4498 163.885 96.3004 164.413 96.3004 165.096V169H94.2044V161.192H96.3004V162.232H96.3164C96.9351 161.453 97.7138 161.064 98.6524 161.064C99.7404 161.064 100.514 161.48 100.972 162.312H101.004C101.655 161.48 102.562 161.064 103.724 161.064ZM112.198 169.128C110.971 169.128 109.974 168.749 109.206 167.992C108.438 167.235 108.054 166.269 108.054 165.096C108.054 163.923 108.438 162.957 109.206 162.2C109.974 161.443 110.971 161.064 112.198 161.064C113.414 161.064 114.411 161.437 115.19 162.184C115.969 162.931 116.358 163.901 116.358 165.096C116.358 166.291 115.969 167.261 115.19 168.008C114.411 168.755 113.414 169.128 112.198 169.128ZM112.198 167.256C112.774 167.256 113.254 167.053 113.638 166.648C114.033 166.243 114.23 165.725 114.23 165.096C114.23 164.456 114.038 163.939 113.654 163.544C113.27 163.139 112.785 162.936 112.198 162.936C111.601 162.936 111.11 163.144 110.726 163.56C110.353 163.965 110.166 164.477 110.166 165.096C110.166 165.704 110.358 166.216 110.742 166.632C111.126 167.048 111.611 167.256 112.198 167.256ZM120.561 169.128C119.334 169.128 118.278 168.749 117.393 167.992L118.417 166.536C119.057 167.144 119.777 167.448 120.577 167.448C120.875 167.448 121.11 167.389 121.281 167.272C121.451 167.155 121.537 167 121.537 166.808C121.537 166.637 121.435 166.493 121.233 166.376C121.03 166.259 120.657 166.115 120.113 165.944C119.355 165.688 118.763 165.373 118.337 165C117.921 164.616 117.713 164.083 117.713 163.4C117.713 162.707 117.979 162.147 118.513 161.72C119.046 161.283 119.718 161.064 120.529 161.064C121.595 161.064 122.545 161.389 123.377 162.04L122.369 163.576C121.782 163.021 121.158 162.744 120.497 162.744C120.305 162.744 120.129 162.797 119.969 162.904C119.809 163 119.729 163.144 119.729 163.336C119.729 163.485 119.819 163.624 120.001 163.752C120.193 163.869 120.497 164.008 120.913 164.168C121.339 164.328 121.654 164.451 121.857 164.536C122.059 164.611 122.299 164.728 122.577 164.888C122.854 165.037 123.046 165.187 123.153 165.336C123.27 165.475 123.371 165.661 123.457 165.896C123.553 166.131 123.601 166.397 123.601 166.696C123.601 167.421 123.339 168.008 122.817 168.456C122.305 168.904 121.553 169.128 120.561 169.128ZM129.504 169V157.224H131.6V169H129.504ZM139.398 161.192H141.478V169H139.494V168.056H139.446C138.902 168.771 138.123 169.128 137.11 169.128C136.022 169.128 135.126 168.76 134.422 168.024C133.728 167.277 133.382 166.307 133.382 165.112C133.382 163.939 133.728 162.973 134.422 162.216C135.126 161.448 136.006 161.064 137.062 161.064C138.032 161.064 138.795 161.4 139.35 162.072H139.398V161.192ZM137.494 167.256C138.048 167.256 138.518 167.059 138.902 166.664C139.286 166.269 139.478 165.757 139.478 165.128C139.478 164.499 139.291 163.976 138.918 163.56C138.544 163.144 138.075 162.936 137.51 162.936C136.934 162.936 136.454 163.139 136.07 163.544C135.686 163.939 135.494 164.467 135.494 165.128C135.494 165.757 135.68 166.269 136.054 166.664C136.427 167.059 136.907 167.256 137.494 167.256ZM153.272 169.112C151.586 169.112 150.194 168.595 149.096 167.56C148.008 166.525 147.464 165.117 147.464 163.336C147.464 161.64 147.981 160.243 149.016 159.144C150.05 158.045 151.437 157.496 153.176 157.496C154.018 157.496 154.84 157.661 155.64 157.992C156.44 158.323 157.122 158.808 157.688 159.448L156.088 160.792C155.277 160.013 154.306 159.624 153.176 159.624C152.216 159.624 151.416 159.96 150.776 160.632C150.136 161.304 149.816 162.205 149.816 163.336C149.816 164.403 150.13 165.288 150.76 165.992C151.389 166.696 152.226 167.048 153.272 167.048C154.104 167.048 154.872 166.835 155.576 166.408V164.728H153.016V162.808H157.736V167.704C157.213 168.131 156.552 168.472 155.752 168.728C154.952 168.984 154.125 169.112 153.272 169.112ZM167.063 165.016C167.063 165.432 167.047 165.683 167.015 165.768H161.527C161.655 166.237 161.895 166.605 162.247 166.872C162.599 167.139 163.025 167.272 163.527 167.272C164.284 167.283 164.908 166.989 165.399 166.392L166.759 167.656C165.98 168.637 164.855 169.128 163.383 169.128C162.22 169.128 161.26 168.755 160.503 168.008C159.745 167.261 159.367 166.285 159.367 165.08C159.367 163.907 159.729 162.947 160.455 162.2C161.191 161.443 162.119 161.064 163.239 161.064C164.369 161.064 165.287 161.437 165.991 162.184C166.705 162.92 167.063 163.864 167.063 165.016ZM163.303 162.904C162.865 162.904 162.492 163.021 162.183 163.256C161.873 163.491 161.66 163.827 161.543 164.264H164.983C164.748 163.357 164.188 162.904 163.303 162.904ZM173.36 161.064C175.258 161.064 176.208 162.163 176.208 164.36V169H174.112V164.888C174.112 164.173 173.989 163.672 173.744 163.384C173.498 163.085 173.12 162.936 172.608 162.936C172.064 162.936 171.632 163.123 171.312 163.496C170.992 163.859 170.832 164.381 170.832 165.064V169H168.736V161.192H170.832V162.2H170.864C171.504 161.443 172.336 161.064 173.36 161.064ZM185.484 165.016C185.484 165.432 185.468 165.683 185.436 165.768H179.948C180.076 166.237 180.316 166.605 180.668 166.872C181.02 167.139 181.447 167.272 181.948 167.272C182.706 167.283 183.33 166.989 183.82 166.392L185.18 167.656C184.402 168.637 183.276 169.128 181.804 169.128C180.642 169.128 179.682 168.755 178.924 168.008C178.167 167.261 177.788 166.285 177.788 165.08C177.788 163.907 178.151 162.947 178.876 162.2C179.612 161.443 180.54 161.064 181.66 161.064C182.791 161.064 183.708 161.437 184.412 162.184C185.127 162.92 185.484 163.864 185.484 165.016ZM181.724 162.904C181.287 162.904 180.914 163.021 180.604 163.256C180.295 163.491 180.082 163.827 179.964 164.264H183.404C183.17 163.357 182.61 162.904 181.724 162.904ZM191.638 161.064C191.723 161.064 191.776 161.069 191.798 161.08V163.352C191.659 163.341 191.478 163.336 191.254 163.336C190.624 163.336 190.134 163.528 189.782 163.912C189.43 164.285 189.254 164.771 189.254 165.368V169H187.158V161.192H189.254V162.344H189.27C189.878 161.491 190.667 161.064 191.638 161.064Z" fill="#0254A8"/>
<path d="M198.742 161.192H200.822V169H198.838V168.056H198.79C198.246 168.771 197.467 169.128 196.454 169.128C195.366 169.128 194.47 168.76 193.766 168.024C193.072 167.277 192.726 166.307 192.726 165.112C192.726 163.939 193.072 162.973 193.766 162.216C194.47 161.448 195.35 161.064 196.406 161.064C197.376 161.064 198.139 161.4 198.694 162.072H198.742V161.192ZM196.838 167.256C197.392 167.256 197.862 167.059 198.246 166.664C198.63 166.269 198.822 165.757 198.822 165.128C198.822 164.499 198.635 163.976 198.262 163.56C197.888 163.144 197.419 162.936 196.854 162.936C196.278 162.936 195.798 163.139 195.414 163.544C195.03 163.939 194.838 164.467 194.838 165.128C194.838 165.757 195.024 166.269 195.398 166.664C195.771 167.059 196.251 167.256 196.838 167.256ZM206.476 169.128C205.303 169.128 204.338 168.755 203.58 168.008C202.834 167.261 202.46 166.291 202.46 165.096C202.46 163.901 202.839 162.931 203.596 162.184C204.364 161.437 205.356 161.064 206.572 161.064C207.223 161.064 207.842 161.192 208.428 161.448C209.015 161.704 209.5 162.072 209.884 162.552L208.476 163.768C207.996 163.213 207.388 162.936 206.652 162.936C206.034 162.936 205.532 163.139 205.148 163.544C204.764 163.939 204.572 164.451 204.572 165.08C204.572 165.72 204.764 166.243 205.148 166.648C205.543 167.053 206.05 167.256 206.668 167.256C207.415 167.256 208.023 166.989 208.492 166.456L209.916 167.72C209.554 168.136 209.074 168.477 208.476 168.744C207.89 169 207.223 169.128 206.476 169.128ZM212.528 160.088C212.176 160.088 211.872 159.965 211.616 159.72C211.36 159.464 211.232 159.16 211.232 158.808C211.232 158.456 211.36 158.157 211.616 157.912C211.872 157.656 212.176 157.528 212.528 157.528C212.891 157.528 213.2 157.656 213.456 157.912C213.712 158.157 213.84 158.456 213.84 158.808C213.84 159.16 213.712 159.464 213.456 159.72C213.2 159.965 212.891 160.088 212.528 160.088ZM211.472 169V161.192H213.568V169H211.472ZM218.487 160.104L220.295 157.752L222.487 157.736L220.503 160.104H218.487ZM219.511 169.128C218.284 169.128 217.287 168.749 216.519 167.992C215.751 167.235 215.367 166.269 215.367 165.096C215.367 163.923 215.751 162.957 216.519 162.2C217.287 161.443 218.284 161.064 219.511 161.064C220.727 161.064 221.724 161.437 222.503 162.184C223.281 162.931 223.671 163.901 223.671 165.096C223.671 166.291 223.281 167.261 222.503 168.008C221.724 168.755 220.727 169.128 219.511 169.128ZM219.511 167.256C220.087 167.256 220.567 167.053 220.951 166.648C221.345 166.243 221.543 165.725 221.543 165.096C221.543 164.456 221.351 163.939 220.967 163.544C220.583 163.139 220.097 162.936 219.511 162.936C218.913 162.936 218.423 163.144 218.039 163.56C217.665 163.965 217.479 164.477 217.479 165.096C217.479 165.704 217.671 166.216 218.055 166.632C218.439 167.048 218.924 167.256 219.511 167.256ZM229.969 161.064C231.868 161.064 232.817 162.163 232.817 164.36V169H230.721V164.888C230.721 164.173 230.598 163.672 230.353 163.384C230.108 163.085 229.729 162.936 229.217 162.936C228.673 162.936 228.241 163.123 227.921 163.496C227.601 163.859 227.441 164.381 227.441 165.064V169H225.345V161.192H227.441V162.2H227.473C228.113 161.443 228.945 161.064 229.969 161.064ZM244.665 157.224H246.761V169H244.761V168.056H244.729C244.164 168.771 243.364 169.128 242.329 169.128C241.241 169.128 240.345 168.76 239.641 168.024C238.937 167.277 238.585 166.307 238.585 165.112C238.585 163.939 238.932 162.973 239.625 162.216C240.329 161.448 241.209 161.064 242.265 161.064C243.257 161.064 244.041 161.4 244.617 162.072H244.665V157.224ZM241.273 166.664C241.646 167.059 242.126 167.256 242.713 167.256C243.3 167.256 243.79 167.059 244.185 166.664C244.58 166.269 244.777 165.757 244.777 165.128C244.777 164.499 244.58 163.976 244.185 163.56C243.801 163.144 243.31 162.936 242.713 162.936C242.137 162.936 241.657 163.139 241.273 163.544C240.9 163.939 240.713 164.467 240.713 165.128C240.713 165.757 240.9 166.269 241.273 166.664ZM256.156 165.016C256.156 165.432 256.14 165.683 256.108 165.768H250.62C250.748 166.237 250.988 166.605 251.34 166.872C251.692 167.139 252.119 167.272 252.62 167.272C253.378 167.283 254.002 166.989 254.492 166.392L255.852 167.656C255.074 168.637 253.948 169.128 252.476 169.128C251.314 169.128 250.354 168.755 249.596 168.008C248.839 167.261 248.46 166.285 248.46 165.08C248.46 163.907 248.823 162.947 249.548 162.2C250.284 161.443 251.212 161.064 252.332 161.064C253.463 161.064 254.38 161.437 255.084 162.184C255.799 162.92 256.156 163.864 256.156 165.016ZM252.396 162.904C251.959 162.904 251.586 163.021 251.276 163.256C250.967 163.491 250.754 163.827 250.636 164.264H254.076C253.842 163.357 253.282 162.904 252.396 162.904ZM257.925 169V157.224H260.021V169H257.925ZM271.959 169.112C270.327 169.112 268.951 168.6 267.831 167.576C266.721 166.552 266.167 165.144 266.167 163.352C266.167 161.667 266.679 160.269 267.703 159.16C268.737 158.051 270.156 157.496 271.959 157.496C272.791 157.496 273.601 157.677 274.391 158.04C275.191 158.403 275.889 158.947 276.487 159.672L274.839 161.08C274.017 160.12 273.057 159.64 271.959 159.64C270.956 159.64 270.129 159.981 269.479 160.664C268.839 161.336 268.519 162.232 268.519 163.352C268.519 164.408 268.839 165.277 269.479 165.96C270.119 166.643 270.945 166.984 271.959 166.984C273.1 166.984 274.06 166.504 274.839 165.544L276.487 166.968C275.335 168.397 273.825 169.112 271.959 169.112ZM283.57 161.192H285.65V169H283.666V168.056H283.618C283.074 168.771 282.295 169.128 281.282 169.128C280.194 169.128 279.298 168.76 278.594 168.024C277.9 167.277 277.554 166.307 277.554 165.112C277.554 163.939 277.9 162.973 278.594 162.216C279.298 161.448 280.178 161.064 281.234 161.064C282.204 161.064 282.967 161.4 283.522 162.072H283.57V161.192ZM281.666 167.256C282.22 167.256 282.69 167.059 283.074 166.664C283.458 166.269 283.65 165.757 283.65 165.128C283.65 164.499 283.463 163.976 283.09 163.56C282.716 163.144 282.247 162.936 281.682 162.936C281.106 162.936 280.626 163.139 280.242 163.544C279.858 163.939 279.666 164.467 279.666 165.128C279.666 165.757 279.852 166.269 280.226 166.664C280.599 167.059 281.079 167.256 281.666 167.256ZM297.224 161.064C299.059 161.064 299.976 162.195 299.976 164.456V169H297.88V164.968C297.88 163.613 297.427 162.936 296.52 162.936C296.062 162.936 295.678 163.128 295.368 163.512C295.07 163.885 294.92 164.413 294.92 165.096V169H292.824V164.968C292.824 163.613 292.366 162.936 291.448 162.936C290.958 162.936 290.558 163.128 290.248 163.512C289.95 163.885 289.8 164.413 289.8 165.096V169H287.704V161.192H289.8V162.232H289.816C290.435 161.453 291.214 161.064 292.152 161.064C293.24 161.064 294.014 161.48 294.472 162.312H294.504C295.155 161.48 296.062 161.064 297.224 161.064ZM306.466 161.064C307.522 161.064 308.397 161.448 309.09 162.216C309.794 162.973 310.146 163.939 310.146 165.112C310.146 166.307 309.794 167.277 309.09 168.024C308.397 168.76 307.501 169.128 306.402 169.128C305.378 169.128 304.583 168.771 304.018 168.056H303.97V169H301.97V157.224H304.066V162.072H304.114C304.69 161.4 305.474 161.064 306.466 161.064ZM306.018 167.256C306.615 167.256 307.095 167.059 307.458 166.664C307.831 166.269 308.018 165.757 308.018 165.128C308.018 164.467 307.826 163.939 307.442 163.544C307.069 163.139 306.594 162.936 306.018 162.936C305.421 162.936 304.93 163.144 304.546 163.56C304.162 163.976 303.97 164.499 303.97 165.128C303.97 165.757 304.167 166.269 304.562 166.664C304.957 167.059 305.442 167.256 306.018 167.256ZM312.997 160.088C312.645 160.088 312.341 159.965 312.085 159.72C311.829 159.464 311.701 159.16 311.701 158.808C311.701 158.456 311.829 158.157 312.085 157.912C312.341 157.656 312.645 157.528 312.997 157.528C313.36 157.528 313.669 157.656 313.925 157.912C314.181 158.157 314.309 158.456 314.309 158.808C314.309 159.16 314.181 159.464 313.925 159.72C313.669 159.965 313.36 160.088 312.997 160.088ZM311.941 169V161.192H314.037V169H311.941ZM319.979 169.128C318.753 169.128 317.755 168.749 316.987 167.992C316.219 167.235 315.835 166.269 315.835 165.096C315.835 163.923 316.219 162.957 316.987 162.2C317.755 161.443 318.753 161.064 319.979 161.064C321.195 161.064 322.193 161.437 322.971 162.184C323.75 162.931 324.139 163.901 324.139 165.096C324.139 166.291 323.75 167.261 322.971 168.008C322.193 168.755 321.195 169.128 319.979 169.128ZM319.979 167.256C320.555 167.256 321.035 167.053 321.419 166.648C321.814 166.243 322.011 165.725 322.011 165.096C322.011 164.456 321.819 163.939 321.435 163.544C321.051 163.139 320.566 162.936 319.979 162.936C319.382 162.936 318.891 163.144 318.507 163.56C318.134 163.965 317.947 164.477 317.947 165.096C317.947 165.704 318.139 166.216 318.523 166.632C318.907 167.048 319.393 167.256 319.979 167.256Z" fill="#CC2626"/>
</svg>
